<svg width="32" height="32" viewBox="0 0 32 32" fill="none" xmlns="http://www.w3.org/2000/svg">
<mask id="mask0_616_31507" style="mask-type:alpha" maskUnits="userSpaceOnUse" x="0" y="0" width="32" height="32">
<rect width="32" height="32" fill="#D9D9D9"/>
</mask>
<g mask="url(#mask0_616_31507)">
<path d="M18.8503 20.3832C19.6837 19.7498 20.2892 18.9332 20.667 17.9332H11.3337C11.7114 18.9332 12.317 19.7498 13.1503 20.3832C13.9837 21.0165 14.9337 21.3332 16.0003 21.3332C17.067 21.3332 18.017 21.0165 18.8503 20.3832ZM14.0837 15.4165C14.4725 15.0276 14.667 14.5554 14.667 13.9998C14.667 13.4443 14.4725 12.9721 14.0837 12.5832C13.6948 12.1943 13.2225 11.9998 12.667 11.9998C12.1114 11.9998 11.6392 12.1943 11.2503 12.5832C10.8614 12.9721 10.667 13.4443 10.667 13.9998C10.667 14.5554 10.8614 15.0276 11.2503 15.4165C11.6392 15.8054 12.1114 15.9998 12.667 15.9998C13.2225 15.9998 13.6948 15.8054 14.0837 15.4165ZM20.7503 15.4165C21.1392 15.0276 21.3337 14.5554 21.3337 13.9998C21.3337 13.4443 21.1392 12.9721 20.7503 12.5832C20.3614 12.1943 19.8892 11.9998 19.3337 11.9998C18.7781 11.9998 18.3059 12.1943 17.917 12.5832C17.5281 12.9721 17.3337 13.4443 17.3337 13.9998C17.3337 14.5554 17.5281 15.0276 17.917 15.4165C18.3059 15.8054 18.7781 15.9998 19.3337 15.9998C19.8892 15.9998 20.3614 15.8054 20.7503 15.4165ZM10.167 8.53317L13.9003 3.69984C14.167 3.34428 14.4837 3.08317 14.8503 2.9165C15.217 2.74984 15.6003 2.6665 16.0003 2.6665C16.4003 2.6665 16.7837 2.74984 17.1503 2.9165C17.517 3.08317 17.8337 3.34428 18.1003 3.69984L21.8337 8.53317L27.5003 10.4332C28.0781 10.6109 28.5337 10.9387 28.867 11.4165C29.2003 11.8943 29.367 12.4221 29.367 12.9998C29.367 13.2665 29.3281 13.5332 29.2503 13.7998C29.1725 14.0665 29.0448 14.3221 28.867 14.5665L25.2003 19.7665L25.3337 25.2332C25.3559 26.011 25.1003 26.6665 24.567 27.1998C24.0337 27.7332 23.4114 27.9998 22.7003 27.9998C22.6559 27.9998 22.4114 27.9665 21.967 27.8998L16.0003 26.2332L10.0337 27.8998C9.92255 27.9443 9.80032 27.9721 9.66699 27.9832C9.53366 27.9943 9.41144 27.9998 9.30032 27.9998C8.58921 27.9998 7.96699 27.7332 7.43366 27.1998C6.90033 26.6665 6.64477 26.011 6.66699 25.2332L6.80033 19.7332L3.16699 14.5665C2.98921 14.3221 2.86144 14.0665 2.78366 13.7998C2.70588 13.5332 2.66699 13.2665 2.66699 12.9998C2.66699 12.4443 2.8281 11.9276 3.15033 11.4498C3.47255 10.9721 3.92255 10.6332 4.50033 10.4332L10.167 8.53317Z" fill="#535BD8"/>
</g>
</svg>
