<svg width="24" height="24" viewBox="0 0 24 24" fill="none" xmlns="http://www.w3.org/2000/svg">
<mask id="mask0_616_27429" style="mask-type:alpha" maskUnits="userSpaceOnUse" x="0" y="0" width="24" height="24">
<rect width="24" height="24" fill="#D9D9D9"/>
</mask>
<g mask="url(#mask0_616_27429)">
<path d="M10.9988 17.0005H12.9988V13.0005H16.9988V11.0005H12.9988V7.00049H10.9988V11.0005H6.99878V13.0005H10.9988V17.0005ZM11.9988 22.0005C10.6154 22.0005 9.31545 21.738 8.09878 21.213C6.88211 20.688 5.82378 19.9755 4.92378 19.0755C4.02378 18.1755 3.31128 17.1172 2.78628 15.9005C2.26128 14.6838 1.99878 13.3838 1.99878 12.0005C1.99878 10.6172 2.26128 9.31715 2.78628 8.10049C3.31128 6.88382 4.02378 5.82549 4.92378 4.92549C5.82378 4.02549 6.88211 3.31299 8.09878 2.78799C9.31545 2.26299 10.6154 2.00049 11.9988 2.00049C13.3821 2.00049 14.6821 2.26299 15.8988 2.78799C17.1154 3.31299 18.1738 4.02549 19.0738 4.92549C19.9738 5.82549 20.6863 6.88382 21.2113 8.10049C21.7363 9.31715 21.9988 10.6172 21.9988 12.0005C21.9988 13.3838 21.7363 14.6838 21.2113 15.9005C20.6863 17.1172 19.9738 18.1755 19.0738 19.0755C18.1738 19.9755 17.1154 20.688 15.8988 21.213C14.6821 21.738 13.3821 22.0005 11.9988 22.0005Z" fill="#535BD8"/>
</g>
</svg>
