<svg width="44" height="44" viewBox="0 0 44 44" fill="none" xmlns="http://www.w3.org/2000/svg">
<rect width="44" height="44" rx="12" fill="#2BA8A6"/>
<mask id="mask0_616_27344" style="mask-type:alpha" maskUnits="userSpaceOnUse" x="7" y="7" width="30" height="30">
<rect x="7.33301" y="7.33325" width="29.3333" height="29.3333" fill="#D9D9D9"/>
</mask>
<g mask="url(#mask0_616_27344)">
<path d="M22.001 28.1119C23.3454 28.1119 24.4963 27.6332 25.4538 26.6758C26.4112 25.7184 26.8899 24.5675 26.8899 23.223H17.1121C17.1121 24.5675 17.5908 25.7184 18.5482 26.6758C19.5056 27.6332 20.6565 28.1119 22.001 28.1119ZM15.8899 18.3341H20.7788C20.7788 17.6619 20.5394 17.0864 20.0607 16.6077C19.582 16.129 19.0065 15.8897 18.3343 15.8897C17.6621 15.8897 17.0866 16.129 16.6079 16.6077C16.1292 17.0864 15.8899 17.6619 15.8899 18.3341ZM23.2232 18.3341H28.1121C28.1121 17.6619 27.8727 17.0864 27.394 16.6077C26.9153 16.129 26.3399 15.8897 25.6676 15.8897C24.9954 15.8897 24.42 16.129 23.9413 16.6077C23.4626 17.0864 23.2232 17.6619 23.2232 18.3341ZM22.001 34.223C20.4732 34.223 19.0422 33.9327 17.7079 33.3522C16.3737 32.7716 15.2126 31.9874 14.2246 30.9994C13.2366 30.0114 12.4524 28.8503 11.8718 27.5161C11.2913 26.1818 11.001 24.7508 11.001 23.223V9.77856H33.001V23.223C33.001 24.7508 32.7107 26.1818 32.1301 27.5161C31.5496 28.8503 30.7653 30.0114 29.7774 30.9994C28.7894 31.9874 27.6283 32.7716 26.294 33.3522C24.9598 33.9327 23.5288 34.223 22.001 34.223ZM22.001 31.7786C24.3639 31.7786 26.3806 30.9434 28.051 29.273C29.7213 27.6026 30.5565 25.586 30.5565 23.223V12.223H13.4454V23.223C13.4454 25.586 14.2806 27.6026 15.951 29.273C17.6213 30.9434 19.638 31.7786 22.001 31.7786Z" fill="white"/>
</g>
</svg>
