<svg width="30" height="30" viewBox="0 0 30 30" fill="none" xmlns="http://www.w3.org/2000/svg">
<path d="M25.6655 14.0559C25.6697 15.6691 25.2928 17.2604 24.5655 18.7004C23.7032 20.4258 22.3774 21.8771 20.7369 22.8917C19.0963 23.9063 17.2056 24.4441 15.2766 24.4448C13.6635 24.449 12.0721 24.0721 10.6322 23.3448L3.66553 25.667L5.98775 18.7004C5.26044 17.2604 4.88354 15.6691 4.88775 14.0559C4.8885 12.127 5.42628 10.2363 6.44085 8.5957C7.45543 6.95511 8.90673 5.62939 10.6322 4.76703C12.0721 4.03972 13.6635 3.66282 15.2766 3.66703H15.8878C18.4353 3.80757 20.8415 4.88285 22.6456 6.68697C24.4497 8.49109 25.525 10.8973 25.6655 13.4448V14.0559Z" stroke="white" stroke-width="2.44444" stroke-linecap="round" stroke-linejoin="round"/>
</svg>
