<svg width="48" height="48" viewBox="0 0 48 48" fill="none" xmlns="http://www.w3.org/2000/svg">
<rect width="48" height="48" rx="12" fill="#F3F2FF"/>
<mask id="mask0_616_27321" style="mask-type:alpha" maskUnits="userSpaceOnUse" x="12" y="12" width="24" height="24">
<rect x="12" y="12" width="24" height="24" fill="#D9D9D9"/>
</mask>
<g mask="url(#mask0_616_27321)">
<path d="M26.1375 27.2875C26.7625 26.8125 27.2167 26.2 27.5 25.45H20.5C20.7833 26.2 21.2375 26.8125 21.8625 27.2875C22.4875 27.7625 23.2 28 24 28C24.8 28 25.5125 27.7625 26.1375 27.2875ZM22.5625 23.5625C22.8542 23.2708 23 22.9167 23 22.5C23 22.0833 22.8542 21.7292 22.5625 21.4375C22.2708 21.1458 21.9167 21 21.5 21C21.0833 21 20.7292 21.1458 20.4375 21.4375C20.1458 21.7292 20 22.0833 20 22.5C20 22.9167 20.1458 23.2708 20.4375 23.5625C20.7292 23.8542 21.0833 24 21.5 24C21.9167 24 22.2708 23.8542 22.5625 23.5625ZM27.5625 23.5625C27.8542 23.2708 28 22.9167 28 22.5C28 22.0833 27.8542 21.7292 27.5625 21.4375C27.2708 21.1458 26.9167 21 26.5 21C26.0833 21 25.7292 21.1458 25.4375 21.4375C25.1458 21.7292 25 22.0833 25 22.5C25 22.9167 25.1458 23.2708 25.4375 23.5625C25.7292 23.8542 26.0833 24 26.5 24C26.9167 24 27.2708 23.8542 27.5625 23.5625ZM19.625 18.4L22.425 14.775C22.625 14.5083 22.8625 14.3125 23.1375 14.1875C23.4125 14.0625 23.7 14 24 14C24.3 14 24.5875 14.0625 24.8625 14.1875C25.1375 14.3125 25.375 14.5083 25.575 14.775L28.375 18.4L32.625 19.825C33.0583 19.9583 33.4 20.2042 33.65 20.5625C33.9 20.9208 34.025 21.3167 34.025 21.75C34.025 21.95 33.9958 22.15 33.9375 22.35C33.8792 22.55 33.7833 22.7417 33.65 22.925L30.9 26.825L31 30.925C31.0167 31.5083 30.825 32 30.425 32.4C30.025 32.8 29.5583 33 29.025 33C28.9917 33 28.8083 32.975 28.475 32.925L24 31.675L19.525 32.925C19.4417 32.9583 19.35 32.9792 19.25 32.9875C19.15 32.9958 19.0583 33 18.975 33C18.4417 33 17.975 32.8 17.575 32.4C17.175 32 16.9833 31.5083 17 30.925L17.1 26.8L14.375 22.925C14.2417 22.7417 14.1458 22.55 14.0875 22.35C14.0292 22.15 14 21.95 14 21.75C14 21.3333 14.1208 20.9458 14.3625 20.5875C14.6042 20.2292 14.9417 19.975 15.375 19.825L19.625 18.4Z" fill="#B87FE5"/>
</g>
</svg>
