<svg width="389" height="100" viewBox="0 0 389 100" fill="none" xmlns="http://www.w3.org/2000/svg">
<mask id="path-1-inside-1_616_27240" fill="white">
<path d="M0 0H390V100H0V0Z"/>
</mask>
<path d="M0 0H390V100H0V0Z" fill="white"/>
<path d="M0 0V1H390V0V-1H0V0Z" fill="#DFDFDF" mask="url(#path-1-inside-1_616_27240)"/>
<rect x="24" y="23" width="342" height="54" rx="27" fill="#535BD8"/>
<path d="M110.582 47.2102C110.536 46.7519 110.341 46.3958 109.996 46.142C109.652 45.8883 109.184 45.7614 108.593 45.7614C108.192 45.7614 107.853 45.8182 107.576 45.9318C107.299 46.0417 107.087 46.1951 106.94 46.392C106.796 46.589 106.724 46.8125 106.724 47.0625C106.716 47.2708 106.76 47.4527 106.854 47.608C106.953 47.7633 107.087 47.8977 107.258 48.0114C107.428 48.1212 107.625 48.2178 107.849 48.3011C108.072 48.3807 108.311 48.4489 108.565 48.5057L109.61 48.7557C110.118 48.8693 110.584 49.0208 111.008 49.2102C111.432 49.3996 111.799 49.6326 112.11 49.9091C112.421 50.1856 112.661 50.5114 112.832 50.8864C113.006 51.2614 113.095 51.6913 113.099 52.1761C113.095 52.8883 112.913 53.5057 112.553 54.0284C112.197 54.5473 111.682 54.9508 111.008 55.2386C110.337 55.5227 109.529 55.6648 108.582 55.6648C107.642 55.6648 106.824 55.5208 106.127 55.233C105.434 54.9451 104.892 54.5189 104.502 53.9545C104.116 53.3864 103.913 52.6837 103.894 51.8466H106.275C106.301 52.2367 106.413 52.5625 106.61 52.8239C106.811 53.0814 107.078 53.2765 107.411 53.4091C107.748 53.5379 108.129 53.6023 108.553 53.6023C108.97 53.6023 109.332 53.5417 109.638 53.4205C109.949 53.2992 110.19 53.1307 110.36 52.9148C110.531 52.6989 110.616 52.4508 110.616 52.1705C110.616 51.9091 110.538 51.6894 110.383 51.5114C110.231 51.3333 110.008 51.1818 109.712 51.0568C109.421 50.9318 109.063 50.8182 108.638 50.7159L107.371 50.3977C106.39 50.1591 105.616 49.786 105.048 49.2784C104.479 48.7708 104.197 48.0871 104.201 47.2273C104.197 46.5227 104.385 45.9072 104.763 45.3807C105.146 44.8542 105.671 44.4432 106.337 44.1477C107.004 43.8523 107.762 43.7045 108.61 43.7045C109.474 43.7045 110.228 43.8523 110.871 44.1477C111.519 44.4432 112.023 44.8542 112.383 45.3807C112.743 45.9072 112.928 46.517 112.94 47.2102H110.582ZM119.35 46.7727V48.5909H114.094V46.7727H119.35ZM115.288 44.6818H117.708V52.8182C117.708 53.0417 117.742 53.2159 117.81 53.3409C117.879 53.4621 117.973 53.5473 118.094 53.5966C118.219 53.6458 118.363 53.6705 118.526 53.6705C118.64 53.6705 118.754 53.661 118.867 53.642C118.981 53.6193 119.068 53.6023 119.129 53.5909L119.509 55.392C119.388 55.4299 119.218 55.4735 118.998 55.5227C118.778 55.5758 118.511 55.608 118.197 55.6193C117.613 55.642 117.102 55.5644 116.663 55.3864C116.227 55.2083 115.888 54.9318 115.646 54.5568C115.403 54.1818 115.284 53.7083 115.288 53.1364V44.6818ZM123.415 55.6648C122.859 55.6648 122.362 55.5682 121.927 55.375C121.491 55.178 121.147 54.8883 120.893 54.5057C120.643 54.1193 120.518 53.6383 120.518 53.0625C120.518 52.5777 120.607 52.1705 120.785 51.8409C120.963 51.5114 121.205 51.2462 121.512 51.0455C121.819 50.8447 122.167 50.6932 122.558 50.5909C122.951 50.4886 123.364 50.4167 123.796 50.375C124.304 50.322 124.713 50.2727 125.023 50.2273C125.334 50.178 125.559 50.1061 125.7 50.0114C125.84 49.9167 125.91 49.7765 125.91 49.5909V49.5568C125.91 49.197 125.796 48.9186 125.569 48.7216C125.345 48.5246 125.027 48.4261 124.614 48.4261C124.179 48.4261 123.832 48.5227 123.575 48.7159C123.317 48.9053 123.147 49.1439 123.063 49.4318L120.825 49.25C120.938 48.7197 121.162 48.2614 121.495 47.875C121.828 47.4848 122.258 47.1856 122.785 46.9773C123.315 46.7652 123.929 46.6591 124.626 46.6591C125.111 46.6591 125.575 46.7159 126.018 46.8295C126.465 46.9432 126.861 47.1193 127.205 47.358C127.554 47.5966 127.828 47.9034 128.029 48.2784C128.23 48.6496 128.33 49.0947 128.33 49.6136V55.5H126.035V54.2898H125.967C125.826 54.5625 125.639 54.803 125.404 55.0114C125.169 55.2159 124.887 55.3769 124.558 55.4943C124.228 55.608 123.847 55.6648 123.415 55.6648ZM124.109 53.9943C124.465 53.9943 124.779 53.9242 125.052 53.7841C125.325 53.6402 125.539 53.447 125.694 53.2045C125.849 52.9621 125.927 52.6875 125.927 52.3807V51.4545C125.851 51.5038 125.747 51.5492 125.614 51.5909C125.486 51.6288 125.34 51.6648 125.177 51.6989C125.014 51.7292 124.851 51.7576 124.688 51.7841C124.525 51.8068 124.378 51.8277 124.245 51.8466C123.961 51.8883 123.713 51.9545 123.501 52.0455C123.289 52.1364 123.124 52.2595 123.006 52.4148C122.889 52.5663 122.83 52.7557 122.83 52.983C122.83 53.3125 122.95 53.5644 123.188 53.7386C123.431 53.9091 123.737 53.9943 124.109 53.9943ZM130.208 55.5V46.7727H132.555V48.2955H132.646C132.805 47.7538 133.072 47.3447 133.447 47.0682C133.822 46.7879 134.254 46.6477 134.742 46.6477C134.863 46.6477 134.994 46.6553 135.134 46.6705C135.274 46.6856 135.397 46.7064 135.504 46.733V48.8807C135.39 48.8466 135.233 48.8163 135.032 48.7898C134.831 48.7633 134.647 48.75 134.481 48.75C134.125 48.75 133.807 48.8277 133.526 48.983C133.25 49.1345 133.03 49.3466 132.867 49.6193C132.708 49.892 132.629 50.2064 132.629 50.5625V55.5H130.208ZM141.835 46.7727V48.5909H136.579V46.7727H141.835ZM137.772 44.6818H140.192V52.8182C140.192 53.0417 140.227 53.2159 140.295 53.3409C140.363 53.4621 140.458 53.5473 140.579 53.5966C140.704 53.6458 140.848 53.6705 141.011 53.6705C141.124 53.6705 141.238 53.661 141.352 53.642C141.465 53.6193 141.552 53.6023 141.613 53.5909L141.994 55.392C141.872 55.4299 141.702 55.4735 141.482 55.5227C141.263 55.5758 140.996 55.608 140.681 55.6193C140.098 55.642 139.586 55.5644 139.147 55.3864C138.711 55.2083 138.372 54.9318 138.13 54.5568C137.888 54.1818 137.768 53.7083 137.772 53.1364V44.6818ZM153.472 47.2102C153.427 46.7519 153.232 46.3958 152.887 46.142C152.542 45.8883 152.075 45.7614 151.484 45.7614C151.082 45.7614 150.743 45.8182 150.467 45.9318C150.19 46.0417 149.978 46.1951 149.83 46.392C149.686 46.589 149.614 46.8125 149.614 47.0625C149.607 47.2708 149.65 47.4527 149.745 47.608C149.844 47.7633 149.978 47.8977 150.148 48.0114C150.319 48.1212 150.516 48.2178 150.739 48.3011C150.963 48.3807 151.201 48.4489 151.455 48.5057L152.501 48.7557C153.008 48.8693 153.474 49.0208 153.898 49.2102C154.323 49.3996 154.69 49.6326 155.001 49.9091C155.311 50.1856 155.552 50.5114 155.722 50.8864C155.897 51.2614 155.986 51.6913 155.989 52.1761C155.986 52.8883 155.804 53.5057 155.444 54.0284C155.088 54.5473 154.573 54.9508 153.898 55.2386C153.228 55.5227 152.419 55.6648 151.472 55.6648C150.533 55.6648 149.715 55.5208 149.018 55.233C148.325 54.9451 147.783 54.5189 147.393 53.9545C147.006 53.3864 146.804 52.6837 146.785 51.8466H149.165C149.192 52.2367 149.304 52.5625 149.501 52.8239C149.701 53.0814 149.969 53.2765 150.302 53.4091C150.639 53.5379 151.02 53.6023 151.444 53.6023C151.861 53.6023 152.222 53.5417 152.529 53.4205C152.84 53.2992 153.08 53.1307 153.251 52.9148C153.421 52.6989 153.506 52.4508 153.506 52.1705C153.506 51.9091 153.429 51.6894 153.273 51.5114C153.122 51.3333 152.898 51.1818 152.603 51.0568C152.311 50.9318 151.953 50.8182 151.529 50.7159L150.262 50.3977C149.281 50.1591 148.506 49.786 147.938 49.2784C147.37 48.7708 147.088 48.0871 147.092 47.2273C147.088 46.5227 147.275 45.9072 147.654 45.3807C148.037 44.8542 148.561 44.4432 149.228 44.1477C149.895 43.8523 150.652 43.7045 151.501 43.7045C152.364 43.7045 153.118 43.8523 153.762 44.1477C154.41 44.4432 154.914 44.8542 155.273 45.3807C155.633 45.9072 155.819 46.517 155.83 47.2102H153.472ZM161.542 55.6705C160.648 55.6705 159.879 55.4811 159.235 55.1023C158.595 54.7197 158.103 54.1894 157.758 53.5114C157.417 52.8333 157.246 52.053 157.246 51.1705C157.246 50.2765 157.419 49.4924 157.763 48.8182C158.112 48.1402 158.606 47.6117 159.246 47.233C159.887 46.8504 160.648 46.6591 161.531 46.6591C162.292 46.6591 162.959 46.7973 163.531 47.0739C164.103 47.3504 164.555 47.7386 164.888 48.2386C165.222 48.7386 165.406 49.3258 165.44 50H163.156C163.091 49.5644 162.921 49.214 162.644 48.9489C162.371 48.6799 162.013 48.5455 161.57 48.5455C161.195 48.5455 160.868 48.6477 160.587 48.8523C160.311 49.053 160.095 49.3466 159.94 49.733C159.784 50.1193 159.707 50.5871 159.707 51.1364C159.707 51.6932 159.782 52.1667 159.934 52.5568C160.089 52.947 160.307 53.2443 160.587 53.4489C160.868 53.6534 161.195 53.7557 161.57 53.7557C161.847 53.7557 162.095 53.6989 162.315 53.5852C162.538 53.4716 162.722 53.3068 162.866 53.0909C163.013 52.8712 163.11 52.608 163.156 52.3011H165.44C165.402 52.9678 165.22 53.5549 164.894 54.0625C164.572 54.5663 164.127 54.9602 163.559 55.2443C162.991 55.5284 162.318 55.6705 161.542 55.6705ZM166.989 55.5V46.7727H169.336V48.2955H169.427C169.586 47.7538 169.853 47.3447 170.228 47.0682C170.603 46.7879 171.035 46.6477 171.523 46.6477C171.645 46.6477 171.775 46.6553 171.915 46.6705C172.056 46.6856 172.179 46.7064 172.285 46.733V48.8807C172.171 48.8466 172.014 48.8163 171.813 48.7898C171.612 48.7633 171.429 48.75 171.262 48.75C170.906 48.75 170.588 48.8277 170.308 48.983C170.031 49.1345 169.811 49.3466 169.648 49.6193C169.489 49.892 169.41 50.2064 169.41 50.5625V55.5H166.989ZM177.107 55.6705C176.21 55.6705 175.437 55.4886 174.789 55.125C174.145 54.7576 173.649 54.2386 173.3 53.5682C172.952 52.8939 172.778 52.0966 172.778 51.1761C172.778 50.2784 172.952 49.4905 173.3 48.8125C173.649 48.1345 174.139 47.6061 174.772 47.2273C175.408 46.8485 176.155 46.6591 177.011 46.6591C177.586 46.6591 178.122 46.7519 178.619 46.9375C179.119 47.1193 179.554 47.3939 179.925 47.7614C180.3 48.1288 180.592 48.5909 180.8 49.1477C181.009 49.7008 181.113 50.3485 181.113 51.0909V51.7557H173.744V50.2557H178.835C178.835 49.9072 178.759 49.5985 178.607 49.3295C178.456 49.0606 178.246 48.8504 177.977 48.6989C177.711 48.5436 177.403 48.4659 177.05 48.4659C176.683 48.4659 176.357 48.5511 176.073 48.7216C175.793 48.8883 175.573 49.1136 175.414 49.3977C175.255 49.678 175.174 49.9905 175.17 50.3352V51.7614C175.17 52.1932 175.249 52.5663 175.408 52.8807C175.571 53.1951 175.8 53.4375 176.096 53.608C176.391 53.7784 176.742 53.8636 177.147 53.8636C177.416 53.8636 177.662 53.8258 177.886 53.75C178.109 53.6742 178.3 53.5606 178.46 53.4091C178.619 53.2576 178.74 53.072 178.823 52.8523L181.062 53C180.948 53.5379 180.715 54.0076 180.363 54.4091C180.014 54.8068 179.564 55.1174 179.011 55.3409C178.461 55.5606 177.827 55.6705 177.107 55.6705ZM186.67 55.6705C185.772 55.6705 184.999 55.4886 184.352 55.125C183.708 54.7576 183.211 54.2386 182.863 53.5682C182.514 52.8939 182.34 52.0966 182.34 51.1761C182.34 50.2784 182.514 49.4905 182.863 48.8125C183.211 48.1345 183.702 47.6061 184.335 47.2273C184.971 46.8485 185.717 46.6591 186.573 46.6591C187.149 46.6591 187.685 46.7519 188.181 46.9375C188.681 47.1193 189.117 47.3939 189.488 47.7614C189.863 48.1288 190.155 48.5909 190.363 49.1477C190.571 49.7008 190.675 50.3485 190.675 51.0909V51.7557H183.306V50.2557H188.397C188.397 49.9072 188.321 49.5985 188.17 49.3295C188.018 49.0606 187.808 48.8504 187.539 48.6989C187.274 48.5436 186.965 48.4659 186.613 48.4659C186.246 48.4659 185.92 48.5511 185.636 48.7216C185.355 48.8883 185.136 49.1136 184.977 49.3977C184.817 49.678 184.736 49.9905 184.732 50.3352V51.7614C184.732 52.1932 184.812 52.5663 184.971 52.8807C185.134 53.1951 185.363 53.4375 185.658 53.608C185.954 53.7784 186.304 53.8636 186.71 53.8636C186.978 53.8636 187.225 53.8258 187.448 53.75C187.672 53.6742 187.863 53.5606 188.022 53.4091C188.181 53.2576 188.302 53.072 188.386 52.8523L190.624 53C190.511 53.5379 190.278 54.0076 189.925 54.4091C189.577 54.8068 189.126 55.1174 188.573 55.3409C188.024 55.5606 187.389 55.6705 186.67 55.6705ZM194.675 50.4545V55.5H192.255V46.7727H194.562V48.3125H194.664C194.857 47.8049 195.181 47.4034 195.636 47.108C196.09 46.8087 196.641 46.6591 197.289 46.6591C197.895 46.6591 198.424 46.7917 198.874 47.0568C199.325 47.322 199.675 47.7008 199.925 48.1932C200.175 48.6818 200.3 49.2652 200.3 49.9432V55.5H197.88V50.375C197.884 49.8409 197.747 49.4242 197.471 49.125C197.194 48.822 196.814 48.6705 196.329 48.6705C196.003 48.6705 195.715 48.7405 195.465 48.8807C195.219 49.0208 195.026 49.2254 194.886 49.4943C194.749 49.7595 194.679 50.0795 194.675 50.4545ZM202.208 55.5V46.7727H204.629V55.5H202.208ZM203.424 45.6477C203.064 45.6477 202.755 45.5284 202.498 45.2898C202.244 45.0473 202.117 44.7576 202.117 44.4205C202.117 44.0871 202.244 43.8011 202.498 43.5625C202.755 43.3201 203.064 43.1989 203.424 43.1989C203.784 43.1989 204.091 43.3201 204.344 43.5625C204.602 43.8011 204.731 44.0871 204.731 44.4205C204.731 44.7576 204.602 45.0473 204.344 45.2898C204.091 45.5284 203.784 45.6477 203.424 45.6477ZM208.988 50.4545V55.5H206.567V46.7727H208.874V48.3125H208.977C209.17 47.8049 209.494 47.4034 209.948 47.108C210.403 46.8087 210.954 46.6591 211.602 46.6591C212.208 46.6591 212.736 46.7917 213.187 47.0568C213.638 47.322 213.988 47.7008 214.238 48.1932C214.488 48.6818 214.613 49.2652 214.613 49.9432V55.5H212.192V50.375C212.196 49.8409 212.06 49.4242 211.783 49.125C211.507 48.822 211.126 48.6705 210.641 48.6705C210.316 48.6705 210.028 48.7405 209.778 48.8807C209.531 49.0208 209.338 49.2254 209.198 49.4943C209.062 49.7595 208.992 50.0795 208.988 50.4545ZM220.452 58.9545C219.668 58.9545 218.996 58.8466 218.435 58.6307C217.879 58.4186 217.435 58.1288 217.106 57.7614C216.776 57.3939 216.562 56.9811 216.464 56.5227L218.702 56.2216C218.771 56.3958 218.879 56.5587 219.026 56.7102C219.174 56.8617 219.369 56.983 219.612 57.0739C219.858 57.1686 220.157 57.2159 220.509 57.2159C221.036 57.2159 221.469 57.0871 221.81 56.8295C222.155 56.5758 222.327 56.1496 222.327 55.5511V53.9545H222.225C222.119 54.197 221.96 54.4261 221.748 54.642C221.536 54.858 221.263 55.0341 220.93 55.1705C220.596 55.3068 220.199 55.375 219.737 55.375C219.081 55.375 218.485 55.2235 217.947 54.9205C217.413 54.6136 216.987 54.1458 216.668 53.517C216.354 52.8845 216.197 52.0852 216.197 51.1193C216.197 50.1307 216.358 49.3049 216.68 48.642C217.002 47.9792 217.43 47.483 217.964 47.1534C218.502 46.8239 219.091 46.6591 219.731 46.6591C220.219 46.6591 220.629 46.7424 220.958 46.9091C221.288 47.072 221.553 47.2765 221.754 47.5227C221.958 47.7652 222.115 48.0038 222.225 48.2386H222.316V46.7727H224.719V55.5852C224.719 56.3277 224.538 56.9489 224.174 57.4489C223.81 57.9489 223.307 58.3239 222.663 58.5739C222.022 58.8277 221.286 58.9545 220.452 58.9545ZM220.504 53.5568C220.894 53.5568 221.223 53.4602 221.492 53.267C221.765 53.0701 221.973 52.7898 222.117 52.4261C222.265 52.0587 222.339 51.6193 222.339 51.108C222.339 50.5966 222.267 50.1534 222.123 49.7784C221.979 49.3996 221.771 49.1061 221.498 48.8977C221.225 48.6894 220.894 48.5852 220.504 48.5852C220.106 48.5852 219.771 48.6932 219.498 48.9091C219.225 49.1212 219.019 49.4167 218.879 49.7955C218.738 50.1742 218.668 50.6117 218.668 51.108C218.668 51.6117 218.738 52.0473 218.879 52.4148C219.022 52.7784 219.229 53.0606 219.498 53.2614C219.771 53.4583 220.106 53.5568 220.504 53.5568ZM235.042 46.7727V48.5909H229.656V46.7727H235.042ZM230.888 55.5V46.142C230.888 45.5095 231.012 44.9848 231.258 44.5682C231.508 44.1515 231.849 43.839 232.281 43.6307C232.712 43.4223 233.203 43.3182 233.752 43.3182C234.123 43.3182 234.462 43.3466 234.769 43.4034C235.08 43.4602 235.311 43.5114 235.462 43.5568L235.031 45.375C234.936 45.3447 234.818 45.3163 234.678 45.2898C234.542 45.2633 234.402 45.25 234.258 45.25C233.902 45.25 233.654 45.3333 233.513 45.5C233.373 45.6629 233.303 45.892 233.303 46.1875V55.5H230.888ZM240.151 55.6705C239.269 55.6705 238.505 55.483 237.862 55.108C237.221 54.7292 236.727 54.2027 236.379 53.5284C236.03 52.8504 235.856 52.0644 235.856 51.1705C235.856 50.2689 236.03 49.4811 236.379 48.8068C236.727 48.1288 237.221 47.6023 237.862 47.2273C238.505 46.8485 239.269 46.6591 240.151 46.6591C241.034 46.6591 241.795 46.8485 242.435 47.2273C243.079 47.6023 243.576 48.1288 243.924 48.8068C244.272 49.4811 244.447 50.2689 244.447 51.1705C244.447 52.0644 244.272 52.8504 243.924 53.5284C243.576 54.2027 243.079 54.7292 242.435 55.108C241.795 55.483 241.034 55.6705 240.151 55.6705ZM240.163 53.7955C240.564 53.7955 240.899 53.6818 241.168 53.4545C241.437 53.2235 241.64 52.9091 241.776 52.5114C241.916 52.1136 241.987 51.661 241.987 51.1534C241.987 50.6458 241.916 50.1932 241.776 49.7955C241.64 49.3977 241.437 49.0833 241.168 48.8523C240.899 48.6212 240.564 48.5057 240.163 48.5057C239.757 48.5057 239.416 48.6212 239.14 48.8523C238.867 49.0833 238.661 49.3977 238.521 49.7955C238.384 50.1932 238.316 50.6458 238.316 51.1534C238.316 51.661 238.384 52.1136 238.521 52.5114C238.661 52.9091 238.867 53.2235 239.14 53.4545C239.416 53.6818 239.757 53.7955 240.163 53.7955ZM246.021 55.5V46.7727H248.367V48.2955H248.458C248.617 47.7538 248.884 47.3447 249.259 47.0682C249.634 46.7879 250.066 46.6477 250.555 46.6477C250.676 46.6477 250.807 46.6553 250.947 46.6705C251.087 46.6856 251.21 46.7064 251.316 46.733V48.8807C251.202 48.8466 251.045 48.8163 250.844 48.7898C250.644 48.7633 250.46 48.75 250.293 48.75C249.937 48.75 249.619 48.8277 249.339 48.983C249.062 49.1345 248.843 49.3466 248.68 49.6193C248.521 49.892 248.441 50.2064 248.441 50.5625V55.5H246.021ZM260.964 46.7727V48.5909H255.577V46.7727H260.964ZM256.81 55.5V46.142C256.81 45.5095 256.933 44.9848 257.18 44.5682C257.43 44.1515 257.771 43.839 258.202 43.6307C258.634 43.4223 259.125 43.3182 259.674 43.3182C260.045 43.3182 260.384 43.3466 260.691 43.4034C261.002 43.4602 261.233 43.5114 261.384 43.5568L260.952 45.375C260.858 45.3447 260.74 45.3163 260.6 45.2898C260.464 45.2633 260.324 45.25 260.18 45.25C259.824 45.25 259.576 45.3333 259.435 45.5C259.295 45.6629 259.225 45.892 259.225 46.1875V55.5H256.81ZM262.442 55.5V46.7727H264.789V48.2955H264.88C265.039 47.7538 265.306 47.3447 265.681 47.0682C266.056 46.7879 266.488 46.6477 266.977 46.6477C267.098 46.6477 267.228 46.6553 267.369 46.6705C267.509 46.6856 267.632 46.7064 267.738 46.733V48.8807C267.624 48.8466 267.467 48.8163 267.266 48.7898C267.066 48.7633 266.882 48.75 266.715 48.75C266.359 48.75 266.041 48.8277 265.761 48.983C265.484 49.1345 265.264 49.3466 265.102 49.6193C264.942 49.892 264.863 50.2064 264.863 50.5625V55.5H262.442ZM272.56 55.6705C271.663 55.6705 270.89 55.4886 270.242 55.125C269.598 54.7576 269.102 54.2386 268.754 53.5682C268.405 52.8939 268.231 52.0966 268.231 51.1761C268.231 50.2784 268.405 49.4905 268.754 48.8125C269.102 48.1345 269.593 47.6061 270.225 47.2273C270.862 46.8485 271.608 46.6591 272.464 46.6591C273.04 46.6591 273.576 46.7519 274.072 46.9375C274.572 47.1193 275.007 47.3939 275.379 47.7614C275.754 48.1288 276.045 48.5909 276.254 49.1477C276.462 49.7008 276.566 50.3485 276.566 51.0909V51.7557H269.197V50.2557H274.288C274.288 49.9072 274.212 49.5985 274.06 49.3295C273.909 49.0606 273.699 48.8504 273.43 48.6989C273.165 48.5436 272.856 48.4659 272.504 48.4659C272.136 48.4659 271.81 48.5511 271.526 48.7216C271.246 48.8883 271.026 49.1136 270.867 49.3977C270.708 49.678 270.627 49.9905 270.623 50.3352V51.7614C270.623 52.1932 270.702 52.5663 270.862 52.8807C271.024 53.1951 271.254 53.4375 271.549 53.608C271.844 53.7784 272.195 53.8636 272.6 53.8636C272.869 53.8636 273.115 53.8258 273.339 53.75C273.562 53.6742 273.754 53.5606 273.913 53.4091C274.072 53.2576 274.193 53.072 274.276 52.8523L276.515 53C276.401 53.5379 276.168 54.0076 275.816 54.4091C275.468 54.8068 275.017 55.1174 274.464 55.3409C273.915 55.5606 273.28 55.6705 272.56 55.6705ZM282.123 55.6705C281.225 55.6705 280.452 55.4886 279.805 55.125C279.161 54.7576 278.665 54.2386 278.316 53.5682C277.968 52.8939 277.793 52.0966 277.793 51.1761C277.793 50.2784 277.968 49.4905 278.316 48.8125C278.665 48.1345 279.155 47.6061 279.788 47.2273C280.424 46.8485 281.17 46.6591 282.026 46.6591C282.602 46.6591 283.138 46.7519 283.634 46.9375C284.134 47.1193 284.57 47.3939 284.941 47.7614C285.316 48.1288 285.608 48.5909 285.816 49.1477C286.024 49.7008 286.129 50.3485 286.129 51.0909V51.7557H278.759V50.2557H283.85C283.85 49.9072 283.774 49.5985 283.623 49.3295C283.471 49.0606 283.261 48.8504 282.992 48.6989C282.727 48.5436 282.418 48.4659 282.066 48.4659C281.699 48.4659 281.373 48.5511 281.089 48.7216C280.808 48.8883 280.589 49.1136 280.43 49.3977C280.271 49.678 280.189 49.9905 280.185 50.3352V51.7614C280.185 52.1932 280.265 52.5663 280.424 52.8807C280.587 53.1951 280.816 53.4375 281.112 53.608C281.407 53.7784 281.757 53.8636 282.163 53.8636C282.432 53.8636 282.678 53.8258 282.901 53.75C283.125 53.6742 283.316 53.5606 283.475 53.4091C283.634 53.2576 283.755 53.072 283.839 52.8523L286.077 53C285.964 53.5379 285.731 54.0076 285.379 54.4091C285.03 54.8068 284.579 55.1174 284.026 55.3409C283.477 55.5606 282.843 55.6705 282.123 55.6705Z" fill="white"/>
</svg>
