<svg width="33" height="32" viewBox="0 0 33 32" fill="none" xmlns="http://www.w3.org/2000/svg">
<g clip-path="url(#clip0_616_27040)">
<path d="M18.7395 0.579265C18.7957 0.578732 18.8521 0.58068 18.9081 0.5851C20.1057 0.67346 20.6817 1.61537 21.4352 2.41142C21.9251 2.92925 22.4262 3.4694 22.8912 4.00843C22.9719 3.77093 23.0152 3.5188 23.1005 3.26983C23.4089 2.36179 23.9687 1.55893 24.7155 0.953798C24.9102 0.794181 25.206 0.54485 25.4642 0.583021C25.6353 0.608295 25.7742 0.678447 25.8753 0.820242C26.0063 1.00389 26.0122 1.24825 25.8905 1.43805C25.801 1.57604 25.4501 1.80874 25.2958 1.94699C24.5279 2.63502 24.1181 3.4762 23.9694 4.48385C24.161 4.57181 24.3821 4.71174 24.5823 4.81291C24.5934 4.80492 24.6047 4.79707 24.616 4.78935C25.9336 3.89194 27.9076 3.47556 29.4681 3.79471C29.8301 3.88353 31.012 4.09999 31.1757 4.45912C31.4475 5.05514 30.9352 5.45171 30.3163 5.19853C28.8052 4.58038 27.0185 4.72838 25.5997 5.51881C25.6471 5.5735 25.6962 5.62041 25.7475 5.67117C25.9401 5.72104 26.2513 5.77414 26.4605 5.8193L28.5464 6.26998C28.8455 6.33531 29.144 6.39361 29.4423 6.46361C30.7278 6.76543 31.5313 8.09667 31.1778 9.37276C31.1344 9.53201 31.0746 9.68646 30.9996 9.83374C30.7621 10.3091 30.4382 10.8249 30.1662 11.2881C29.6841 12.1088 29.4101 12.8675 28.5486 13.3556C28.6545 13.5305 28.841 14.09 28.9078 14.3021C30.2415 14.5119 31.4568 15.6124 31.8328 16.8955C32.1029 17.8085 31.991 18.7915 31.5229 19.6214C31.1138 20.356 30.4327 20.9393 29.6579 21.2657C29.4042 21.3726 29.1672 21.4374 28.9029 21.5137C28.7621 21.8736 28.6685 22.1816 28.5044 22.557C27.8066 24.152 26.9367 25.3138 25.7101 26.5236C25.3048 26.9221 24.823 27.3079 24.3633 27.6418C21.6338 29.6242 18.2404 30.4989 14.8894 30.124C10.9725 29.7162 7.44007 27.597 5.24792 24.3398C4.90374 23.819 4.60085 23.2722 4.34195 22.7046C4.17395 22.334 4.04438 21.9541 3.90105 21.5762C3.85853 21.4642 3.39503 21.3749 3.25605 21.3193C2.83167 21.1522 2.43742 20.9174 2.08876 20.6241C-0.0399026 18.8195 0.613657 15.5775 3.10669 14.5275C3.31555 14.4395 3.72605 14.3636 3.88076 14.2369C3.91421 14.2095 4.06813 13.753 4.09993 13.6698C4.17908 13.4635 4.26379 13.2594 4.35395 13.0577C4.83762 11.9954 5.47263 11.008 6.23938 10.1261C8.03548 8.07367 10.4254 6.62481 13.0814 5.97823C13.6516 5.83812 14.3041 5.71297 14.8876 5.67016C14.8883 5.39484 14.9063 4.94001 15.0113 4.68847C15.2229 4.18175 15.5751 3.60709 15.8592 3.12495C16.1195 2.68315 16.4415 2.06369 16.7142 1.6534C16.8043 1.5178 16.9065 1.39067 17.0198 1.27359C17.4853 0.78743 18.0791 0.592761 18.7395 0.579265ZM17.5565 29.0297C20.751 28.7455 23.7061 27.2256 25.7878 24.7966C26.5331 23.9154 27.1355 22.9237 27.5733 21.8572C27.7291 21.4708 27.8238 21.0556 27.9977 20.6852C28.1023 20.4629 28.5457 20.424 28.7603 20.3732C30.8384 19.8828 31.6258 17.398 29.9087 15.9764C29.5984 15.7213 29.2365 15.5355 28.8478 15.4316C28.6005 15.3669 28.2943 15.3763 28.0856 15.2105C27.8419 15.0168 27.6982 13.9805 27.4607 13.6863C27.3836 13.5908 26.8465 13.5567 26.6863 13.5021C26.4646 13.4264 26.2329 13.311 26.0462 13.1695C25.6104 12.8392 25.0358 12.1394 24.6473 11.7159L23.6061 10.5801C23.4789 10.4406 23.2933 10.2526 23.1766 10.1142C23.0028 10.0885 22.671 10.0168 22.527 9.92043C22.0168 9.57913 20.8609 9.10931 20.513 8.64117C20.4895 8.60972 20.467 8.57771 20.4451 8.5451C19.5768 8.33893 18.6955 8.17517 17.8252 7.97746C16.9885 7.78738 16.0646 7.72113 15.4886 7.00087C15.4006 6.89075 15.3258 6.74545 15.1884 6.76037C11.8343 7.12775 8.90633 8.59772 6.78251 11.2414C6.11254 12.0842 5.57178 13.0213 5.17785 14.022C5.03005 14.3913 4.93295 14.7871 4.76641 15.1413C4.67978 15.3255 4.16577 15.3809 3.97996 15.4268C1.89145 15.9426 1.17231 18.4799 2.92759 19.8544C3.18316 20.0518 3.4698 20.2058 3.77587 20.3098C4.06579 20.4076 4.57886 20.4233 4.74554 20.633C4.90099 20.8288 5.01742 21.3462 5.11665 21.6131C5.36222 22.2602 5.66922 22.8826 6.03349 23.4716C7.97296 26.6034 11.3322 28.5868 14.9808 29.0039C15.8358 29.1059 16.6995 29.1147 17.5565 29.0297ZM20.458 7.40182C20.6259 7.11355 21.9863 4.80931 21.9817 4.70114C21.8775 4.54934 21.68 4.34609 21.5508 4.20514L20.8371 3.4266L20.019 2.53208C19.5017 1.96579 19.3422 1.68222 18.5262 1.71531C18.1249 1.8074 17.8455 1.95954 17.6341 2.32107C17.2977 2.8965 16.9559 3.48127 16.628 4.06049C16.5072 4.27386 16.1555 4.84724 16.0869 5.05144C16.0161 5.26014 16.004 5.48413 16.0518 5.69922C16.2688 6.64361 17.0547 6.64518 17.8337 6.83014C18.4394 6.97397 19.1003 7.07426 19.6976 7.23051C19.9512 7.28493 20.2087 7.33248 20.458 7.40182ZM24.1321 9.51077L24.1491 9.52485C24.3243 9.67189 24.6867 10.0853 24.8572 10.2724L26.0381 11.5644C26.4655 12.0354 26.8238 12.5518 27.5333 12.4858C27.8302 12.4582 28.0647 12.3678 28.2844 12.1637C28.504 11.9552 28.6338 11.6811 28.7837 11.4201L29.3161 10.4923C29.5531 10.0795 29.8151 9.65894 30.0259 9.23678C30.328 8.63192 29.9595 7.8161 29.3245 7.60568C29.0103 7.50224 28.6671 7.4426 28.3421 7.37378L26.5278 6.98587C26.3084 6.93864 25.8862 6.86206 25.6919 6.80582C25.3433 7.36394 25.0091 7.9959 24.6713 8.56656C24.5483 8.77394 24.2153 9.32291 24.1321 9.51077ZM21.4325 7.98648C21.6193 8.0891 23.0724 8.95391 23.1315 8.95435C23.3019 8.6648 24.6977 6.28446 24.6974 6.20568C24.5565 6.09136 23.1601 5.28623 23.0157 5.24797C22.5429 6.02389 22.1086 6.83079 21.6456 7.61329C21.5733 7.73548 21.5006 7.86206 21.4325 7.98648Z" fill="#535BD8"/>
<path d="M12.5998 21.309C12.8846 21.2915 13.5483 21.7892 13.8807 21.93C15.33 22.544 17.1767 22.4796 18.617 21.8791C19.2924 21.5975 19.5026 21.0305 20.2179 21.6077C20.3182 22.1808 20.2468 22.2535 19.829 22.6197C19.3403 22.833 18.6897 23.1844 18.1824 23.3339C17.1719 23.6318 15.482 23.6558 14.4635 23.4182C13.7256 23.2028 12.5979 22.8329 12.1376 22.1879C11.8457 21.7789 12.2783 21.4797 12.5998 21.309Z" fill="#535BD8"/>
<path d="M20.5086 14.2835C21.4751 14.0954 22.4134 14.7177 22.6115 15.6782C22.8096 16.6388 22.1935 17.5789 21.2307 17.7852C20.255 17.9942 19.2954 17.3707 19.0947 16.3973C18.8939 15.4238 19.5291 14.4742 20.5086 14.2835Z" fill="#535BD8"/>
<path d="M11.2197 14.2868C12.1969 14.1102 13.1314 14.7599 13.3016 15.7341C13.4718 16.7084 12.8124 17.6341 11.8328 17.7964C10.8633 17.9571 9.94516 17.3088 9.77675 16.3446C9.60833 15.3804 10.2527 14.4615 11.2197 14.2868Z" fill="#535BD8"/>
</g>
<defs>
<clipPath id="clip0_616_27040">
<rect width="33" height="31.5" fill="white"/>
</clipPath>
</defs>
</svg>
