<svg width="390" height="64" viewBox="0 0 390 64" fill="none" xmlns="http://www.w3.org/2000/svg">
<rect width="390" height="64" fill="white"/>
<rect x="20" y="8" width="48" height="48" rx="24" fill="#F3F2FF"/>
<g clip-path="url(#clip0_616_27035)">
<path d="M46.2395 16.8293C46.2957 16.8287 46.3521 16.8307 46.4081 16.8351C47.6057 16.9235 48.1817 17.8654 48.9352 18.6614C49.4251 19.1792 49.9262 19.7194 50.3912 20.2584C50.4719 20.0209 50.5152 19.7688 50.6005 19.5198C50.9089 18.6118 51.4687 17.8089 52.2155 17.2038C52.4102 17.0442 52.706 16.7949 52.9642 16.833C53.1353 16.8583 53.2742 16.9284 53.3753 17.0702C53.5063 17.2539 53.5122 17.4982 53.3905 17.688C53.301 17.826 52.9501 18.0587 52.7958 18.197C52.0279 18.885 51.6181 19.7262 51.4694 20.7338C51.661 20.8218 51.8821 20.9617 52.0823 21.0629C52.0934 21.0549 52.1047 21.0471 52.116 21.0394C53.4336 20.1419 55.4076 19.7256 56.9681 20.0447C57.3301 20.1335 58.512 20.35 58.6757 20.7091C58.9475 21.3051 58.4352 21.7017 57.8163 21.4485C56.3052 20.8304 54.5185 20.9784 53.0997 21.7688C53.1471 21.8235 53.1962 21.8704 53.2475 21.9212C53.4401 21.971 53.7513 22.0241 53.9605 22.0693L56.0464 22.52C56.3455 22.5853 56.644 22.6436 56.9423 22.7136C58.2278 23.0154 59.0313 24.3467 58.6778 25.6228C58.6344 25.782 58.5746 25.9365 58.4996 26.0837C58.2621 26.5591 57.9382 27.0749 57.6662 27.5381C57.1841 28.3588 56.9101 29.1175 56.0486 29.6056C56.1545 29.7805 56.341 30.34 56.4078 30.5521C57.7415 30.7619 58.9568 31.8624 59.3328 33.1455C59.6029 34.0585 59.491 35.0415 59.0229 35.8714C58.6138 36.606 57.9327 37.1893 57.1579 37.5157C56.9042 37.6226 56.6672 37.6874 56.4029 37.7637C56.2621 38.1236 56.1685 38.4316 56.0044 38.807C55.3066 40.402 54.4367 41.5638 53.2101 42.7736C52.8048 43.1721 52.323 43.5579 51.8633 43.8918C49.1338 45.8742 45.7404 46.7489 42.3894 46.374C38.4725 45.9662 34.9401 43.847 32.7479 40.5898C32.4037 40.069 32.1009 39.5222 31.842 38.9546C31.6739 38.584 31.5444 38.2041 31.4011 37.8262C31.3585 37.7142 30.895 37.6249 30.7561 37.5693C30.3317 37.4022 29.9374 37.1674 29.5888 36.8741C27.4601 35.0695 28.1137 31.8275 30.6067 30.7775C30.8156 30.6895 31.2261 30.6136 31.3808 30.4869C31.4142 30.4595 31.5681 30.003 31.5999 29.9198C31.6791 29.7135 31.7638 29.5094 31.8539 29.3077C32.3376 28.2454 32.9726 27.258 33.7394 26.3761C35.5355 24.3237 37.9254 22.8748 40.5814 22.2282C41.1516 22.0881 41.8041 21.963 42.3876 21.9202C42.3883 21.6448 42.4063 21.19 42.5113 20.9385C42.7229 20.4317 43.0751 19.8571 43.3592 19.3749C43.6195 18.9331 43.9415 18.3137 44.2142 17.9034C44.3043 17.7678 44.4065 17.6407 44.5198 17.5236C44.9853 17.0374 45.5791 16.8428 46.2395 16.8293ZM45.0565 45.2797C48.251 44.9955 51.2061 43.4756 53.2878 41.0466C54.0331 40.1654 54.6355 39.1737 55.0733 38.1072C55.2291 37.7208 55.3238 37.3056 55.4977 36.9352C55.6023 36.7129 56.0457 36.674 56.2603 36.6232C58.3384 36.1328 59.1258 33.648 57.4087 32.2264C57.0984 31.9713 56.7365 31.7855 56.3478 31.6816C56.1005 31.6169 55.7943 31.6263 55.5856 31.4605C55.3419 31.2668 55.1982 30.2305 54.9607 29.9363C54.8836 29.8408 54.3465 29.8067 54.1863 29.7521C53.9646 29.6764 53.7329 29.561 53.5462 29.4195C53.1104 29.0892 52.5358 28.3894 52.1473 27.9659L51.1061 26.8301C50.9789 26.6906 50.7933 26.5026 50.6766 26.3642C50.5028 26.3385 50.171 26.2668 50.027 26.1704C49.5168 25.8291 48.3609 25.3593 48.013 24.8912C47.9895 24.8597 47.967 24.8277 47.9451 24.7951C47.0768 24.5889 46.1955 24.4252 45.3252 24.2275C44.4885 24.0374 43.5646 23.9711 42.9886 23.2509C42.9006 23.1407 42.8258 22.9955 42.6884 23.0104C39.3343 23.3777 36.4063 24.8477 34.2825 27.4914C33.6125 28.3342 33.0718 29.2713 32.6779 30.272C32.5301 30.6413 32.4329 31.0371 32.2664 31.3913C32.1798 31.5755 31.6658 31.6309 31.48 31.6768C29.3915 32.1926 28.6723 34.7299 30.4276 36.1044C30.6832 36.3018 30.9698 36.4558 31.2759 36.5598C31.5658 36.6576 32.0789 36.6733 32.2455 36.883C32.401 37.0788 32.5174 37.5962 32.6166 37.8631C32.8622 38.5102 33.1692 39.1326 33.5335 39.7216C35.473 42.8534 38.8322 44.8368 42.4808 45.2539C43.3358 45.3559 44.1995 45.3647 45.0565 45.2797ZM47.958 23.6518C48.1259 23.3635 49.4863 21.0593 49.4817 20.9511C49.3775 20.7993 49.18 20.5961 49.0508 20.4551L48.3371 19.6766L47.519 18.7821C47.0017 18.2158 46.8422 17.9322 46.0262 17.9653C45.6249 18.0574 45.3455 18.2095 45.1341 18.5711C44.7977 19.1465 44.4559 19.7313 44.128 20.3105C44.0072 20.5239 43.6555 21.0972 43.5869 21.3014C43.5161 21.5101 43.504 21.7341 43.5518 21.9492C43.7688 22.8936 44.5547 22.8952 45.3337 23.0801C45.9394 23.224 46.6003 23.3243 47.1976 23.4805C47.4512 23.5349 47.7087 23.5825 47.958 23.6518ZM51.6321 25.7608L51.6491 25.7748C51.8243 25.9219 52.1867 26.3353 52.3572 26.5224L53.5381 27.8144C53.9655 28.2854 54.3238 28.8018 55.0333 28.7358C55.3302 28.7082 55.5647 28.6178 55.7844 28.4137C56.004 28.2052 56.1338 27.9311 56.2837 27.6701L56.8161 26.7423C57.0531 26.3295 57.3151 25.9089 57.5259 25.4868C57.828 24.8819 57.4595 24.0661 56.8245 23.8557C56.5103 23.7522 56.1671 23.6926 55.8421 23.6238L54.0278 23.2359C53.8084 23.1886 53.3862 23.1121 53.1919 23.0558C52.8433 23.6139 52.5091 24.2459 52.1713 24.8166C52.0483 25.0239 51.7153 25.5729 51.6321 25.7608ZM48.9325 24.2365C49.1193 24.3391 50.5724 25.2039 50.6315 25.2044C50.8019 24.9148 52.1977 22.5345 52.1974 22.4557C52.0565 22.3414 50.6601 21.5362 50.5157 21.498C50.0429 22.2739 49.6086 23.0808 49.1456 23.8633C49.0733 23.9855 49.0006 24.1121 48.9325 24.2365Z" fill="#535BD8"/>
<path d="M40.0998 37.559C40.3846 37.5415 41.0483 38.0392 41.3807 38.18C42.83 38.794 44.6767 38.7296 46.117 38.1291C46.7924 37.8475 47.0026 37.2805 47.7179 37.8577C47.8182 38.4308 47.7468 38.5035 47.329 38.8697C46.8403 39.083 46.1897 39.4344 45.6824 39.5839C44.6719 39.8818 42.982 39.9058 41.9635 39.6682C41.2256 39.4528 40.0979 39.0829 39.6376 38.4379C39.3457 38.0289 39.7783 37.7297 40.0998 37.559Z" fill="#535BD8"/>
<path d="M48.0086 30.5335C48.9751 30.3454 49.9134 30.9677 50.1115 31.9282C50.3096 32.8888 49.6935 33.8289 48.7307 34.0352C47.755 34.2442 46.7954 33.6207 46.5947 32.6473C46.3939 31.6738 47.0291 30.7242 48.0086 30.5335Z" fill="#535BD8"/>
<path d="M38.7197 30.5368C39.6969 30.3602 40.6314 31.0099 40.8016 31.9841C40.9718 32.9584 40.3124 33.8841 39.3328 34.0464C38.3633 34.2071 37.4452 33.5588 37.2767 32.5946C37.1083 31.6304 37.7527 30.7115 38.7197 30.5368Z" fill="#535BD8"/>
</g>
<path d="M90.7443 18.3636V30H88.6193L83.5568 22.6761H83.4716V30H81.0114V18.3636H83.1705L88.1932 25.6818H88.2955V18.3636H90.7443ZM92.7315 30V21.2727H95.152V30H92.7315ZM93.9474 20.1477C93.5876 20.1477 93.2789 20.0284 93.0213 19.7898C92.7675 19.5473 92.6406 19.2576 92.6406 18.9205C92.6406 18.5871 92.7675 18.3011 93.0213 18.0625C93.2789 17.8201 93.5876 17.6989 93.9474 17.6989C94.3073 17.6989 94.6141 17.8201 94.8679 18.0625C95.1255 18.3011 95.2543 18.5871 95.2543 18.9205C95.2543 19.2576 95.1255 19.5473 94.8679 19.7898C94.6141 20.0284 94.3073 20.1477 93.9474 20.1477ZM101.733 21.2727V23.0909H96.4773V21.2727H101.733ZM97.6705 19.1818H100.091V27.3182C100.091 27.5417 100.125 27.7159 100.193 27.8409C100.261 27.9621 100.356 28.0473 100.477 28.0966C100.602 28.1458 100.746 28.1705 100.909 28.1705C101.023 28.1705 101.136 28.161 101.25 28.142C101.364 28.1193 101.451 28.1023 101.511 28.0909L101.892 29.892C101.771 29.9299 101.6 29.9735 101.381 30.0227C101.161 30.0758 100.894 30.108 100.58 30.1193C99.9962 30.142 99.4848 30.0644 99.0455 29.8864C98.6098 29.7083 98.2708 29.4318 98.0284 29.0568C97.786 28.6818 97.6667 28.2083 97.6705 27.6364V19.1818ZM104.804 33.2727C104.497 33.2727 104.209 33.2481 103.94 33.1989C103.675 33.1534 103.455 33.0947 103.281 33.0227L103.827 31.2159C104.111 31.303 104.366 31.3504 104.594 31.358C104.825 31.3655 105.024 31.3125 105.19 31.1989C105.361 31.0852 105.499 30.892 105.605 30.6193L105.747 30.25L102.616 21.2727H105.162L106.969 27.6818H107.06L108.884 21.2727H111.446L108.054 30.9432C107.891 31.4129 107.67 31.822 107.389 32.1705C107.113 32.5227 106.762 32.7936 106.338 32.983C105.914 33.1761 105.402 33.2727 104.804 33.2727ZM114.939 30.1648C114.382 30.1648 113.886 30.0682 113.45 29.875C113.015 29.678 112.67 29.3883 112.416 29.0057C112.166 28.6193 112.041 28.1383 112.041 27.5625C112.041 27.0777 112.13 26.6705 112.308 26.3409C112.486 26.0114 112.729 25.7462 113.036 25.5455C113.342 25.3447 113.691 25.1932 114.081 25.0909C114.475 24.9886 114.888 24.9167 115.32 24.875C115.827 24.822 116.236 24.7727 116.547 24.7273C116.857 24.678 117.083 24.6061 117.223 24.5114C117.363 24.4167 117.433 24.2765 117.433 24.0909V24.0568C117.433 23.697 117.32 23.4186 117.092 23.2216C116.869 23.0246 116.551 22.9261 116.138 22.9261C115.702 22.9261 115.356 23.0227 115.098 23.2159C114.84 23.4053 114.67 23.6439 114.587 23.9318L112.348 23.75C112.462 23.2197 112.685 22.7614 113.018 22.375C113.352 21.9848 113.782 21.6856 114.308 21.4773C114.839 21.2652 115.452 21.1591 116.149 21.1591C116.634 21.1591 117.098 21.2159 117.541 21.3295C117.988 21.4432 118.384 21.6193 118.729 21.858C119.077 22.0966 119.352 22.4034 119.553 22.7784C119.753 23.1496 119.854 23.5947 119.854 24.1136V30H117.558V28.7898H117.49C117.35 29.0625 117.162 29.303 116.928 29.5114C116.693 29.7159 116.411 29.8769 116.081 29.9943C115.751 30.108 115.371 30.1648 114.939 30.1648ZM115.632 28.4943C115.988 28.4943 116.303 28.4242 116.575 28.2841C116.848 28.1402 117.062 27.947 117.217 27.7045C117.373 27.4621 117.45 27.1875 117.45 26.8807V25.9545C117.375 26.0038 117.27 26.0492 117.138 26.0909C117.009 26.1288 116.863 26.1648 116.7 26.1989C116.537 26.2292 116.375 26.2576 116.212 26.2841C116.049 26.3068 115.901 26.3277 115.768 26.3466C115.484 26.3883 115.236 26.4545 115.024 26.5455C114.812 26.6364 114.647 26.7595 114.53 26.9148C114.412 27.0663 114.354 27.2557 114.354 27.483C114.354 27.8125 114.473 28.0644 114.712 28.2386C114.954 28.4091 115.261 28.4943 115.632 28.4943Z" fill="#2D2A3A"/>
<mask id="mask0_616_27035" style="mask-type:alpha" maskUnits="userSpaceOnUse" x="125" y="12" width="24" height="25">
<rect x="149" y="12.5" width="24" height="24" transform="rotate(90 149 12.5)" fill="#D9D9D9"/>
</mask>
<g mask="url(#mask0_616_27035)">
<path d="M130 22H143L136.5 28L130 22Z" fill="#2D2A3A"/>
</g>
<path d="M83.8864 48.6193C83.4972 48.6136 83.1136 48.5426 82.7358 48.4062C82.3608 48.2699 82.0199 48.0426 81.7131 47.7244C81.4063 47.4062 81.1605 46.9787 80.9759 46.4418C80.794 45.9048 80.7031 45.2344 80.7031 44.4304C80.7031 43.669 80.7784 42.9929 80.929 42.402C81.0824 41.8111 81.3026 41.3125 81.5895 40.9062C81.8764 40.4972 82.223 40.1861 82.6293 39.973C83.0355 39.7599 83.4915 39.6534 83.9972 39.6534C84.517 39.6534 84.9787 39.7557 85.3821 39.9602C85.7855 40.1648 86.1122 40.4474 86.3622 40.8082C86.6151 41.169 86.7756 41.5795 86.8438 42.0398H85.544C85.456 41.6761 85.2813 41.3793 85.0199 41.1491C84.7585 40.919 84.4176 40.804 83.9972 40.804C83.358 40.804 82.8594 41.0824 82.5014 41.6392C82.1463 42.196 81.9673 42.9702 81.9645 43.9616H82.0284C82.179 43.7145 82.3636 43.5043 82.5824 43.331C82.804 43.1548 83.0511 43.0199 83.3239 42.9261C83.5994 42.8295 83.8892 42.7812 84.1932 42.7812C84.6989 42.7812 85.1563 42.9048 85.5653 43.152C85.9773 43.3963 86.3054 43.7344 86.5497 44.1662C86.794 44.598 86.9162 45.0923 86.9162 45.6491C86.9162 46.206 86.7898 46.7102 86.5369 47.1619C86.2869 47.6136 85.9347 47.9716 85.4801 48.2358C85.0256 48.4972 84.4943 48.625 83.8864 48.6193ZM83.8821 47.5114C84.2173 47.5114 84.517 47.429 84.7812 47.2642C85.0455 47.0994 85.2543 46.8778 85.4077 46.5994C85.5611 46.321 85.6378 46.0099 85.6378 45.6662C85.6378 45.331 85.5625 45.0256 85.4119 44.75C85.2642 44.4744 85.0597 44.2557 84.7983 44.0938C84.5398 43.9318 84.2443 43.8509 83.9119 43.8509C83.6591 43.8509 83.4247 43.8991 83.2088 43.9957C82.9957 44.0923 82.8082 44.2259 82.6463 44.3963C82.4844 44.5668 82.3565 44.7628 82.2628 44.9844C82.1719 45.2031 82.1264 45.4347 82.1264 45.679C82.1264 46.0057 82.2017 46.3082 82.3523 46.5866C82.5057 46.8651 82.7145 47.0895 82.9787 47.2599C83.2457 47.4276 83.5469 47.5114 83.8821 47.5114ZM92.4666 50.9545C92.2763 50.9545 92.103 50.9389 91.9467 50.9077C91.7905 50.8793 91.674 50.848 91.5973 50.8139L91.9041 49.7699C92.1371 49.8324 92.3445 49.8594 92.5263 49.8509C92.7081 49.8423 92.8686 49.7741 93.0078 49.6463C93.1499 49.5185 93.2749 49.3097 93.3828 49.0199L93.5405 48.5852L91.1456 41.9545H92.5092L94.1669 47.0341H94.2351L95.8928 41.9545H97.2607L94.5632 49.3736C94.4382 49.7145 94.2791 50.0028 94.0859 50.2386C93.8928 50.4773 93.6626 50.6563 93.3956 50.7756C93.1286 50.8949 92.8189 50.9545 92.4666 50.9545ZM98.4581 48.5V41.9545H99.6896V42.9943H99.7578C99.8771 42.642 100.087 42.3651 100.388 42.1634C100.692 41.9588 101.036 41.8565 101.42 41.8565C101.499 41.8565 101.593 41.8594 101.701 41.8651C101.812 41.8707 101.898 41.8778 101.961 41.8864V43.1051C101.91 43.0909 101.819 43.0753 101.688 43.0582C101.558 43.0384 101.427 43.0284 101.296 43.0284C100.995 43.0284 100.727 43.0923 100.491 43.2202C100.258 43.3452 100.073 43.5199 99.9368 43.7443C99.8004 43.9659 99.7322 44.2187 99.7322 44.5028V48.5H98.4581ZM107.968 43.5526L106.814 43.7571C106.765 43.6094 106.689 43.4687 106.583 43.3352C106.481 43.2017 106.342 43.0923 106.166 43.0071C105.99 42.9219 105.77 42.8793 105.505 42.8793C105.145 42.8793 104.843 42.9602 104.602 43.1222C104.36 43.2812 104.24 43.4872 104.24 43.7401C104.24 43.9588 104.321 44.1349 104.483 44.2685C104.645 44.402 104.906 44.5114 105.267 44.5966L106.306 44.8352C106.909 44.9744 107.358 45.1889 107.653 45.4787C107.949 45.7685 108.096 46.1449 108.096 46.608C108.096 47 107.983 47.3494 107.755 47.6562C107.531 47.9602 107.217 48.1989 106.814 48.3722C106.413 48.5455 105.949 48.6321 105.42 48.6321C104.687 48.6321 104.089 48.4759 103.626 48.1634C103.163 47.848 102.879 47.4006 102.774 46.821L104.005 46.6335C104.082 46.9545 104.24 47.1974 104.478 47.3622C104.717 47.5241 105.028 47.6051 105.412 47.6051C105.829 47.6051 106.163 47.5185 106.413 47.3452C106.663 47.169 106.788 46.9545 106.788 46.7017C106.788 46.4972 106.711 46.3253 106.558 46.1861C106.407 46.0469 106.176 45.9418 105.863 45.8707L104.755 45.6278C104.145 45.4886 103.693 45.267 103.4 44.9631C103.11 44.6591 102.966 44.2741 102.966 43.8082C102.966 43.4219 103.074 43.0838 103.289 42.794C103.505 42.5043 103.804 42.2784 104.184 42.1165C104.565 41.9517 105.001 41.8693 105.493 41.8693C106.2 41.8693 106.757 42.0227 107.163 42.3295C107.569 42.6335 107.838 43.0412 107.968 43.5526ZM115.694 48.6193C115.109 48.6193 114.586 48.5185 114.126 48.3168C113.669 48.1151 113.306 47.8352 113.039 47.4773C112.775 47.1165 112.633 46.6989 112.613 46.2244H113.951C113.968 46.483 114.055 46.7074 114.211 46.8977C114.37 47.0852 114.578 47.2301 114.833 47.3324C115.089 47.4347 115.373 47.4858 115.686 47.4858C116.029 47.4858 116.333 47.4261 116.598 47.3068C116.865 47.1875 117.074 47.0213 117.224 46.8082C117.375 46.5923 117.45 46.3438 117.45 46.0625C117.45 45.7699 117.375 45.5128 117.224 45.2912C117.076 45.0668 116.859 44.8906 116.572 44.7628C116.288 44.6349 115.944 44.571 115.541 44.571H114.804V43.4972H115.541C115.865 43.4972 116.149 43.4389 116.393 43.3224C116.64 43.206 116.833 43.044 116.973 42.8366C117.112 42.6264 117.181 42.3807 117.181 42.0994C117.181 41.8295 117.12 41.5952 116.998 41.3963C116.879 41.1946 116.708 41.0369 116.487 40.9233C116.268 40.8097 116.01 40.7528 115.711 40.7528C115.427 40.7528 115.162 40.8054 114.914 40.9105C114.67 41.0128 114.471 41.1605 114.318 41.3537C114.164 41.544 114.082 41.7727 114.071 42.0398H112.797C112.811 41.5682 112.95 41.1534 113.214 40.7955C113.481 40.4375 113.833 40.1577 114.271 39.956C114.708 39.7543 115.194 39.6534 115.728 39.6534C116.288 39.6534 116.771 39.7628 117.177 39.9815C117.586 40.1974 117.902 40.4858 118.123 40.8466C118.348 41.2074 118.458 41.6023 118.456 42.0312C118.458 42.5199 118.322 42.9347 118.047 43.2756C117.774 43.6165 117.41 43.8452 116.956 43.9616V44.0298C117.535 44.1179 117.984 44.348 118.302 44.7202C118.623 45.0923 118.782 45.554 118.779 46.1051C118.782 46.5852 118.649 47.0156 118.379 47.3963C118.112 47.777 117.747 48.0767 117.284 48.2955C116.821 48.5114 116.291 48.6193 115.694 48.6193ZM123.583 48.5V41.9545H124.806V43.0199H124.887C125.023 42.6591 125.246 42.3778 125.556 42.1761C125.866 41.9716 126.237 41.8693 126.668 41.8693C127.106 41.8693 127.472 41.9716 127.768 42.1761C128.066 42.3807 128.286 42.6619 128.428 43.0199H128.496C128.653 42.6705 128.901 42.392 129.242 42.1847C129.583 41.9744 129.989 41.8693 130.461 41.8693C131.055 41.8693 131.539 42.0554 131.914 42.4276C132.292 42.7997 132.481 43.3608 132.481 44.1108V48.5H131.207V44.2301C131.207 43.7869 131.086 43.4659 130.844 43.267C130.603 43.0682 130.315 42.9688 129.979 42.9688C129.565 42.9688 129.242 43.0966 129.012 43.3523C128.782 43.6051 128.667 43.9304 128.667 44.3281V48.5H127.397V44.1491C127.397 43.794 127.286 43.5085 127.065 43.2926C126.843 43.0767 126.555 42.9688 126.2 42.9688C125.958 42.9688 125.735 43.0327 125.531 43.1605C125.329 43.2855 125.165 43.4602 125.04 43.6847C124.918 43.9091 124.857 44.169 124.857 44.4645V48.5H123.583ZM136.946 48.6321C136.332 48.6321 135.797 48.4915 135.339 48.2102C134.882 47.929 134.527 47.5355 134.274 47.0298C134.021 46.5241 133.895 45.9332 133.895 45.2571C133.895 44.5781 134.021 43.9844 134.274 43.4759C134.527 42.9673 134.882 42.5724 135.339 42.2912C135.797 42.0099 136.332 41.8693 136.946 41.8693C137.559 41.8693 138.095 42.0099 138.552 42.2912C139.01 42.5724 139.365 42.9673 139.618 43.4759C139.87 43.9844 139.997 44.5781 139.997 45.2571C139.997 45.9332 139.87 46.5241 139.618 47.0298C139.365 47.5355 139.01 47.929 138.552 48.2102C138.095 48.4915 137.559 48.6321 136.946 48.6321ZM136.95 47.5625C137.348 47.5625 137.677 47.4574 137.939 47.2472C138.2 47.0369 138.393 46.7571 138.518 46.4077C138.646 46.0582 138.71 45.6733 138.71 45.2528C138.71 44.8352 138.646 44.4517 138.518 44.1023C138.393 43.75 138.2 43.4673 137.939 43.2543C137.677 43.0412 137.348 42.9347 136.95 42.9347C136.549 42.9347 136.217 43.0412 135.953 43.2543C135.691 43.4673 135.497 43.75 135.369 44.1023C135.244 44.4517 135.181 44.8352 135.181 45.2528C135.181 45.6733 135.244 46.0582 135.369 46.4077C135.497 46.7571 135.691 47.0369 135.953 47.2472C136.217 47.4574 136.549 47.5625 136.95 47.5625ZM146.324 43.5526L145.169 43.7571C145.121 43.6094 145.044 43.4687 144.939 43.3352C144.837 43.2017 144.697 43.0923 144.521 43.0071C144.345 42.9219 144.125 42.8793 143.861 42.8793C143.5 42.8793 143.199 42.9602 142.957 43.1222C142.716 43.2812 142.595 43.4872 142.595 43.7401C142.595 43.9588 142.676 44.1349 142.838 44.2685C143 44.402 143.261 44.5114 143.622 44.5966L144.662 44.8352C145.264 44.9744 145.713 45.1889 146.009 45.4787C146.304 45.7685 146.452 46.1449 146.452 46.608C146.452 47 146.338 47.3494 146.111 47.6562C145.886 47.9602 145.572 48.1989 145.169 48.3722C144.768 48.5455 144.304 48.6321 143.776 48.6321C143.043 48.6321 142.445 48.4759 141.982 48.1634C141.518 47.848 141.234 47.4006 141.129 46.821L142.361 46.6335C142.438 46.9545 142.595 47.1974 142.834 47.3622C143.072 47.5241 143.384 47.6051 143.767 47.6051C144.185 47.6051 144.518 47.5185 144.768 47.3452C145.018 47.169 145.143 46.9545 145.143 46.7017C145.143 46.4972 145.067 46.3253 144.913 46.1861C144.763 46.0469 144.531 45.9418 144.219 45.8707L143.111 45.6278C142.5 45.4886 142.048 45.267 141.756 44.9631C141.466 44.6591 141.321 44.2741 141.321 43.8082C141.321 43.4219 141.429 43.0838 141.645 42.794C141.861 42.5043 142.159 42.2784 142.54 42.1165C142.92 41.9517 143.357 41.8693 143.848 41.8693C144.555 41.8693 145.112 42.0227 145.518 42.3295C145.925 42.6335 146.193 43.0412 146.324 43.5526Z" fill="#6B7180"/>
<path d="M352.5 32H367M349 26H367M360.5 38H367" stroke="#2D2A3A" stroke-width="2" stroke-linecap="round" stroke-linejoin="round"/>
<defs>
<clipPath id="clip0_616_27035">
<rect width="33" height="31.5" fill="white" transform="translate(27.5 16.25)"/>
</clipPath>
</defs>
</svg>
