<svg width="28" height="28" viewBox="0 0 28 28" fill="none" xmlns="http://www.w3.org/2000/svg">
<mask id="mask0_616_23354" style="mask-type:alpha" maskUnits="userSpaceOnUse" x="0" y="0" width="28" height="28">
<rect width="28" height="28" fill="#D9D9D9"/>
</mask>
<g mask="url(#mask0_616_23354)">
<path d="M22.2394 20.4894C22.5797 20.1491 22.7498 19.7359 22.7498 19.2498C22.7498 18.7637 22.5797 18.3505 22.2394 18.0103C21.8991 17.67 21.4859 17.4998 20.9998 17.4998C20.5137 17.4998 20.1005 17.67 19.7603 18.0103C19.42 18.3505 19.2498 18.7637 19.2498 19.2498C19.2498 19.7359 19.42 20.1491 19.7603 20.4894C20.1005 20.8297 20.5137 20.9998 20.9998 20.9998C21.4859 20.9998 21.8991 20.8297 22.2394 20.4894ZM22.6332 24.0915C23.1387 23.8193 23.5568 23.4401 23.8873 22.954C23.4401 22.6818 22.9734 22.4825 22.4873 22.3561C22.0012 22.2297 21.5054 22.1665 20.9998 22.1665C20.4943 22.1665 19.9984 22.2297 19.5123 22.3561C19.0262 22.4825 18.5596 22.6818 18.1123 22.954C18.4429 23.4401 18.8609 23.8193 19.3665 24.0915C19.8721 24.3637 20.4165 24.4998 20.9998 24.4998C21.5832 24.4998 22.1276 24.3637 22.6332 24.0915ZM10.4998 9.33317H17.4998V6.99984C17.4998 6.02762 17.1596 5.20123 16.479 4.52067C15.7984 3.84011 14.9721 3.49984 13.9998 3.49984C13.0276 3.49984 12.2012 3.84011 11.5207 4.52067C10.8401 5.20123 10.4998 6.02762 10.4998 6.99984V9.33317ZM14.2915 25.6665H6.99984C6.35817 25.6665 5.80887 25.438 5.35192 24.9811C4.89498 24.5241 4.6665 23.9748 4.6665 23.3332V11.6665C4.6665 11.0248 4.89498 10.4755 5.35192 10.0186C5.80887 9.56164 6.35817 9.33317 6.99984 9.33317H8.1665V6.99984C8.1665 5.38595 8.73525 4.01025 9.87275 2.87275C11.0103 1.73525 12.3859 1.1665 13.9998 1.1665C15.6137 1.1665 16.9894 1.73525 18.1269 2.87275C19.2644 4.01025 19.8332 5.38595 19.8332 6.99984V9.33317H20.9998C21.6415 9.33317 22.1908 9.56164 22.6478 10.0186C23.1047 10.4755 23.3332 11.0248 23.3332 11.6665V13.1832C22.9832 13.0665 22.6186 12.979 22.2394 12.9207C21.8603 12.8623 21.4471 12.8332 20.9998 12.8332V11.6665H6.99984V23.3332H13.1832C13.3387 23.7998 13.4943 24.2033 13.6498 24.5436C13.8054 24.8839 14.0193 25.2582 14.2915 25.6665ZM16.8728 25.1269C15.7353 23.9894 15.1665 22.6137 15.1665 20.9998C15.1665 19.3859 15.7353 18.0103 16.8728 16.8728C18.0103 15.7353 19.3859 15.1665 20.9998 15.1665C22.6137 15.1665 23.9894 15.7353 25.1269 16.8728C26.2644 18.0103 26.8332 19.3859 26.8332 20.9998C26.8332 22.6137 26.2644 23.9894 25.1269 25.1269C23.9894 26.2644 22.6137 26.8332 20.9998 26.8332C19.3859 26.8332 18.0103 26.2644 16.8728 25.1269Z" fill="#535BD8"/>
</g>
</svg>
