<svg width="28" height="28" viewBox="0 0 28 28" fill="none" xmlns="http://www.w3.org/2000/svg">
<path d="M12.0049 4.50308L2.12324 20.9998C1.9195 21.3526 1.8117 21.7526 1.81056 22.16C1.80942 22.5674 1.91497 22.9681 2.11673 23.322C2.31849 23.676 2.60942 23.971 2.96056 24.1776C3.31171 24.3842 3.71083 24.4953 4.11824 24.4998H23.8816C24.289 24.4953 24.6881 24.3842 25.0392 24.1776C25.3904 23.971 25.6813 23.676 25.8831 23.322C26.0848 22.9681 26.1904 22.5674 26.1893 22.16C26.1881 21.7526 26.0803 21.3526 25.8766 20.9998L15.9949 4.50308C15.7869 4.16021 15.4941 3.87672 15.1446 3.67998C14.7952 3.48324 14.4009 3.37988 13.9999 3.37988C13.5989 3.37988 13.2046 3.48324 12.8552 3.67998C12.5057 3.87672 12.2129 4.16021 12.0049 4.50308Z" stroke="#535BD8" stroke-width="2.5" stroke-linecap="round" stroke-linejoin="round"/>
<path d="M14 10.5V15.1667" stroke="#535BD8" stroke-width="2.5" stroke-linecap="round" stroke-linejoin="round"/>
<path d="M14 19.833H14.0113" stroke="#535BD8" stroke-width="2.5" stroke-linecap="round" stroke-linejoin="round"/>
</svg>
