<svg width="48" height="48" viewBox="0 0 48 48" fill="none" xmlns="http://www.w3.org/2000/svg">
<rect width="48" height="48" rx="12" fill="#F3F2FF"/>
<mask id="mask0_616_30344" style="mask-type:alpha" maskUnits="userSpaceOnUse" x="12" y="12" width="24" height="24">
<rect x="12" y="12" width="24" height="24" fill="#D9D9D9"/>
</mask>
<g mask="url(#mask0_616_30344)">
<path d="M23 22C23.55 22 24.0208 21.8042 24.4125 21.4125C24.8042 21.0208 25 20.55 25 20C25 19.45 24.8042 18.9792 24.4125 18.5875C24.0208 18.1958 23.55 18 23 18C22.45 18 21.9792 18.1958 21.5875 18.5875C21.1958 18.9792 21 19.45 21 20C21 20.55 21.1958 21.0208 21.5875 21.4125C21.9792 21.8042 22.45 22 23 22ZM23 26C23.75 26 24.4542 25.8417 25.1125 25.525C25.7708 25.2083 26.3417 24.7583 26.825 24.175C26.2417 23.7917 25.6292 23.5 24.9875 23.3C24.3458 23.1 23.6833 23 23 23C22.3167 23 21.6542 23.1 21.0125 23.3C20.3708 23.5 19.7583 23.7917 19.175 24.175C19.6583 24.7583 20.2292 25.2083 20.8875 25.525C21.5458 25.8417 22.25 26 23 26ZM32.6 33L27.9 28.3C27.2167 28.8333 26.4625 29.25 25.6375 29.55C24.8125 29.85 23.9333 30 23 30C20.7667 30 18.875 29.225 17.325 27.675C15.775 26.125 15 24.2333 15 22C15 19.7667 15.775 17.875 17.325 16.325C18.875 14.775 20.7667 14 23 14C25.2333 14 27.125 14.775 28.675 16.325C30.225 17.875 31 19.7667 31 22C31 22.9333 30.85 23.8125 30.55 24.6375C30.25 25.4625 29.8333 26.2167 29.3 26.9L34 31.6L32.6 33Z" fill="#B87FE5"/>
</g>
</svg>
