<svg width="48" height="48" viewBox="0 0 48 48" fill="none" xmlns="http://www.w3.org/2000/svg">
<rect width="48" height="48" rx="12" fill="#F3F2FF"/>
<mask id="mask0_616_30353" style="mask-type:alpha" maskUnits="userSpaceOnUse" x="12" y="12" width="24" height="24">
<rect x="12" y="12" width="24" height="24" fill="#D9D9D9"/>
</mask>
<g mask="url(#mask0_616_30353)">
<path d="M23.7 30C22.1 29.9167 20.75 29.3 19.65 28.15C18.55 27 18 25.6167 18 24C18 22.3333 18.5833 20.9167 19.75 19.75C20.9167 18.5833 22.3333 18 24 18C25.6167 18 27 18.55 28.15 19.65C29.3 20.75 29.9167 22.1 30 23.7L27.9 23.075C27.6833 22.175 27.2167 21.4375 26.5 20.8625C25.7833 20.2875 24.95 20 24 20C22.9 20 21.9583 20.3917 21.175 21.175C20.3917 21.9583 20 22.9 20 24C20 24.95 20.2875 25.7833 20.8625 26.5C21.4375 27.2167 22.175 27.6833 23.075 27.9L23.7 30ZM24.9 33.95C24.75 33.9833 24.6 34 24.45 34H24C22.6167 34 21.3167 33.7375 20.1 33.2125C18.8833 32.6875 17.825 31.975 16.925 31.075C16.025 30.175 15.3125 29.1167 14.7875 27.9C14.2625 26.6833 14 25.3833 14 24C14 22.6167 14.2625 21.3167 14.7875 20.1C15.3125 18.8833 16.025 17.825 16.925 16.925C17.825 16.025 18.8833 15.3125 20.1 14.7875C21.3167 14.2625 22.6167 14 24 14C25.3833 14 26.6833 14.2625 27.9 14.7875C29.1167 15.3125 30.175 16.025 31.075 16.925C31.975 17.825 32.6875 18.8833 33.2125 20.1C33.7375 21.3167 34 22.6167 34 24V24.45C34 24.6 33.9833 24.75 33.95 24.9L32 24.3V24C32 21.7667 31.225 19.875 29.675 18.325C28.125 16.775 26.2333 16 24 16C21.7667 16 19.875 16.775 18.325 18.325C16.775 19.875 16 21.7667 16 24C16 26.2333 16.775 28.125 18.325 29.675C19.875 31.225 21.7667 32 24 32H24.3L24.9 33.95ZM32.525 34.5L28.25 30.225L27 34L24 24L34 27L30.225 28.25L34.5 32.525L32.525 34.5Z" fill="#B87FE5"/>
</g>
</svg>
