<svg width="36" height="36" viewBox="0 0 36 36" fill="none" xmlns="http://www.w3.org/2000/svg">
<rect width="36" height="36" rx="8" fill="#F3F2FF"/>
<path d="M27.9422 14.2563L26.0905 13.6675V8.26516C26.0905 8.10772 25.9744 8 25.8251 8C25.709 8 21.9681 9.28435 21.6695 9.39207C20.655 9.72987 17.7271 10.7412 17.7271 10.7412C17.6801 10.7546 17.6073 10.7769 17.5117 10.8069L10.3653 8.28723C10.3113 8.2682 10.2547 8.3082 10.2547 8.36537V8.45612V13.2079C9.14622 13.5786 8.35576 13.844 8.31519 13.8583C8.24054 13.8832 8.12442 13.8997 8.05806 13.9909C8.02488 14.024 8.01659 14.082 8 14.1235V28.0524C8 28.069 8.00829 28.0773 8.00829 28.0856C8.05806 28.1933 8.1493 28.2596 8.24884 28.2596C8.37326 28.2596 17.713 25.1274 17.9203 25.0446C17.9301 25.0413 17.9412 25.0336 17.952 25.0247L27.8919 28.1896C27.9454 28.2066 28 28.1668 28 28.1107V14.3353C28 14.2992 27.9766 14.2672 27.9422 14.2563ZM17.5471 24.6468L8.50597 27.6547V14.3306L17.5471 11.3227V24.6468ZM25.5845 8.5966V13.5067L18.1132 11.1311L25.5845 8.5966ZM24.6651 23.5518L24.1872 21.8082L21.4386 20.9759L20.8475 22.3963L19.517 21.9931L22.3412 15.0696L23.636 15.4615L25.9951 23.9549L24.6651 23.5518Z" fill="#2D2A3A"/>
<path d="M21.9473 19.7003L23.7609 20.2495L22.9337 17.3184L21.9473 19.7003Z" fill="#2D2A3A"/>
<mask id="path-4-outside-1_616_30290" maskUnits="userSpaceOnUse" x="8.41006" y="13.2274" width="8.14209" height="12.0943" fill="black">
<rect fill="white" x="8.41006" y="13.2274" width="8.14209" height="12.0943"/>
<path d="M9.87879 23.0122C9.87818 22.9606 9.89361 22.9249 9.9251 22.9052C9.95651 22.8791 9.99034 22.8658 10.0266 22.8653C10.0855 22.8646 10.1373 22.8382 10.182 22.7861C10.2266 22.7275 10.2642 22.6497 10.2948 22.5525C10.3253 22.4554 10.3467 22.3455 10.3588 22.2229C10.3754 22.0937 10.3829 21.9581 10.3812 21.8163L10.3368 18.0824L9.46684 18.0928L9.45948 17.4737L10.3226 17.4634C10.1849 17.3167 10.0762 17.1245 9.99629 16.8868C9.92088 16.6426 9.88161 16.3883 9.87846 16.1239C9.87563 15.8853 9.90017 15.6625 9.95209 15.4555C10.0085 15.2485 10.0857 15.0702 10.1836 14.9207C10.286 14.7647 10.4092 14.6439 10.5532 14.5583C10.6971 14.4663 10.8574 14.4192 11.0341 14.4171C11.2969 14.414 11.5718 14.4785 11.8589 14.6105C12.1505 14.7425 12.4199 14.9134 12.6671 15.1233C12.9142 15.3268 13.1276 15.5564 13.3074 15.8123C13.4871 16.0617 13.6033 16.3054 13.656 16.5434C13.657 16.6272 13.6509 16.6918 13.6379 16.7371C13.6248 16.776 13.6115 16.8019 13.598 16.815C13.5618 16.8154 13.5207 16.7869 13.4747 16.7294C13.4286 16.6654 13.3801 16.5854 13.3291 16.4892C13.0248 16.0543 12.6856 15.7262 12.3114 15.5049C11.9417 15.2835 11.5756 15.175 11.2131 15.1793C11.0908 15.1808 10.9777 15.2015 10.874 15.2414C10.7702 15.2749 10.6802 15.334 10.6042 15.4187C10.5282 15.5035 10.4683 15.6171 10.4247 15.7595C10.3855 15.8954 10.3672 16.0633 10.3695 16.2632C10.3708 16.3664 10.3812 16.4824 10.4009 16.6111C10.425 16.7398 10.456 16.8652 10.4937 16.9873C10.5359 17.1029 10.5847 17.2055 10.6401 17.2952C10.6955 17.3848 10.7551 17.4389 10.8188 17.4575L11.5732 17.4485L11.5805 18.0676L11.064 18.0738C11.0006 18.0745 10.9448 18.1494 10.8967 18.2983C10.8486 18.4407 10.8258 18.6184 10.8283 18.8312L10.8712 22.4393C10.8731 22.6005 10.859 22.7522 10.829 22.8945C10.8034 23.0302 10.7686 23.15 10.7245 23.2537C10.6805 23.3638 10.6272 23.4483 10.5644 23.5071C10.5063 23.5723 10.4478 23.6053 10.3889 23.606C10.3571 23.6063 10.3116 23.5843 10.2521 23.5399C10.1972 23.4954 10.1422 23.4412 10.0871 23.3774C10.032 23.32 9.98365 23.256 9.94203 23.1856C9.90048 23.1216 9.8794 23.0638 9.87879 23.0122Z"/>
<path d="M11.9592 22.02C11.9575 21.8717 11.9784 21.7263 12.022 21.5839C12.0657 21.4415 12.1275 21.3085 12.2076 21.185C12.2876 21.0551 12.3814 20.9379 12.4889 20.8334C12.5964 20.7289 12.7109 20.6405 12.8324 20.5681C12.7414 20.5305 12.6523 20.4735 12.5653 20.3972C12.4828 20.3207 12.4093 20.2345 12.3447 20.1386C12.2801 20.0361 12.229 19.9303 12.1914 19.8211C12.1538 19.7055 12.1343 19.5896 12.1329 19.4735C12.1316 19.3639 12.1508 19.2605 12.1904 19.1633C12.2345 19.066 12.2924 18.9815 12.3641 18.9097C12.4357 18.8314 12.5211 18.7724 12.6203 18.7325C12.7194 18.6862 12.8256 18.6623 12.9389 18.661C12.9888 18.6604 13.0591 18.6692 13.15 18.6875C13.2407 18.6993 13.3338 18.7143 13.4292 18.7325C13.529 18.7443 13.6221 18.7593 13.7084 18.7776C13.7946 18.7895 13.8582 18.7952 13.8989 18.7947C13.9624 18.7939 14.0074 18.7708 14.0341 18.7253C14.0652 18.6734 14.0848 18.6119 14.093 18.5408C14.1057 18.4633 14.1115 18.3794 14.1104 18.2891C14.1094 18.1988 14.1084 18.115 14.1074 18.0376L11.4093 18.0697L11.4019 17.4506L14.0797 17.4187C14.0782 17.2898 14.0949 17.1767 14.13 17.0795C14.1651 16.9759 14.2098 16.9238 14.2641 16.9231C14.3049 16.9227 14.3621 16.9704 14.4358 17.0662C14.5139 17.162 14.5788 17.2774 14.6302 17.4122L15.473 17.4022L15.4803 18.0213L14.6376 18.0313C14.6104 18.0316 14.5926 18.0641 14.5843 18.1287C14.5805 18.1868 14.5791 18.2609 14.5802 18.3512C14.5806 18.3835 14.5834 18.4318 14.5887 18.4962C14.5985 18.5542 14.6083 18.6186 14.6182 18.6894C14.6326 18.7537 14.6424 18.8181 14.6477 18.8825C14.6575 18.9469 14.6626 18.9952 14.663 19.0275C14.6643 19.1371 14.6339 19.2439 14.5716 19.3478C14.5139 19.4452 14.4307 19.4946 14.3219 19.4959C14.2675 19.4965 14.1859 19.4943 14.0771 19.4891C13.9728 19.4775 13.8593 19.4659 13.7368 19.4545C13.6188 19.4365 13.5054 19.425 13.3966 19.4198C13.2922 19.4082 13.2174 19.4026 13.1721 19.4031C13.0407 19.4047 12.9257 19.4512 12.827 19.5427C12.7329 19.6276 12.6867 19.7443 12.6885 19.8926C12.6898 20.0022 12.7272 20.1018 12.8008 20.1912C12.8743 20.2742 12.9634 20.3408 13.0682 20.3912L13.075 20.3911C13.1969 20.3509 13.3098 20.3206 13.4138 20.3C13.5178 20.2794 13.6083 20.2687 13.6853 20.2677C13.8666 20.2656 14.037 20.3055 14.1966 20.3874C14.3606 20.4629 14.5024 20.5708 14.6218 20.7113C14.7413 20.8518 14.8362 21.0184 14.9065 21.211C14.9813 21.4036 15.02 21.6095 15.0226 21.8288C15.0245 21.99 15.0036 22.1418 14.96 22.2842C14.9163 22.4202 14.8543 22.5403 14.774 22.6444C14.6982 22.7485 14.6086 22.8334 14.5051 22.8991C14.4061 22.9584 14.3 22.9887 14.1867 22.99C13.9828 22.9924 13.8054 22.9333 13.6544 22.8125C13.508 22.6917 13.4017 22.5188 13.3356 22.2939C13.7569 22.2889 14.0801 22.2141 14.3049 22.0695C14.5342 21.9184 14.6472 21.6978 14.6437 21.4076C14.6421 21.2722 14.6022 21.1566 14.524 21.0608C14.4459 20.9649 14.3501 20.9177 14.2369 20.9191C14.0058 20.9218 13.782 20.9632 13.5654 21.0431C13.3488 21.1167 13.1552 21.2222 12.9846 21.3596C12.8185 21.4906 12.6844 21.6438 12.5822 21.8191C12.4845 21.988 12.4368 22.1691 12.4391 22.3626C12.4413 22.5432 12.4818 22.7104 12.5607 22.8642C12.6441 23.018 12.7521 23.149 12.8848 23.257C13.0221 23.3715 13.1772 23.4599 13.3502 23.5224C13.5276 23.5848 13.7115 23.6148 13.9018 23.6126C13.9381 23.6121 13.9968 23.5985 14.0781 23.5718C14.1594 23.5515 14.2452 23.5246 14.3354 23.4913C14.4303 23.4644 14.5206 23.4375 14.6064 23.4107C14.6967 23.3903 14.7669 23.3798 14.8167 23.3792C14.8937 23.3783 14.9552 23.4065 15.0012 23.464C15.0518 23.5279 15.0776 23.5986 15.0785 23.676C15.0806 23.8501 15.0278 23.9862 14.9202 24.0842C14.8127 24.1887 14.6887 24.2417 14.5483 24.2434C14.2039 24.2475 13.8747 24.1901 13.5606 24.0713C13.2511 23.9589 12.9774 23.8009 12.7393 23.5974C12.5059 23.4002 12.3173 23.167 12.1736 22.8978C12.0344 22.6222 11.9629 22.3295 11.9592 22.02Z"/>
<path d="M14.2162 15.6273C14.189 15.6277 14.1524 15.5991 14.1064 15.5416C14.0604 15.4841 14.0166 15.4169 13.9749 15.34C13.9287 15.2631 13.8892 15.1862 13.8566 15.1092C13.8239 15.0257 13.8073 14.9647 13.8068 14.926C13.8064 14.8873 13.8216 14.8323 13.8525 14.7609C13.8833 14.6832 13.9209 14.6086 13.9654 14.5371C14.0097 14.4592 14.0543 14.3941 14.099 14.342C14.1436 14.2834 14.1772 14.254 14.1999 14.2537C14.218 14.2535 14.2523 14.2821 14.3029 14.3396C14.3533 14.3906 14.4039 14.4545 14.4547 14.5313C14.5008 14.6017 14.5448 14.6753 14.5865 14.7522C14.6236 14.8227 14.6423 14.8773 14.6428 14.916C14.6433 14.9547 14.6258 15.013 14.5905 15.0908C14.5552 15.1686 14.5131 15.2497 14.4642 15.3341C14.4153 15.4121 14.3686 15.4804 14.3239 15.539C14.2748 15.5976 14.2389 15.6271 14.2162 15.6273Z"/>
</mask>
<path d="M9.87879 23.0122C9.87818 22.9606 9.89361 22.9249 9.9251 22.9052C9.95651 22.8791 9.99034 22.8658 10.0266 22.8653C10.0855 22.8646 10.1373 22.8382 10.182 22.7861C10.2266 22.7275 10.2642 22.6497 10.2948 22.5525C10.3253 22.4554 10.3467 22.3455 10.3588 22.2229C10.3754 22.0937 10.3829 21.9581 10.3812 21.8163L10.3368 18.0824L9.46684 18.0928L9.45948 17.4737L10.3226 17.4634C10.1849 17.3167 10.0762 17.1245 9.99629 16.8868C9.92088 16.6426 9.88161 16.3883 9.87846 16.1239C9.87563 15.8853 9.90017 15.6625 9.95209 15.4555C10.0085 15.2485 10.0857 15.0702 10.1836 14.9207C10.286 14.7647 10.4092 14.6439 10.5532 14.5583C10.6971 14.4663 10.8574 14.4192 11.0341 14.4171C11.2969 14.414 11.5718 14.4785 11.8589 14.6105C12.1505 14.7425 12.4199 14.9134 12.6671 15.1233C12.9142 15.3268 13.1276 15.5564 13.3074 15.8123C13.4871 16.0617 13.6033 16.3054 13.656 16.5434C13.657 16.6272 13.6509 16.6918 13.6379 16.7371C13.6248 16.776 13.6115 16.8019 13.598 16.815C13.5618 16.8154 13.5207 16.7869 13.4747 16.7294C13.4286 16.6654 13.3801 16.5854 13.3291 16.4892C13.0248 16.0543 12.6856 15.7262 12.3114 15.5049C11.9417 15.2835 11.5756 15.175 11.2131 15.1793C11.0908 15.1808 10.9777 15.2015 10.874 15.2414C10.7702 15.2749 10.6802 15.334 10.6042 15.4187C10.5282 15.5035 10.4683 15.6171 10.4247 15.7595C10.3855 15.8954 10.3672 16.0633 10.3695 16.2632C10.3708 16.3664 10.3812 16.4824 10.4009 16.6111C10.425 16.7398 10.456 16.8652 10.4937 16.9873C10.5359 17.1029 10.5847 17.2055 10.6401 17.2952C10.6955 17.3848 10.7551 17.4389 10.8188 17.4575L11.5732 17.4485L11.5805 18.0676L11.064 18.0738C11.0006 18.0745 10.9448 18.1494 10.8967 18.2983C10.8486 18.4407 10.8258 18.6184 10.8283 18.8312L10.8712 22.4393C10.8731 22.6005 10.859 22.7522 10.829 22.8945C10.8034 23.0302 10.7686 23.15 10.7245 23.2537C10.6805 23.3638 10.6272 23.4483 10.5644 23.5071C10.5063 23.5723 10.4478 23.6053 10.3889 23.606C10.3571 23.6063 10.3116 23.5843 10.2521 23.5399C10.1972 23.4954 10.1422 23.4412 10.0871 23.3774C10.032 23.32 9.98365 23.256 9.94203 23.1856C9.90048 23.1216 9.8794 23.0638 9.87879 23.0122Z" fill="#2D2A3A"/>
<path d="M11.9592 22.02C11.9575 21.8717 11.9784 21.7263 12.022 21.5839C12.0657 21.4415 12.1275 21.3085 12.2076 21.185C12.2876 21.0551 12.3814 20.9379 12.4889 20.8334C12.5964 20.7289 12.7109 20.6405 12.8324 20.5681C12.7414 20.5305 12.6523 20.4735 12.5653 20.3972C12.4828 20.3207 12.4093 20.2345 12.3447 20.1386C12.2801 20.0361 12.229 19.9303 12.1914 19.8211C12.1538 19.7055 12.1343 19.5896 12.1329 19.4735C12.1316 19.3639 12.1508 19.2605 12.1904 19.1633C12.2345 19.066 12.2924 18.9815 12.3641 18.9097C12.4357 18.8314 12.5211 18.7724 12.6203 18.7325C12.7194 18.6862 12.8256 18.6623 12.9389 18.661C12.9888 18.6604 13.0591 18.6692 13.15 18.6875C13.2407 18.6993 13.3338 18.7143 13.4292 18.7325C13.529 18.7443 13.6221 18.7593 13.7084 18.7776C13.7946 18.7895 13.8582 18.7952 13.8989 18.7947C13.9624 18.7939 14.0074 18.7708 14.0341 18.7253C14.0652 18.6734 14.0848 18.6119 14.093 18.5408C14.1057 18.4633 14.1115 18.3794 14.1104 18.2891C14.1094 18.1988 14.1084 18.115 14.1074 18.0376L11.4093 18.0697L11.4019 17.4506L14.0797 17.4187C14.0782 17.2898 14.0949 17.1767 14.13 17.0795C14.1651 16.9759 14.2098 16.9238 14.2641 16.9231C14.3049 16.9227 14.3621 16.9704 14.4358 17.0662C14.5139 17.162 14.5788 17.2774 14.6302 17.4122L15.473 17.4022L15.4803 18.0213L14.6376 18.0313C14.6104 18.0316 14.5926 18.0641 14.5843 18.1287C14.5805 18.1868 14.5791 18.2609 14.5802 18.3512C14.5806 18.3835 14.5834 18.4318 14.5887 18.4962C14.5985 18.5542 14.6083 18.6186 14.6182 18.6894C14.6326 18.7537 14.6424 18.8181 14.6477 18.8825C14.6575 18.9469 14.6626 18.9952 14.663 19.0275C14.6643 19.1371 14.6339 19.2439 14.5716 19.3478C14.5139 19.4452 14.4307 19.4946 14.3219 19.4959C14.2675 19.4965 14.1859 19.4943 14.0771 19.4891C13.9728 19.4775 13.8593 19.4659 13.7368 19.4545C13.6188 19.4365 13.5054 19.425 13.3966 19.4198C13.2922 19.4082 13.2174 19.4026 13.1721 19.4031C13.0407 19.4047 12.9257 19.4512 12.827 19.5427C12.7329 19.6276 12.6867 19.7443 12.6885 19.8926C12.6898 20.0022 12.7272 20.1018 12.8008 20.1912C12.8743 20.2742 12.9634 20.3408 13.0682 20.3912L13.075 20.3911C13.1969 20.3509 13.3098 20.3206 13.4138 20.3C13.5178 20.2794 13.6083 20.2687 13.6853 20.2677C13.8666 20.2656 14.037 20.3055 14.1966 20.3874C14.3606 20.4629 14.5024 20.5708 14.6218 20.7113C14.7413 20.8518 14.8362 21.0184 14.9065 21.211C14.9813 21.4036 15.02 21.6095 15.0226 21.8288C15.0245 21.99 15.0036 22.1418 14.96 22.2842C14.9163 22.4202 14.8543 22.5403 14.774 22.6444C14.6982 22.7485 14.6086 22.8334 14.5051 22.8991C14.4061 22.9584 14.3 22.9887 14.1867 22.99C13.9828 22.9924 13.8054 22.9333 13.6544 22.8125C13.508 22.6917 13.4017 22.5188 13.3356 22.2939C13.7569 22.2889 14.0801 22.2141 14.3049 22.0695C14.5342 21.9184 14.6472 21.6978 14.6437 21.4076C14.6421 21.2722 14.6022 21.1566 14.524 21.0608C14.4459 20.9649 14.3501 20.9177 14.2369 20.9191C14.0058 20.9218 13.782 20.9632 13.5654 21.0431C13.3488 21.1167 13.1552 21.2222 12.9846 21.3596C12.8185 21.4906 12.6844 21.6438 12.5822 21.8191C12.4845 21.988 12.4368 22.1691 12.4391 22.3626C12.4413 22.5432 12.4818 22.7104 12.5607 22.8642C12.6441 23.018 12.7521 23.149 12.8848 23.257C13.0221 23.3715 13.1772 23.4599 13.3502 23.5224C13.5276 23.5848 13.7115 23.6148 13.9018 23.6126C13.9381 23.6121 13.9968 23.5985 14.0781 23.5718C14.1594 23.5515 14.2452 23.5246 14.3354 23.4913C14.4303 23.4644 14.5206 23.4375 14.6064 23.4107C14.6967 23.3903 14.7669 23.3798 14.8167 23.3792C14.8937 23.3783 14.9552 23.4065 15.0012 23.464C15.0518 23.5279 15.0776 23.5986 15.0785 23.676C15.0806 23.8501 15.0278 23.9862 14.9202 24.0842C14.8127 24.1887 14.6887 24.2417 14.5483 24.2434C14.2039 24.2475 13.8747 24.1901 13.5606 24.0713C13.2511 23.9589 12.9774 23.8009 12.7393 23.5974C12.5059 23.4002 12.3173 23.167 12.1736 22.8978C12.0344 22.6222 11.9629 22.3295 11.9592 22.02Z" fill="#2D2A3A"/>
<path d="M14.2162 15.6273C14.189 15.6277 14.1524 15.5991 14.1064 15.5416C14.0604 15.4841 14.0166 15.4169 13.9749 15.34C13.9287 15.2631 13.8892 15.1862 13.8566 15.1092C13.8239 15.0257 13.8073 14.9647 13.8068 14.926C13.8064 14.8873 13.8216 14.8323 13.8525 14.7609C13.8833 14.6832 13.9209 14.6086 13.9654 14.5371C14.0097 14.4592 14.0543 14.3941 14.099 14.342C14.1436 14.2834 14.1772 14.254 14.1999 14.2537C14.218 14.2535 14.2523 14.2821 14.3029 14.3396C14.3533 14.3906 14.4039 14.4545 14.4547 14.5313C14.5008 14.6017 14.5448 14.6753 14.5865 14.7522C14.6236 14.8227 14.6423 14.8773 14.6428 14.916C14.6433 14.9547 14.6258 15.013 14.5905 15.0908C14.5552 15.1686 14.5131 15.2497 14.4642 15.3341C14.4153 15.4121 14.3686 15.4804 14.3239 15.539C14.2748 15.5976 14.2389 15.6271 14.2162 15.6273Z" fill="#2D2A3A"/>
<path d="M9.87879 23.0122C9.87818 22.9606 9.89361 22.9249 9.9251 22.9052C9.95651 22.8791 9.99034 22.8658 10.0266 22.8653C10.0855 22.8646 10.1373 22.8382 10.182 22.7861C10.2266 22.7275 10.2642 22.6497 10.2948 22.5525C10.3253 22.4554 10.3467 22.3455 10.3588 22.2229C10.3754 22.0937 10.3829 21.9581 10.3812 21.8163L10.3368 18.0824L9.46684 18.0928L9.45948 17.4737L10.3226 17.4634C10.1849 17.3167 10.0762 17.1245 9.99629 16.8868C9.92088 16.6426 9.88161 16.3883 9.87846 16.1239C9.87563 15.8853 9.90017 15.6625 9.95209 15.4555C10.0085 15.2485 10.0857 15.0702 10.1836 14.9207C10.286 14.7647 10.4092 14.6439 10.5532 14.5583C10.6971 14.4663 10.8574 14.4192 11.0341 14.4171C11.2969 14.414 11.5718 14.4785 11.8589 14.6105C12.1505 14.7425 12.4199 14.9134 12.6671 15.1233C12.9142 15.3268 13.1276 15.5564 13.3074 15.8123C13.4871 16.0617 13.6033 16.3054 13.656 16.5434C13.657 16.6272 13.6509 16.6918 13.6379 16.7371C13.6248 16.776 13.6115 16.8019 13.598 16.815C13.5618 16.8154 13.5207 16.7869 13.4747 16.7294C13.4286 16.6654 13.3801 16.5854 13.3291 16.4892C13.0248 16.0543 12.6856 15.7262 12.3114 15.5049C11.9417 15.2835 11.5756 15.175 11.2131 15.1793C11.0908 15.1808 10.9777 15.2015 10.874 15.2414C10.7702 15.2749 10.6802 15.334 10.6042 15.4187C10.5282 15.5035 10.4683 15.6171 10.4247 15.7595C10.3855 15.8954 10.3672 16.0633 10.3695 16.2632C10.3708 16.3664 10.3812 16.4824 10.4009 16.6111C10.425 16.7398 10.456 16.8652 10.4937 16.9873C10.5359 17.1029 10.5847 17.2055 10.6401 17.2952C10.6955 17.3848 10.7551 17.4389 10.8188 17.4575L11.5732 17.4485L11.5805 18.0676L11.064 18.0738C11.0006 18.0745 10.9448 18.1494 10.8967 18.2983C10.8486 18.4407 10.8258 18.6184 10.8283 18.8312L10.8712 22.4393C10.8731 22.6005 10.859 22.7522 10.829 22.8945C10.8034 23.0302 10.7686 23.15 10.7245 23.2537C10.6805 23.3638 10.6272 23.4483 10.5644 23.5071C10.5063 23.5723 10.4478 23.6053 10.3889 23.606C10.3571 23.6063 10.3116 23.5843 10.2521 23.5399C10.1972 23.4954 10.1422 23.4412 10.0871 23.3774C10.032 23.32 9.98365 23.256 9.94203 23.1856C9.90048 23.1216 9.8794 23.0638 9.87879 23.0122Z" stroke="#2D2A3A" stroke-width="0.121393" mask="url(#path-4-outside-1_616_30290)"/>
<path d="M11.9592 22.02C11.9575 21.8717 11.9784 21.7263 12.022 21.5839C12.0657 21.4415 12.1275 21.3085 12.2076 21.185C12.2876 21.0551 12.3814 20.9379 12.4889 20.8334C12.5964 20.7289 12.7109 20.6405 12.8324 20.5681C12.7414 20.5305 12.6523 20.4735 12.5653 20.3972C12.4828 20.3207 12.4093 20.2345 12.3447 20.1386C12.2801 20.0361 12.229 19.9303 12.1914 19.8211C12.1538 19.7055 12.1343 19.5896 12.1329 19.4735C12.1316 19.3639 12.1508 19.2605 12.1904 19.1633C12.2345 19.066 12.2924 18.9815 12.3641 18.9097C12.4357 18.8314 12.5211 18.7724 12.6203 18.7325C12.7194 18.6862 12.8256 18.6623 12.9389 18.661C12.9888 18.6604 13.0591 18.6692 13.15 18.6875C13.2407 18.6993 13.3338 18.7143 13.4292 18.7325C13.529 18.7443 13.6221 18.7593 13.7084 18.7776C13.7946 18.7895 13.8582 18.7952 13.8989 18.7947C13.9624 18.7939 14.0074 18.7708 14.0341 18.7253C14.0652 18.6734 14.0848 18.6119 14.093 18.5408C14.1057 18.4633 14.1115 18.3794 14.1104 18.2891C14.1094 18.1988 14.1084 18.115 14.1074 18.0376L11.4093 18.0697L11.4019 17.4506L14.0797 17.4187C14.0782 17.2898 14.0949 17.1767 14.13 17.0795C14.1651 16.9759 14.2098 16.9238 14.2641 16.9231C14.3049 16.9227 14.3621 16.9704 14.4358 17.0662C14.5139 17.162 14.5788 17.2774 14.6302 17.4122L15.473 17.4022L15.4803 18.0213L14.6376 18.0313C14.6104 18.0316 14.5926 18.0641 14.5843 18.1287C14.5805 18.1868 14.5791 18.2609 14.5802 18.3512C14.5806 18.3835 14.5834 18.4318 14.5887 18.4962C14.5985 18.5542 14.6083 18.6186 14.6182 18.6894C14.6326 18.7537 14.6424 18.8181 14.6477 18.8825C14.6575 18.9469 14.6626 18.9952 14.663 19.0275C14.6643 19.1371 14.6339 19.2439 14.5716 19.3478C14.5139 19.4452 14.4307 19.4946 14.3219 19.4959C14.2675 19.4965 14.1859 19.4943 14.0771 19.4891C13.9728 19.4775 13.8593 19.4659 13.7368 19.4545C13.6188 19.4365 13.5054 19.425 13.3966 19.4198C13.2922 19.4082 13.2174 19.4026 13.1721 19.4031C13.0407 19.4047 12.9257 19.4512 12.827 19.5427C12.7329 19.6276 12.6867 19.7443 12.6885 19.8926C12.6898 20.0022 12.7272 20.1018 12.8008 20.1912C12.8743 20.2742 12.9634 20.3408 13.0682 20.3912L13.075 20.3911C13.1969 20.3509 13.3098 20.3206 13.4138 20.3C13.5178 20.2794 13.6083 20.2687 13.6853 20.2677C13.8666 20.2656 14.037 20.3055 14.1966 20.3874C14.3606 20.4629 14.5024 20.5708 14.6218 20.7113C14.7413 20.8518 14.8362 21.0184 14.9065 21.211C14.9813 21.4036 15.02 21.6095 15.0226 21.8288C15.0245 21.99 15.0036 22.1418 14.96 22.2842C14.9163 22.4202 14.8543 22.5403 14.774 22.6444C14.6982 22.7485 14.6086 22.8334 14.5051 22.8991C14.4061 22.9584 14.3 22.9887 14.1867 22.99C13.9828 22.9924 13.8054 22.9333 13.6544 22.8125C13.508 22.6917 13.4017 22.5188 13.3356 22.2939C13.7569 22.2889 14.0801 22.2141 14.3049 22.0695C14.5342 21.9184 14.6472 21.6978 14.6437 21.4076C14.6421 21.2722 14.6022 21.1566 14.524 21.0608C14.4459 20.9649 14.3501 20.9177 14.2369 20.9191C14.0058 20.9218 13.782 20.9632 13.5654 21.0431C13.3488 21.1167 13.1552 21.2222 12.9846 21.3596C12.8185 21.4906 12.6844 21.6438 12.5822 21.8191C12.4845 21.988 12.4368 22.1691 12.4391 22.3626C12.4413 22.5432 12.4818 22.7104 12.5607 22.8642C12.6441 23.018 12.7521 23.149 12.8848 23.257C13.0221 23.3715 13.1772 23.4599 13.3502 23.5224C13.5276 23.5848 13.7115 23.6148 13.9018 23.6126C13.9381 23.6121 13.9968 23.5985 14.0781 23.5718C14.1594 23.5515 14.2452 23.5246 14.3354 23.4913C14.4303 23.4644 14.5206 23.4375 14.6064 23.4107C14.6967 23.3903 14.7669 23.3798 14.8167 23.3792C14.8937 23.3783 14.9552 23.4065 15.0012 23.464C15.0518 23.5279 15.0776 23.5986 15.0785 23.676C15.0806 23.8501 15.0278 23.9862 14.9202 24.0842C14.8127 24.1887 14.6887 24.2417 14.5483 24.2434C14.2039 24.2475 13.8747 24.1901 13.5606 24.0713C13.2511 23.9589 12.9774 23.8009 12.7393 23.5974C12.5059 23.4002 12.3173 23.167 12.1736 22.8978C12.0344 22.6222 11.9629 22.3295 11.9592 22.02Z" stroke="#2D2A3A" stroke-width="0.121393" mask="url(#path-4-outside-1_616_30290)"/>
<path d="M14.2162 15.6273C14.189 15.6277 14.1524 15.5991 14.1064 15.5416C14.0604 15.4841 14.0166 15.4169 13.9749 15.34C13.9287 15.2631 13.8892 15.1862 13.8566 15.1092C13.8239 15.0257 13.8073 14.9647 13.8068 14.926C13.8064 14.8873 13.8216 14.8323 13.8525 14.7609C13.8833 14.6832 13.9209 14.6086 13.9654 14.5371C14.0097 14.4592 14.0543 14.3941 14.099 14.342C14.1436 14.2834 14.1772 14.254 14.1999 14.2537C14.218 14.2535 14.2523 14.2821 14.3029 14.3396C14.3533 14.3906 14.4039 14.4545 14.4547 14.5313C14.5008 14.6017 14.5448 14.6753 14.5865 14.7522C14.6236 14.8227 14.6423 14.8773 14.6428 14.916C14.6433 14.9547 14.6258 15.013 14.5905 15.0908C14.5552 15.1686 14.5131 15.2497 14.4642 15.3341C14.4153 15.4121 14.3686 15.4804 14.3239 15.539C14.2748 15.5976 14.2389 15.6271 14.2162 15.6273Z" stroke="#2D2A3A" stroke-width="0.121393" mask="url(#path-4-outside-1_616_30290)"/>
</svg>
