<svg width="48" height="48" viewBox="0 0 48 48" fill="none" xmlns="http://www.w3.org/2000/svg">
<rect width="48" height="48" rx="12" fill="#F3F2FF"/>
<mask id="mask0_616_30507" style="mask-type:alpha" maskUnits="userSpaceOnUse" x="12" y="12" width="24" height="24">
<rect x="12" y="12" width="24" height="24" fill="#D9D9D9"/>
</mask>
<g mask="url(#mask0_616_30507)">
<path d="M18 34C17.45 34 16.9792 33.8042 16.5875 33.4125C16.1958 33.0208 16 32.55 16 32V22C16 21.45 16.1958 20.9792 16.5875 20.5875C16.9792 20.1958 17.45 20 18 20H19V18C19 16.6167 19.4875 15.4375 20.4625 14.4625C21.4375 13.4875 22.6167 13 24 13C25.3833 13 26.5625 13.4875 27.5375 14.4625C28.5125 15.4375 29 16.6167 29 18V20H30C30.55 20 31.0208 20.1958 31.4125 20.5875C31.8042 20.9792 32 21.45 32 22V23.3C31.7 23.2 31.3875 23.125 31.0625 23.075C30.7375 23.025 30.3833 23 30 23C28.0667 23 26.4167 23.6833 25.05 25.05C23.6833 26.4167 23 28.0667 23 30C23 30.75 23.1083 31.45 23.325 32.1C23.5417 32.75 23.85 33.3833 24.25 34H18ZM26.4625 33.5375C25.4875 32.5625 25 31.3833 25 30C25 28.6167 25.4875 27.4375 26.4625 26.4625C27.4375 25.4875 28.6167 25 30 25C31.3833 25 32.5625 25.4875 33.5375 26.4625C34.5125 27.4375 35 28.6167 35 30C35 31.3833 34.5125 32.5625 33.5375 33.5375C32.5625 34.5125 31.3833 35 30 35C28.6167 35 27.4375 34.5125 26.4625 33.5375ZM21 20H27V18C27 17.1667 26.7083 16.4583 26.125 15.875C25.5417 15.2917 24.8333 15 24 15C23.1667 15 22.4583 15.2917 21.875 15.875C21.2917 16.4583 21 17.1667 21 18V20ZM31.0625 29.5625C31.3542 29.2708 31.5 28.9167 31.5 28.5C31.5 28.0833 31.3542 27.7292 31.0625 27.4375C30.7708 27.1458 30.4167 27 30 27C29.5833 27 29.2292 27.1458 28.9375 27.4375C28.6458 27.7292 28.5 28.0833 28.5 28.5C28.5 28.9167 28.6458 29.2708 28.9375 29.5625C29.2292 29.8542 29.5833 30 30 30C30.4167 30 30.7708 29.8542 31.0625 29.5625ZM31.4 32.65C31.8333 32.4167 32.1917 32.0917 32.475 31.675C32.0917 31.4417 31.6917 31.2708 31.275 31.1625C30.8583 31.0542 30.4333 31 30 31C29.5667 31 29.1417 31.0542 28.725 31.1625C28.3083 31.2708 27.9083 31.4417 27.525 31.675C27.8083 32.0917 28.1667 32.4167 28.6 32.65C29.0333 32.8833 29.5 33 30 33C30.5 33 30.9667 32.8833 31.4 32.65Z" fill="#B87FE5"/>
</g>
</svg>
