<svg width="48" height="48" viewBox="0 0 48 48" fill="none" xmlns="http://www.w3.org/2000/svg">
<rect width="48" height="48" rx="12" fill="#F3F2FF"/>
<mask id="mask0_616_30498" style="mask-type:alpha" maskUnits="userSpaceOnUse" x="12" y="12" width="24" height="24">
<rect x="12" y="12" width="24" height="24" fill="#D9D9D9"/>
</mask>
<g mask="url(#mask0_616_30498)">
<path d="M20 24V26C20 27.1 20.3917 28.0417 21.175 28.825C21.9583 29.6083 22.9 30 24 30C25.1 30 26.0417 29.6083 26.825 28.825C27.6083 28.0417 28 27.1 28 26V24H20ZM24 28.5C23.3 28.5 22.7083 28.2583 22.225 27.775C21.7417 27.2917 21.5 26.7 21.5 26V25.5H26.5V26C26.5 26.7 26.2583 27.2917 25.775 27.775C25.2917 28.2583 24.7 28.5 24 28.5ZM18.8125 19.6875C18.3208 20.1458 17.975 20.775 17.775 21.575L19.225 21.925C19.325 21.4917 19.4917 21.1458 19.725 20.8875C19.9583 20.6292 20.2167 20.5 20.5 20.5C20.7833 20.5 21.0417 20.6292 21.275 20.8875C21.5083 21.1458 21.675 21.4917 21.775 21.925L23.225 21.575C23.025 20.775 22.6792 20.1458 22.1875 19.6875C21.6958 19.2292 21.1333 19 20.5 19C19.8667 19 19.3042 19.2292 18.8125 19.6875ZM25.8125 19.6875C25.3208 20.1458 24.975 20.775 24.775 21.575L26.225 21.925C26.325 21.4917 26.4917 21.1458 26.725 20.8875C26.9583 20.6292 27.2167 20.5 27.5 20.5C27.7833 20.5 28.0417 20.6292 28.275 20.8875C28.5083 21.1458 28.675 21.4917 28.775 21.925L30.225 21.575C30.025 20.775 29.6792 20.1458 29.1875 19.6875C28.6958 19.2292 28.1333 19 27.5 19C26.8667 19 26.3042 19.2292 25.8125 19.6875ZM20.1 33.2125C18.8833 32.6875 17.825 31.975 16.925 31.075C16.025 30.175 15.3125 29.1167 14.7875 27.9C14.2625 26.6833 14 25.3833 14 24C14 22.6167 14.2625 21.3167 14.7875 20.1C15.3125 18.8833 16.025 17.825 16.925 16.925C17.825 16.025 18.8833 15.3125 20.1 14.7875C21.3167 14.2625 22.6167 14 24 14C25.3833 14 26.6833 14.2625 27.9 14.7875C29.1167 15.3125 30.175 16.025 31.075 16.925C31.975 17.825 32.6875 18.8833 33.2125 20.1C33.7375 21.3167 34 22.6167 34 24C34 25.3833 33.7375 26.6833 33.2125 27.9C32.6875 29.1167 31.975 30.175 31.075 31.075C30.175 31.975 29.1167 32.6875 27.9 33.2125C26.6833 33.7375 25.3833 34 24 34C22.6167 34 21.3167 33.7375 20.1 33.2125Z" fill="#B87FE5"/>
</g>
</svg>
