<svg width="48" height="48" viewBox="0 0 48 48" fill="none" xmlns="http://www.w3.org/2000/svg">
<rect width="48" height="48" rx="12" fill="#F3F2FF"/>
<mask id="mask0_616_30516" style="mask-type:alpha" maskUnits="userSpaceOnUse" x="12" y="12" width="24" height="24">
<rect x="12" y="12" width="24" height="24" fill="#D9D9D9"/>
</mask>
<g mask="url(#mask0_616_30516)">
<path d="M20.4891 33.2871C19.3974 32.8121 18.4474 32.1704 17.6391 31.3621C16.8307 30.5538 16.1891 29.6038 15.7141 28.5121C15.2391 27.4204 15.0016 26.2496 15.0016 24.9996C15.0016 23.7496 15.2391 22.5788 15.7141 21.4871C16.1891 20.3954 16.8307 19.4454 17.6391 18.6371C18.4474 17.8288 19.3974 17.1871 20.4891 16.7121C21.5807 16.2371 22.7516 15.9996 24.0016 15.9996C25.2516 15.9996 26.4224 16.2371 27.5141 16.7121C28.6057 17.1871 29.5557 17.8288 30.3641 18.6371C31.1724 19.4454 31.8141 20.3954 32.2891 21.4871C32.7641 22.5788 33.0016 23.7496 33.0016 24.9996C33.0016 26.2496 32.7641 27.4204 32.2891 28.5121C31.8141 29.6038 31.1724 30.5538 30.3641 31.3621C29.5557 32.1704 28.6057 32.8121 27.5141 33.2871C26.4224 33.7621 25.2516 33.9996 24.0016 33.9996C22.7516 33.9996 21.5807 33.7621 20.4891 33.2871ZM17.6016 14.3496L19.0016 15.7496L14.7516 19.9996L13.3516 18.5996L17.6016 14.3496ZM30.4016 14.3496L34.6516 18.5996L33.2516 19.9996L29.0016 15.7496L30.4016 14.3496ZM21.0016 28.9996H23.0016V20.9996H21.0016V28.9996ZM25.0016 28.9996H27.0016V20.9996H25.0016V28.9996Z" fill="#B87FE5"/>
</g>
</svg>
