<svg width="389" height="64" viewBox="0 0 389 64" fill="none" xmlns="http://www.w3.org/2000/svg">
<rect width="390" height="64" fill="white"/>
<rect x="15" y="8" width="48" height="48" rx="24" fill="#F3F2FF"/>
<g clip-path="url(#clip0_616_30272)">
<path d="M41.2395 16.8293C41.2957 16.8287 41.3521 16.8307 41.4081 16.8351C42.6057 16.9235 43.1817 17.8654 43.9352 18.6614C44.4251 19.1792 44.9262 19.7194 45.3912 20.2584C45.4719 20.0209 45.5152 19.7688 45.6005 19.5198C45.9089 18.6118 46.4687 17.8089 47.2155 17.2038C47.4102 17.0442 47.706 16.7949 47.9642 16.833C48.1353 16.8583 48.2742 16.9284 48.3753 17.0702C48.5063 17.2539 48.5122 17.4982 48.3905 17.688C48.301 17.826 47.9501 18.0587 47.7958 18.197C47.0279 18.885 46.6181 19.7262 46.4694 20.7338C46.661 20.8218 46.8821 20.9617 47.0823 21.0629C47.0934 21.0549 47.1047 21.0471 47.116 21.0394C48.4336 20.1419 50.4076 19.7256 51.9681 20.0447C52.3301 20.1335 53.512 20.35 53.6757 20.7091C53.9475 21.3051 53.4352 21.7017 52.8163 21.4485C51.3052 20.8304 49.5185 20.9784 48.0997 21.7688C48.1471 21.8235 48.1962 21.8704 48.2475 21.9212C48.4401 21.971 48.7513 22.0241 48.9605 22.0693L51.0464 22.52C51.3455 22.5853 51.644 22.6436 51.9423 22.7136C53.2278 23.0154 54.0313 24.3467 53.6778 25.6228C53.6344 25.782 53.5746 25.9365 53.4996 26.0837C53.2621 26.5591 52.9382 27.0749 52.6662 27.5381C52.1841 28.3588 51.9101 29.1175 51.0486 29.6056C51.1545 29.7805 51.341 30.34 51.4078 30.5521C52.7415 30.7619 53.9568 31.8624 54.3328 33.1455C54.6029 34.0585 54.491 35.0415 54.0229 35.8714C53.6138 36.606 52.9327 37.1893 52.1579 37.5157C51.9042 37.6226 51.6672 37.6874 51.4029 37.7637C51.2621 38.1236 51.1685 38.4316 51.0044 38.807C50.3066 40.402 49.4367 41.5638 48.2101 42.7736C47.8048 43.1721 47.323 43.5579 46.8633 43.8918C44.1338 45.8742 40.7404 46.7489 37.3894 46.374C33.4725 45.9662 29.9401 43.847 27.7479 40.5898C27.4037 40.069 27.1009 39.5222 26.842 38.9546C26.6739 38.584 26.5444 38.2041 26.4011 37.8262C26.3585 37.7142 25.895 37.6249 25.7561 37.5693C25.3317 37.4022 24.9374 37.1674 24.5888 36.8741C22.4601 35.0695 23.1137 31.8275 25.6067 30.7775C25.8156 30.6895 26.2261 30.6136 26.3808 30.4869C26.4142 30.4595 26.5681 30.003 26.5999 29.9198C26.6791 29.7135 26.7638 29.5094 26.8539 29.3077C27.3376 28.2454 27.9726 27.258 28.7394 26.3761C30.5355 24.3237 32.9254 22.8748 35.5814 22.2282C36.1516 22.0881 36.8041 21.963 37.3876 21.9202C37.3883 21.6448 37.4063 21.19 37.5113 20.9385C37.7229 20.4317 38.0751 19.8571 38.3592 19.3749C38.6195 18.9331 38.9415 18.3137 39.2142 17.9034C39.3043 17.7678 39.4065 17.6407 39.5198 17.5236C39.9853 17.0374 40.5791 16.8428 41.2395 16.8293ZM40.0565 45.2797C43.251 44.9955 46.2061 43.4756 48.2878 41.0466C49.0331 40.1654 49.6355 39.1737 50.0733 38.1072C50.2291 37.7208 50.3238 37.3056 50.4977 36.9352C50.6023 36.7129 51.0457 36.674 51.2603 36.6232C53.3384 36.1328 54.1258 33.648 52.4087 32.2264C52.0984 31.9713 51.7365 31.7855 51.3478 31.6816C51.1005 31.6169 50.7943 31.6263 50.5856 31.4605C50.3419 31.2668 50.1982 30.2305 49.9607 29.9363C49.8836 29.8408 49.3465 29.8067 49.1863 29.7521C48.9646 29.6764 48.7329 29.561 48.5462 29.4195C48.1104 29.0892 47.5358 28.3894 47.1473 27.9659L46.1061 26.8301C45.9789 26.6906 45.7933 26.5026 45.6766 26.3642C45.5028 26.3385 45.171 26.2668 45.027 26.1704C44.5168 25.8291 43.3609 25.3593 43.013 24.8912C42.9895 24.8597 42.967 24.8277 42.9451 24.7951C42.0768 24.5889 41.1955 24.4252 40.3252 24.2275C39.4885 24.0374 38.5646 23.9711 37.9886 23.2509C37.9006 23.1407 37.8258 22.9955 37.6884 23.0104C34.3343 23.3777 31.4063 24.8477 29.2825 27.4914C28.6125 28.3342 28.0718 29.2713 27.6779 30.272C27.5301 30.6413 27.4329 31.0371 27.2664 31.3913C27.1798 31.5755 26.6658 31.6309 26.48 31.6768C24.3915 32.1926 23.6723 34.7299 25.4276 36.1044C25.6832 36.3018 25.9698 36.4558 26.2759 36.5598C26.5658 36.6576 27.0789 36.6733 27.2455 36.883C27.401 37.0788 27.5174 37.5962 27.6166 37.8631C27.8622 38.5102 28.1692 39.1326 28.5335 39.7216C30.473 42.8534 33.8322 44.8368 37.4808 45.2539C38.3358 45.3559 39.1995 45.3647 40.0565 45.2797ZM42.958 23.6518C43.1259 23.3635 44.4863 21.0593 44.4817 20.9511C44.3775 20.7993 44.18 20.5961 44.0508 20.4551L43.3371 19.6766L42.519 18.7821C42.0017 18.2158 41.8422 17.9322 41.0262 17.9653C40.6249 18.0574 40.3455 18.2095 40.1341 18.5711C39.7977 19.1465 39.4559 19.7313 39.128 20.3105C39.0072 20.5239 38.6555 21.0972 38.5869 21.3014C38.5161 21.5101 38.504 21.7341 38.5518 21.9492C38.7688 22.8936 39.5547 22.8952 40.3337 23.0801C40.9394 23.224 41.6003 23.3243 42.1976 23.4805C42.4512 23.5349 42.7087 23.5825 42.958 23.6518ZM46.6321 25.7608L46.6491 25.7748C46.8243 25.9219 47.1867 26.3353 47.3572 26.5224L48.5381 27.8144C48.9655 28.2854 49.3238 28.8018 50.0333 28.7358C50.3302 28.7082 50.5647 28.6178 50.7844 28.4137C51.004 28.2052 51.1338 27.9311 51.2837 27.6701L51.8161 26.7423C52.0531 26.3295 52.3151 25.9089 52.5259 25.4868C52.828 24.8819 52.4595 24.0661 51.8245 23.8557C51.5103 23.7522 51.1671 23.6926 50.8421 23.6238L49.0278 23.2359C48.8084 23.1886 48.3862 23.1121 48.1919 23.0558C47.8433 23.6139 47.5091 24.2459 47.1713 24.8166C47.0483 25.0239 46.7153 25.5729 46.6321 25.7608ZM43.9325 24.2365C44.1193 24.3391 45.5724 25.2039 45.6315 25.2044C45.8019 24.9148 47.1977 22.5345 47.1974 22.4557C47.0565 22.3414 45.6601 21.5362 45.5157 21.498C45.0429 22.2739 44.6086 23.0808 44.1456 23.8633C44.0733 23.9855 44.0006 24.1121 43.9325 24.2365Z" fill="#535BD8"/>
<path d="M35.0998 37.559C35.3846 37.5415 36.0483 38.0392 36.3807 38.18C37.83 38.794 39.6767 38.7296 41.117 38.1291C41.7924 37.8475 42.0026 37.2805 42.7179 37.8577C42.8182 38.4308 42.7468 38.5035 42.329 38.8697C41.8403 39.083 41.1897 39.4344 40.6824 39.5839C39.6719 39.8818 37.982 39.9058 36.9635 39.6682C36.2256 39.4528 35.0979 39.0829 34.6376 38.4379C34.3457 38.0289 34.7783 37.7297 35.0998 37.559Z" fill="#535BD8"/>
<path d="M43.0086 30.5335C43.9751 30.3454 44.9134 30.9677 45.1115 31.9282C45.3096 32.8888 44.6935 33.8289 43.7307 34.0352C42.755 34.2442 41.7954 33.6207 41.5947 32.6473C41.3939 31.6738 42.0291 30.7242 43.0086 30.5335Z" fill="#535BD8"/>
<path d="M33.7197 30.5368C34.6969 30.3602 35.6314 31.0099 35.8016 31.9841C35.9718 32.9584 35.3124 33.8841 34.3328 34.0464C33.3633 34.2071 32.4452 33.5588 32.2767 32.5946C32.1083 31.6304 32.7527 30.7115 33.7197 30.5368Z" fill="#535BD8"/>
</g>
<path d="M85.7443 18.3636V30H83.6193L78.5568 22.6761H78.4716V30H76.0114V18.3636H78.1705L83.1932 25.6818H83.2955V18.3636H85.7443ZM87.7315 30V21.2727H90.152V30H87.7315ZM88.9474 20.1477C88.5876 20.1477 88.2789 20.0284 88.0213 19.7898C87.7675 19.5473 87.6406 19.2576 87.6406 18.9205C87.6406 18.5871 87.7675 18.3011 88.0213 18.0625C88.2789 17.8201 88.5876 17.6989 88.9474 17.6989C89.3073 17.6989 89.6141 17.8201 89.8679 18.0625C90.1255 18.3011 90.2543 18.5871 90.2543 18.9205C90.2543 19.2576 90.1255 19.5473 89.8679 19.7898C89.6141 20.0284 89.3073 20.1477 88.9474 20.1477ZM96.733 21.2727V23.0909H91.4773V21.2727H96.733ZM92.6705 19.1818H95.0909V27.3182C95.0909 27.5417 95.125 27.7159 95.1932 27.8409C95.2614 27.9621 95.3561 28.0473 95.4773 28.0966C95.6023 28.1458 95.7462 28.1705 95.9091 28.1705C96.0227 28.1705 96.1364 28.161 96.25 28.142C96.3636 28.1193 96.4508 28.1023 96.5114 28.0909L96.892 29.892C96.7708 29.9299 96.6004 29.9735 96.3807 30.0227C96.161 30.0758 95.8939 30.108 95.5795 30.1193C94.9962 30.142 94.4848 30.0644 94.0455 29.8864C93.6098 29.7083 93.2708 29.4318 93.0284 29.0568C92.786 28.6818 92.6667 28.2083 92.6705 27.6364V19.1818ZM99.804 33.2727C99.4972 33.2727 99.2093 33.2481 98.9403 33.1989C98.6752 33.1534 98.4555 33.0947 98.2812 33.0227L98.8267 31.2159C99.1108 31.303 99.3665 31.3504 99.5938 31.358C99.8248 31.3655 100.024 31.3125 100.19 31.1989C100.361 31.0852 100.499 30.892 100.605 30.6193L100.747 30.25L97.6165 21.2727H100.162L101.969 27.6818H102.06L103.884 21.2727H106.446L103.054 30.9432C102.891 31.4129 102.67 31.822 102.389 32.1705C102.113 32.5227 101.762 32.7936 101.338 32.983C100.914 33.1761 100.402 33.2727 99.804 33.2727ZM109.939 30.1648C109.382 30.1648 108.886 30.0682 108.45 29.875C108.015 29.678 107.67 29.3883 107.416 29.0057C107.166 28.6193 107.041 28.1383 107.041 27.5625C107.041 27.0777 107.13 26.6705 107.308 26.3409C107.486 26.0114 107.729 25.7462 108.036 25.5455C108.342 25.3447 108.691 25.1932 109.081 25.0909C109.475 24.9886 109.888 24.9167 110.32 24.875C110.827 24.822 111.236 24.7727 111.547 24.7273C111.857 24.678 112.083 24.6061 112.223 24.5114C112.363 24.4167 112.433 24.2765 112.433 24.0909V24.0568C112.433 23.697 112.32 23.4186 112.092 23.2216C111.869 23.0246 111.551 22.9261 111.138 22.9261C110.702 22.9261 110.356 23.0227 110.098 23.2159C109.84 23.4053 109.67 23.6439 109.587 23.9318L107.348 23.75C107.462 23.2197 107.685 22.7614 108.018 22.375C108.352 21.9848 108.782 21.6856 109.308 21.4773C109.839 21.2652 110.452 21.1591 111.149 21.1591C111.634 21.1591 112.098 21.2159 112.541 21.3295C112.988 21.4432 113.384 21.6193 113.729 21.858C114.077 22.0966 114.352 22.4034 114.553 22.7784C114.753 23.1496 114.854 23.5947 114.854 24.1136V30H112.558V28.7898H112.49C112.35 29.0625 112.162 29.303 111.928 29.5114C111.693 29.7159 111.411 29.8769 111.081 29.9943C110.751 30.108 110.371 30.1648 109.939 30.1648ZM110.632 28.4943C110.988 28.4943 111.303 28.4242 111.575 28.2841C111.848 28.1402 112.062 27.947 112.217 27.7045C112.373 27.4621 112.45 27.1875 112.45 26.8807V25.9545C112.375 26.0038 112.27 26.0492 112.138 26.0909C112.009 26.1288 111.863 26.1648 111.7 26.1989C111.537 26.2292 111.375 26.2576 111.212 26.2841C111.049 26.3068 110.901 26.3277 110.768 26.3466C110.484 26.3883 110.236 26.4545 110.024 26.5455C109.812 26.6364 109.647 26.7595 109.53 26.9148C109.412 27.0663 109.354 27.2557 109.354 27.483C109.354 27.8125 109.473 28.0644 109.712 28.2386C109.954 28.4091 110.261 28.4943 110.632 28.4943Z" fill="#2D2A3A"/>
<mask id="mask0_616_30272" style="mask-type:alpha" maskUnits="userSpaceOnUse" x="120" y="12" width="24" height="25">
<rect x="144" y="12.5" width="24" height="24" transform="rotate(90 144 12.5)" fill="#D9D9D9"/>
</mask>
<g mask="url(#mask0_616_30272)">
<path d="M125 22H138L131.5 28L125 22Z" fill="#2D2A3A"/>
</g>
<path d="M78.8864 48.6193C78.4972 48.6136 78.1136 48.5426 77.7358 48.4062C77.3608 48.2699 77.0199 48.0426 76.7131 47.7244C76.4063 47.4062 76.1605 46.9787 75.9759 46.4418C75.794 45.9048 75.7031 45.2344 75.7031 44.4304C75.7031 43.669 75.7784 42.9929 75.929 42.402C76.0824 41.8111 76.3026 41.3125 76.5895 40.9062C76.8764 40.4972 77.223 40.1861 77.6293 39.973C78.0355 39.7599 78.4915 39.6534 78.9972 39.6534C79.517 39.6534 79.9787 39.7557 80.3821 39.9602C80.7855 40.1648 81.1122 40.4474 81.3622 40.8082C81.6151 41.169 81.7756 41.5795 81.8438 42.0398H80.544C80.456 41.6761 80.2813 41.3793 80.0199 41.1491C79.7585 40.919 79.4176 40.804 78.9972 40.804C78.358 40.804 77.8594 41.0824 77.5014 41.6392C77.1463 42.196 76.9673 42.9702 76.9645 43.9616H77.0284C77.179 43.7145 77.3636 43.5043 77.5824 43.331C77.804 43.1548 78.0511 43.0199 78.3239 42.9261C78.5994 42.8295 78.8892 42.7812 79.1932 42.7812C79.6989 42.7812 80.1563 42.9048 80.5653 43.152C80.9773 43.3963 81.3054 43.7344 81.5497 44.1662C81.794 44.598 81.9162 45.0923 81.9162 45.6491C81.9162 46.206 81.7898 46.7102 81.5369 47.1619C81.2869 47.6136 80.9347 47.9716 80.4801 48.2358C80.0256 48.4972 79.4943 48.625 78.8864 48.6193ZM78.8821 47.5114C79.2173 47.5114 79.517 47.429 79.7812 47.2642C80.0455 47.0994 80.2543 46.8778 80.4077 46.5994C80.5611 46.321 80.6378 46.0099 80.6378 45.6662C80.6378 45.331 80.5625 45.0256 80.4119 44.75C80.2642 44.4744 80.0597 44.2557 79.7983 44.0938C79.5398 43.9318 79.2443 43.8509 78.9119 43.8509C78.6591 43.8509 78.4247 43.8991 78.2088 43.9957C77.9957 44.0923 77.8082 44.2259 77.6463 44.3963C77.4844 44.5668 77.3565 44.7628 77.2628 44.9844C77.1719 45.2031 77.1264 45.4347 77.1264 45.679C77.1264 46.0057 77.2017 46.3082 77.3523 46.5866C77.5057 46.8651 77.7145 47.0895 77.9787 47.2599C78.2457 47.4276 78.5469 47.5114 78.8821 47.5114ZM87.4666 50.9545C87.2763 50.9545 87.103 50.9389 86.9467 50.9077C86.7905 50.8793 86.674 50.848 86.5973 50.8139L86.9041 49.7699C87.1371 49.8324 87.3445 49.8594 87.5263 49.8509C87.7081 49.8423 87.8686 49.7741 88.0078 49.6463C88.1499 49.5185 88.2749 49.3097 88.3828 49.0199L88.5405 48.5852L86.1456 41.9545H87.5092L89.1669 47.0341H89.2351L90.8928 41.9545H92.2607L89.5632 49.3736C89.4382 49.7145 89.2791 50.0028 89.0859 50.2386C88.8928 50.4773 88.6626 50.6563 88.3956 50.7756C88.1286 50.8949 87.8189 50.9545 87.4666 50.9545ZM93.4581 48.5V41.9545H94.6896V42.9943H94.7578C94.8771 42.642 95.0874 42.3651 95.3885 42.1634C95.6925 41.9588 96.0362 41.8565 96.4197 41.8565C96.4993 41.8565 96.593 41.8594 96.701 41.8651C96.8118 41.8707 96.8984 41.8778 96.9609 41.8864V43.1051C96.9098 43.0909 96.8189 43.0753 96.6882 43.0582C96.5575 43.0384 96.4268 43.0284 96.2962 43.0284C95.995 43.0284 95.7266 43.0923 95.4908 43.2202C95.2578 43.3452 95.0732 43.5199 94.9368 43.7443C94.8004 43.9659 94.7322 44.2187 94.7322 44.5028V48.5H93.4581ZM102.968 43.5526L101.814 43.7571C101.765 43.6094 101.689 43.4687 101.583 43.3352C101.481 43.2017 101.342 43.0923 101.166 43.0071C100.99 42.9219 100.77 42.8793 100.505 42.8793C100.145 42.8793 99.8434 42.9602 99.6019 43.1222C99.3604 43.2812 99.2397 43.4872 99.2397 43.7401C99.2397 43.9588 99.3207 44.1349 99.4826 44.2685C99.6445 44.402 99.9059 44.5114 100.267 44.5966L101.306 44.8352C101.909 44.9744 102.358 45.1889 102.653 45.4787C102.949 45.7685 103.096 46.1449 103.096 46.608C103.096 47 102.983 47.3494 102.755 47.6562C102.531 47.9602 102.217 48.1989 101.814 48.3722C101.413 48.5455 100.949 48.6321 100.42 48.6321C99.6871 48.6321 99.0891 48.4759 98.6261 48.1634C98.163 47.848 97.8789 47.4006 97.7738 46.821L99.0053 46.6335C99.082 46.9545 99.2397 47.1974 99.4783 47.3622C99.717 47.5241 100.028 47.6051 100.412 47.6051C100.829 47.6051 101.163 47.5185 101.413 47.3452C101.663 47.169 101.788 46.9545 101.788 46.7017C101.788 46.4972 101.711 46.3253 101.558 46.1861C101.407 46.0469 101.176 45.9418 100.863 45.8707L99.7553 45.6278C99.1445 45.4886 98.6928 45.267 98.4002 44.9631C98.1104 44.6591 97.9656 44.2741 97.9656 43.8082C97.9656 43.4219 98.0735 43.0838 98.2894 42.794C98.5053 42.5043 98.8036 42.2784 99.1843 42.1165C99.565 41.9517 100.001 41.8693 100.493 41.8693C101.2 41.8693 101.757 42.0227 102.163 42.3295C102.569 42.6335 102.838 43.0412 102.968 43.5526ZM110.694 48.6193C110.109 48.6193 109.586 48.5185 109.126 48.3168C108.669 48.1151 108.306 47.8352 108.039 47.4773C107.775 47.1165 107.633 46.6989 107.613 46.2244H108.951C108.968 46.483 109.055 46.7074 109.211 46.8977C109.37 47.0852 109.578 47.2301 109.833 47.3324C110.089 47.4347 110.373 47.4858 110.686 47.4858C111.029 47.4858 111.333 47.4261 111.598 47.3068C111.865 47.1875 112.074 47.0213 112.224 46.8082C112.375 46.5923 112.45 46.3438 112.45 46.0625C112.45 45.7699 112.375 45.5128 112.224 45.2912C112.076 45.0668 111.859 44.8906 111.572 44.7628C111.288 44.6349 110.944 44.571 110.541 44.571H109.804V43.4972H110.541C110.865 43.4972 111.149 43.4389 111.393 43.3224C111.64 43.206 111.833 43.044 111.973 42.8366C112.112 42.6264 112.181 42.3807 112.181 42.0994C112.181 41.8295 112.12 41.5952 111.998 41.3963C111.879 41.1946 111.708 41.0369 111.487 40.9233C111.268 40.8097 111.01 40.7528 110.711 40.7528C110.427 40.7528 110.162 40.8054 109.914 40.9105C109.67 41.0128 109.471 41.1605 109.318 41.3537C109.164 41.544 109.082 41.7727 109.071 42.0398H107.797C107.811 41.5682 107.95 41.1534 108.214 40.7955C108.481 40.4375 108.833 40.1577 109.271 39.956C109.708 39.7543 110.194 39.6534 110.728 39.6534C111.288 39.6534 111.771 39.7628 112.177 39.9815C112.586 40.1974 112.902 40.4858 113.123 40.8466C113.348 41.2074 113.458 41.6023 113.456 42.0312C113.458 42.5199 113.322 42.9347 113.047 43.2756C112.774 43.6165 112.41 43.8452 111.956 43.9616V44.0298C112.535 44.1179 112.984 44.348 113.302 44.7202C113.623 45.0923 113.782 45.554 113.779 46.1051C113.782 46.5852 113.649 47.0156 113.379 47.3963C113.112 47.777 112.747 48.0767 112.284 48.2955C111.821 48.5114 111.291 48.6193 110.694 48.6193ZM118.583 48.5V41.9545H119.806V43.0199H119.887C120.023 42.6591 120.246 42.3778 120.556 42.1761C120.866 41.9716 121.237 41.8693 121.668 41.8693C122.106 41.8693 122.472 41.9716 122.768 42.1761C123.066 42.3807 123.286 42.6619 123.428 43.0199H123.496C123.653 42.6705 123.901 42.392 124.242 42.1847C124.583 41.9744 124.989 41.8693 125.461 41.8693C126.055 41.8693 126.539 42.0554 126.914 42.4276C127.292 42.7997 127.481 43.3608 127.481 44.1108V48.5H126.207V44.2301C126.207 43.7869 126.086 43.4659 125.844 43.267C125.603 43.0682 125.315 42.9688 124.979 42.9688C124.565 42.9688 124.242 43.0966 124.012 43.3523C123.782 43.6051 123.667 43.9304 123.667 44.3281V48.5H122.397V44.1491C122.397 43.794 122.286 43.5085 122.065 43.2926C121.843 43.0767 121.555 42.9688 121.2 42.9688C120.958 42.9688 120.735 43.0327 120.531 43.1605C120.329 43.2855 120.165 43.4602 120.04 43.6847C119.918 43.9091 119.857 44.169 119.857 44.4645V48.5H118.583ZM131.946 48.6321C131.332 48.6321 130.797 48.4915 130.339 48.2102C129.882 47.929 129.527 47.5355 129.274 47.0298C129.021 46.5241 128.895 45.9332 128.895 45.2571C128.895 44.5781 129.021 43.9844 129.274 43.4759C129.527 42.9673 129.882 42.5724 130.339 42.2912C130.797 42.0099 131.332 41.8693 131.946 41.8693C132.559 41.8693 133.095 42.0099 133.552 42.2912C134.01 42.5724 134.365 42.9673 134.618 43.4759C134.87 43.9844 134.997 44.5781 134.997 45.2571C134.997 45.9332 134.87 46.5241 134.618 47.0298C134.365 47.5355 134.01 47.929 133.552 48.2102C133.095 48.4915 132.559 48.6321 131.946 48.6321ZM131.95 47.5625C132.348 47.5625 132.677 47.4574 132.939 47.2472C133.2 47.0369 133.393 46.7571 133.518 46.4077C133.646 46.0582 133.71 45.6733 133.71 45.2528C133.71 44.8352 133.646 44.4517 133.518 44.1023C133.393 43.75 133.2 43.4673 132.939 43.2543C132.677 43.0412 132.348 42.9347 131.95 42.9347C131.549 42.9347 131.217 43.0412 130.953 43.2543C130.691 43.4673 130.497 43.75 130.369 44.1023C130.244 44.4517 130.181 44.8352 130.181 45.2528C130.181 45.6733 130.244 46.0582 130.369 46.4077C130.497 46.7571 130.691 47.0369 130.953 47.2472C131.217 47.4574 131.549 47.5625 131.95 47.5625ZM141.324 43.5526L140.169 43.7571C140.121 43.6094 140.044 43.4687 139.939 43.3352C139.837 43.2017 139.697 43.0923 139.521 43.0071C139.345 42.9219 139.125 42.8793 138.861 42.8793C138.5 42.8793 138.199 42.9602 137.957 43.1222C137.716 43.2812 137.595 43.4872 137.595 43.7401C137.595 43.9588 137.676 44.1349 137.838 44.2685C138 44.402 138.261 44.5114 138.622 44.5966L139.662 44.8352C140.264 44.9744 140.713 45.1889 141.009 45.4787C141.304 45.7685 141.452 46.1449 141.452 46.608C141.452 47 141.338 47.3494 141.111 47.6562C140.886 47.9602 140.572 48.1989 140.169 48.3722C139.768 48.5455 139.304 48.6321 138.776 48.6321C138.043 48.6321 137.445 48.4759 136.982 48.1634C136.518 47.848 136.234 47.4006 136.129 46.821L137.361 46.6335C137.438 46.9545 137.595 47.1974 137.834 47.3622C138.072 47.5241 138.384 47.6051 138.767 47.6051C139.185 47.6051 139.518 47.5185 139.768 47.3452C140.018 47.169 140.143 46.9545 140.143 46.7017C140.143 46.4972 140.067 46.3253 139.913 46.1861C139.763 46.0469 139.531 45.9418 139.219 45.8707L138.111 45.6278C137.5 45.4886 137.048 45.267 136.756 44.9631C136.466 44.6591 136.321 44.2741 136.321 43.8082C136.321 43.4219 136.429 43.0838 136.645 42.794C136.861 42.5043 137.159 42.2784 137.54 42.1165C137.92 41.9517 138.357 41.8693 138.848 41.8693C139.555 41.8693 140.112 42.0227 140.518 42.3295C140.925 42.6335 141.193 43.0412 141.324 43.5526Z" fill="#6B7180"/>
<rect x="291" y="14" width="36" height="36" rx="8" fill="#F3F2FF"/>
<path d="M318.942 28.2563L317.091 27.6675V22.2652C317.091 22.1077 316.974 22 316.825 22C316.709 22 312.968 23.2844 312.669 23.3921C311.655 23.7299 308.727 24.7412 308.727 24.7412C308.68 24.7546 308.607 24.7769 308.512 24.8069L301.365 22.2872C301.311 22.2682 301.255 22.3082 301.255 22.3654V22.4561V27.2079C300.146 27.5786 299.356 27.844 299.315 27.8583C299.241 27.8832 299.124 27.8997 299.058 27.9909C299.025 28.024 299.017 28.082 299 28.1235V42.0524C299 42.069 299.008 42.0773 299.008 42.0856C299.058 42.1933 299.149 42.2596 299.249 42.2596C299.373 42.2596 308.713 39.1274 308.92 39.0446C308.93 39.0413 308.941 39.0336 308.952 39.0247L318.892 42.1896C318.945 42.2066 319 42.1668 319 42.1107V28.3353C319 28.2992 318.977 28.2672 318.942 28.2563ZM308.547 38.6468L299.506 41.6547V28.3306L308.547 25.3227V38.6468ZM316.585 22.5966V27.5067L309.113 25.1311L316.585 22.5966ZM315.665 37.5518L315.187 35.8082L312.439 34.9759L311.847 36.3963L310.517 35.9931L313.341 29.0696L314.636 29.4615L316.995 37.9549L315.665 37.5518Z" fill="#2D2A3A"/>
<path d="M312.947 33.7003L314.761 34.2495L313.934 31.3184L312.947 33.7003Z" fill="#2D2A3A"/>
<mask id="path-13-outside-1_616_30272" maskUnits="userSpaceOnUse" x="299.41" y="27.2274" width="8.14209" height="12.0943" fill="black">
<rect fill="white" x="299.41" y="27.2274" width="8.14209" height="12.0943"/>
<path d="M300.879 37.0122C300.878 36.9606 300.894 36.9249 300.925 36.9052C300.957 36.8791 300.99 36.8658 301.027 36.8653C301.085 36.8646 301.137 36.8382 301.182 36.7861C301.227 36.7275 301.264 36.6497 301.295 36.5525C301.325 36.4554 301.347 36.3455 301.359 36.2229C301.375 36.0937 301.383 35.9581 301.381 35.8163L301.337 32.0824L300.467 32.0928L300.459 31.4737L301.323 31.4634C301.185 31.3167 301.076 31.1245 300.996 30.8868C300.921 30.6426 300.882 30.3883 300.878 30.1239C300.876 29.8853 300.9 29.6625 300.952 29.4555C301.009 29.2485 301.086 29.0702 301.184 28.9207C301.286 28.7647 301.409 28.6439 301.553 28.5583C301.697 28.4663 301.857 28.4192 302.034 28.4171C302.297 28.414 302.572 28.4785 302.859 28.6105C303.15 28.7425 303.42 28.9134 303.667 29.1233C303.914 29.3268 304.128 29.5564 304.307 29.8123C304.487 30.0617 304.603 30.3054 304.656 30.5434C304.657 30.6272 304.651 30.6918 304.638 30.7371C304.625 30.776 304.611 30.8019 304.598 30.815C304.562 30.8154 304.521 30.7869 304.475 30.7294C304.429 30.6654 304.38 30.5854 304.329 30.4892C304.025 30.0543 303.686 29.7262 303.311 29.5049C302.942 29.2835 302.576 29.175 302.213 29.1793C302.091 29.1808 301.978 29.2015 301.874 29.2414C301.77 29.2749 301.68 29.334 301.604 29.4187C301.528 29.5035 301.468 29.6171 301.425 29.7595C301.386 29.8954 301.367 30.0633 301.37 30.2632C301.371 30.3664 301.381 30.4824 301.401 30.6111C301.425 30.7398 301.456 30.8652 301.494 30.9873C301.536 31.1029 301.585 31.2055 301.64 31.2952C301.696 31.3848 301.755 31.4389 301.819 31.4575L302.573 31.4485L302.581 32.0676L302.064 32.0738C302.001 32.0745 301.945 32.1494 301.897 32.2983C301.849 32.4407 301.826 32.6184 301.828 32.8312L301.871 36.4393C301.873 36.6005 301.859 36.7522 301.829 36.8945C301.803 37.0302 301.769 37.15 301.725 37.2537C301.681 37.3638 301.627 37.4483 301.564 37.5071C301.506 37.5723 301.448 37.6053 301.389 37.606C301.357 37.6063 301.312 37.5843 301.252 37.5399C301.197 37.4954 301.142 37.4412 301.087 37.3774C301.032 37.32 300.984 37.256 300.942 37.1856C300.9 37.1216 300.879 37.0638 300.879 37.0122Z"/>
<path d="M302.959 36.02C302.957 35.8717 302.978 35.7263 303.022 35.5839C303.066 35.4415 303.128 35.3085 303.208 35.185C303.288 35.0551 303.381 34.9379 303.489 34.8334C303.596 34.7289 303.711 34.6405 303.832 34.5681C303.741 34.5305 303.652 34.4735 303.565 34.3972C303.483 34.3207 303.409 34.2345 303.345 34.1386C303.28 34.0361 303.229 33.9303 303.191 33.8211C303.154 33.7055 303.134 33.5896 303.133 33.4735C303.132 33.3639 303.151 33.2605 303.19 33.1633C303.235 33.066 303.292 32.9815 303.364 32.9097C303.436 32.8314 303.521 32.7724 303.62 32.7325C303.719 32.6862 303.826 32.6623 303.939 32.661C303.989 32.6604 304.059 32.6692 304.15 32.6875C304.241 32.6993 304.334 32.7143 304.429 32.7325C304.529 32.7443 304.622 32.7593 304.708 32.7776C304.795 32.7895 304.858 32.7952 304.899 32.7947C304.962 32.7939 305.007 32.7708 305.034 32.7253C305.065 32.6734 305.085 32.6119 305.093 32.5408C305.106 32.4633 305.112 32.3794 305.11 32.2891C305.109 32.1988 305.108 32.115 305.107 32.0376L302.409 32.0697L302.402 31.4506L305.08 31.4187C305.078 31.2898 305.095 31.1767 305.13 31.0795C305.165 30.9759 305.21 30.9238 305.264 30.9231C305.305 30.9227 305.362 30.9704 305.436 31.0662C305.514 31.162 305.579 31.2774 305.63 31.4122L306.473 31.4022L306.48 32.0213L305.638 32.0313C305.61 32.0316 305.593 32.0641 305.584 32.1287C305.581 32.1868 305.579 32.2609 305.58 32.3512C305.581 32.3835 305.583 32.4318 305.589 32.4962C305.598 32.5542 305.608 32.6186 305.618 32.6894C305.633 32.7537 305.642 32.8181 305.648 32.8825C305.658 32.9469 305.663 32.9952 305.663 33.0275C305.664 33.1371 305.634 33.2439 305.572 33.3478C305.514 33.4452 305.431 33.4946 305.322 33.4959C305.268 33.4965 305.186 33.4943 305.077 33.4891C304.973 33.4775 304.859 33.4659 304.737 33.4545C304.619 33.4365 304.505 33.425 304.397 33.4198C304.292 33.4082 304.217 33.4026 304.172 33.4031C304.041 33.4047 303.926 33.4512 303.827 33.5427C303.733 33.6276 303.687 33.7443 303.688 33.8926C303.69 34.0022 303.727 34.1018 303.801 34.1912C303.874 34.2742 303.963 34.3408 304.068 34.3912L304.075 34.3911C304.197 34.3509 304.31 34.3206 304.414 34.3C304.518 34.2794 304.608 34.2687 304.685 34.2677C304.867 34.2656 305.037 34.3055 305.197 34.3874C305.361 34.4629 305.502 34.5708 305.622 34.7113C305.741 34.8518 305.836 35.0184 305.906 35.211C305.981 35.4036 306.02 35.6095 306.023 35.8288C306.024 35.99 306.004 36.1418 305.96 36.2842C305.916 36.4202 305.854 36.5403 305.774 36.6444C305.698 36.7485 305.609 36.8334 305.505 36.8991C305.406 36.9584 305.3 36.9887 305.187 36.99C304.983 36.9924 304.805 36.9333 304.654 36.8125C304.508 36.6917 304.402 36.5188 304.336 36.2939C304.757 36.2889 305.08 36.2141 305.305 36.0695C305.534 35.9184 305.647 35.6978 305.644 35.4076C305.642 35.2722 305.602 35.1566 305.524 35.0608C305.446 34.9649 305.35 34.9177 305.237 34.9191C305.006 34.9218 304.782 34.9632 304.565 35.0431C304.349 35.1167 304.155 35.2222 303.985 35.3596C303.818 35.4906 303.684 35.6438 303.582 35.8191C303.485 35.988 303.437 36.1691 303.439 36.3626C303.441 36.5432 303.482 36.7104 303.561 36.8642C303.644 37.018 303.752 37.149 303.885 37.257C304.022 37.3715 304.177 37.4599 304.35 37.5224C304.528 37.5848 304.712 37.6148 304.902 37.6126C304.938 37.6121 304.997 37.5985 305.078 37.5718C305.159 37.5515 305.245 37.5246 305.335 37.4913C305.43 37.4644 305.521 37.4375 305.606 37.4107C305.697 37.3903 305.767 37.3798 305.817 37.3792C305.894 37.3783 305.955 37.4065 306.001 37.464C306.052 37.5279 306.078 37.5986 306.079 37.676C306.081 37.8501 306.028 37.9862 305.92 38.0842C305.813 38.1887 305.689 38.2417 305.548 38.2434C305.204 38.2475 304.875 38.1901 304.561 38.0713C304.251 37.9589 303.977 37.8009 303.739 37.5974C303.506 37.4002 303.317 37.167 303.174 36.8978C303.034 36.6222 302.963 36.3295 302.959 36.02Z"/>
<path d="M305.216 29.6273C305.189 29.6277 305.152 29.5991 305.106 29.5416C305.06 29.4841 305.017 29.4169 304.975 29.34C304.929 29.2631 304.889 29.1862 304.857 29.1092C304.824 29.0257 304.807 28.9647 304.807 28.926C304.806 28.8873 304.822 28.8323 304.852 28.7609C304.883 28.6832 304.921 28.6086 304.965 28.5371C305.01 28.4592 305.054 28.3941 305.099 28.342C305.144 28.2834 305.177 28.254 305.2 28.2537C305.218 28.2535 305.252 28.2821 305.303 28.3396C305.353 28.3906 305.404 28.4545 305.455 28.5313C305.501 28.6017 305.545 28.6753 305.586 28.7522C305.624 28.8227 305.642 28.8773 305.643 28.916C305.643 28.9547 305.626 29.013 305.59 29.0908C305.555 29.1686 305.513 29.2497 305.464 29.3341C305.415 29.4121 305.369 29.4804 305.324 29.539C305.275 29.5976 305.239 29.6271 305.216 29.6273Z"/>
</mask>
<path d="M300.879 37.0122C300.878 36.9606 300.894 36.9249 300.925 36.9052C300.957 36.8791 300.99 36.8658 301.027 36.8653C301.085 36.8646 301.137 36.8382 301.182 36.7861C301.227 36.7275 301.264 36.6497 301.295 36.5525C301.325 36.4554 301.347 36.3455 301.359 36.2229C301.375 36.0937 301.383 35.9581 301.381 35.8163L301.337 32.0824L300.467 32.0928L300.459 31.4737L301.323 31.4634C301.185 31.3167 301.076 31.1245 300.996 30.8868C300.921 30.6426 300.882 30.3883 300.878 30.1239C300.876 29.8853 300.9 29.6625 300.952 29.4555C301.009 29.2485 301.086 29.0702 301.184 28.9207C301.286 28.7647 301.409 28.6439 301.553 28.5583C301.697 28.4663 301.857 28.4192 302.034 28.4171C302.297 28.414 302.572 28.4785 302.859 28.6105C303.15 28.7425 303.42 28.9134 303.667 29.1233C303.914 29.3268 304.128 29.5564 304.307 29.8123C304.487 30.0617 304.603 30.3054 304.656 30.5434C304.657 30.6272 304.651 30.6918 304.638 30.7371C304.625 30.776 304.611 30.8019 304.598 30.815C304.562 30.8154 304.521 30.7869 304.475 30.7294C304.429 30.6654 304.38 30.5854 304.329 30.4892C304.025 30.0543 303.686 29.7262 303.311 29.5049C302.942 29.2835 302.576 29.175 302.213 29.1793C302.091 29.1808 301.978 29.2015 301.874 29.2414C301.77 29.2749 301.68 29.334 301.604 29.4187C301.528 29.5035 301.468 29.6171 301.425 29.7595C301.386 29.8954 301.367 30.0633 301.37 30.2632C301.371 30.3664 301.381 30.4824 301.401 30.6111C301.425 30.7398 301.456 30.8652 301.494 30.9873C301.536 31.1029 301.585 31.2055 301.64 31.2952C301.696 31.3848 301.755 31.4389 301.819 31.4575L302.573 31.4485L302.581 32.0676L302.064 32.0738C302.001 32.0745 301.945 32.1494 301.897 32.2983C301.849 32.4407 301.826 32.6184 301.828 32.8312L301.871 36.4393C301.873 36.6005 301.859 36.7522 301.829 36.8945C301.803 37.0302 301.769 37.15 301.725 37.2537C301.681 37.3638 301.627 37.4483 301.564 37.5071C301.506 37.5723 301.448 37.6053 301.389 37.606C301.357 37.6063 301.312 37.5843 301.252 37.5399C301.197 37.4954 301.142 37.4412 301.087 37.3774C301.032 37.32 300.984 37.256 300.942 37.1856C300.9 37.1216 300.879 37.0638 300.879 37.0122Z" fill="#2D2A3A"/>
<path d="M302.959 36.02C302.957 35.8717 302.978 35.7263 303.022 35.5839C303.066 35.4415 303.128 35.3085 303.208 35.185C303.288 35.0551 303.381 34.9379 303.489 34.8334C303.596 34.7289 303.711 34.6405 303.832 34.5681C303.741 34.5305 303.652 34.4735 303.565 34.3972C303.483 34.3207 303.409 34.2345 303.345 34.1386C303.28 34.0361 303.229 33.9303 303.191 33.8211C303.154 33.7055 303.134 33.5896 303.133 33.4735C303.132 33.3639 303.151 33.2605 303.19 33.1633C303.235 33.066 303.292 32.9815 303.364 32.9097C303.436 32.8314 303.521 32.7724 303.62 32.7325C303.719 32.6862 303.826 32.6623 303.939 32.661C303.989 32.6604 304.059 32.6692 304.15 32.6875C304.241 32.6993 304.334 32.7143 304.429 32.7325C304.529 32.7443 304.622 32.7593 304.708 32.7776C304.795 32.7895 304.858 32.7952 304.899 32.7947C304.962 32.7939 305.007 32.7708 305.034 32.7253C305.065 32.6734 305.085 32.6119 305.093 32.5408C305.106 32.4633 305.112 32.3794 305.11 32.2891C305.109 32.1988 305.108 32.115 305.107 32.0376L302.409 32.0697L302.402 31.4506L305.08 31.4187C305.078 31.2898 305.095 31.1767 305.13 31.0795C305.165 30.9759 305.21 30.9238 305.264 30.9231C305.305 30.9227 305.362 30.9704 305.436 31.0662C305.514 31.162 305.579 31.2774 305.63 31.4122L306.473 31.4022L306.48 32.0213L305.638 32.0313C305.61 32.0316 305.593 32.0641 305.584 32.1287C305.581 32.1868 305.579 32.2609 305.58 32.3512C305.581 32.3835 305.583 32.4318 305.589 32.4962C305.598 32.5542 305.608 32.6186 305.618 32.6894C305.633 32.7537 305.642 32.8181 305.648 32.8825C305.658 32.9469 305.663 32.9952 305.663 33.0275C305.664 33.1371 305.634 33.2439 305.572 33.3478C305.514 33.4452 305.431 33.4946 305.322 33.4959C305.268 33.4965 305.186 33.4943 305.077 33.4891C304.973 33.4775 304.859 33.4659 304.737 33.4545C304.619 33.4365 304.505 33.425 304.397 33.4198C304.292 33.4082 304.217 33.4026 304.172 33.4031C304.041 33.4047 303.926 33.4512 303.827 33.5427C303.733 33.6276 303.687 33.7443 303.688 33.8926C303.69 34.0022 303.727 34.1018 303.801 34.1912C303.874 34.2742 303.963 34.3408 304.068 34.3912L304.075 34.3911C304.197 34.3509 304.31 34.3206 304.414 34.3C304.518 34.2794 304.608 34.2687 304.685 34.2677C304.867 34.2656 305.037 34.3055 305.197 34.3874C305.361 34.4629 305.502 34.5708 305.622 34.7113C305.741 34.8518 305.836 35.0184 305.906 35.211C305.981 35.4036 306.02 35.6095 306.023 35.8288C306.024 35.99 306.004 36.1418 305.96 36.2842C305.916 36.4202 305.854 36.5403 305.774 36.6444C305.698 36.7485 305.609 36.8334 305.505 36.8991C305.406 36.9584 305.3 36.9887 305.187 36.99C304.983 36.9924 304.805 36.9333 304.654 36.8125C304.508 36.6917 304.402 36.5188 304.336 36.2939C304.757 36.2889 305.08 36.2141 305.305 36.0695C305.534 35.9184 305.647 35.6978 305.644 35.4076C305.642 35.2722 305.602 35.1566 305.524 35.0608C305.446 34.9649 305.35 34.9177 305.237 34.9191C305.006 34.9218 304.782 34.9632 304.565 35.0431C304.349 35.1167 304.155 35.2222 303.985 35.3596C303.818 35.4906 303.684 35.6438 303.582 35.8191C303.485 35.988 303.437 36.1691 303.439 36.3626C303.441 36.5432 303.482 36.7104 303.561 36.8642C303.644 37.018 303.752 37.149 303.885 37.257C304.022 37.3715 304.177 37.4599 304.35 37.5224C304.528 37.5848 304.712 37.6148 304.902 37.6126C304.938 37.6121 304.997 37.5985 305.078 37.5718C305.159 37.5515 305.245 37.5246 305.335 37.4913C305.43 37.4644 305.521 37.4375 305.606 37.4107C305.697 37.3903 305.767 37.3798 305.817 37.3792C305.894 37.3783 305.955 37.4065 306.001 37.464C306.052 37.5279 306.078 37.5986 306.079 37.676C306.081 37.8501 306.028 37.9862 305.92 38.0842C305.813 38.1887 305.689 38.2417 305.548 38.2434C305.204 38.2475 304.875 38.1901 304.561 38.0713C304.251 37.9589 303.977 37.8009 303.739 37.5974C303.506 37.4002 303.317 37.167 303.174 36.8978C303.034 36.6222 302.963 36.3295 302.959 36.02Z" fill="#2D2A3A"/>
<path d="M305.216 29.6273C305.189 29.6277 305.152 29.5991 305.106 29.5416C305.06 29.4841 305.017 29.4169 304.975 29.34C304.929 29.2631 304.889 29.1862 304.857 29.1092C304.824 29.0257 304.807 28.9647 304.807 28.926C304.806 28.8873 304.822 28.8323 304.852 28.7609C304.883 28.6832 304.921 28.6086 304.965 28.5371C305.01 28.4592 305.054 28.3941 305.099 28.342C305.144 28.2834 305.177 28.254 305.2 28.2537C305.218 28.2535 305.252 28.2821 305.303 28.3396C305.353 28.3906 305.404 28.4545 305.455 28.5313C305.501 28.6017 305.545 28.6753 305.586 28.7522C305.624 28.8227 305.642 28.8773 305.643 28.916C305.643 28.9547 305.626 29.013 305.59 29.0908C305.555 29.1686 305.513 29.2497 305.464 29.3341C305.415 29.4121 305.369 29.4804 305.324 29.539C305.275 29.5976 305.239 29.6271 305.216 29.6273Z" fill="#2D2A3A"/>
<path d="M300.879 37.0122C300.878 36.9606 300.894 36.9249 300.925 36.9052C300.957 36.8791 300.99 36.8658 301.027 36.8653C301.085 36.8646 301.137 36.8382 301.182 36.7861C301.227 36.7275 301.264 36.6497 301.295 36.5525C301.325 36.4554 301.347 36.3455 301.359 36.2229C301.375 36.0937 301.383 35.9581 301.381 35.8163L301.337 32.0824L300.467 32.0928L300.459 31.4737L301.323 31.4634C301.185 31.3167 301.076 31.1245 300.996 30.8868C300.921 30.6426 300.882 30.3883 300.878 30.1239C300.876 29.8853 300.9 29.6625 300.952 29.4555C301.009 29.2485 301.086 29.0702 301.184 28.9207C301.286 28.7647 301.409 28.6439 301.553 28.5583C301.697 28.4663 301.857 28.4192 302.034 28.4171C302.297 28.414 302.572 28.4785 302.859 28.6105C303.15 28.7425 303.42 28.9134 303.667 29.1233C303.914 29.3268 304.128 29.5564 304.307 29.8123C304.487 30.0617 304.603 30.3054 304.656 30.5434C304.657 30.6272 304.651 30.6918 304.638 30.7371C304.625 30.776 304.611 30.8019 304.598 30.815C304.562 30.8154 304.521 30.7869 304.475 30.7294C304.429 30.6654 304.38 30.5854 304.329 30.4892C304.025 30.0543 303.686 29.7262 303.311 29.5049C302.942 29.2835 302.576 29.175 302.213 29.1793C302.091 29.1808 301.978 29.2015 301.874 29.2414C301.77 29.2749 301.68 29.334 301.604 29.4187C301.528 29.5035 301.468 29.6171 301.425 29.7595C301.386 29.8954 301.367 30.0633 301.37 30.2632C301.371 30.3664 301.381 30.4824 301.401 30.6111C301.425 30.7398 301.456 30.8652 301.494 30.9873C301.536 31.1029 301.585 31.2055 301.64 31.2952C301.696 31.3848 301.755 31.4389 301.819 31.4575L302.573 31.4485L302.581 32.0676L302.064 32.0738C302.001 32.0745 301.945 32.1494 301.897 32.2983C301.849 32.4407 301.826 32.6184 301.828 32.8312L301.871 36.4393C301.873 36.6005 301.859 36.7522 301.829 36.8945C301.803 37.0302 301.769 37.15 301.725 37.2537C301.681 37.3638 301.627 37.4483 301.564 37.5071C301.506 37.5723 301.448 37.6053 301.389 37.606C301.357 37.6063 301.312 37.5843 301.252 37.5399C301.197 37.4954 301.142 37.4412 301.087 37.3774C301.032 37.32 300.984 37.256 300.942 37.1856C300.9 37.1216 300.879 37.0638 300.879 37.0122Z" stroke="#2D2A3A" stroke-width="0.121393" mask="url(#path-13-outside-1_616_30272)"/>
<path d="M302.959 36.02C302.957 35.8717 302.978 35.7263 303.022 35.5839C303.066 35.4415 303.128 35.3085 303.208 35.185C303.288 35.0551 303.381 34.9379 303.489 34.8334C303.596 34.7289 303.711 34.6405 303.832 34.5681C303.741 34.5305 303.652 34.4735 303.565 34.3972C303.483 34.3207 303.409 34.2345 303.345 34.1386C303.28 34.0361 303.229 33.9303 303.191 33.8211C303.154 33.7055 303.134 33.5896 303.133 33.4735C303.132 33.3639 303.151 33.2605 303.19 33.1633C303.235 33.066 303.292 32.9815 303.364 32.9097C303.436 32.8314 303.521 32.7724 303.62 32.7325C303.719 32.6862 303.826 32.6623 303.939 32.661C303.989 32.6604 304.059 32.6692 304.15 32.6875C304.241 32.6993 304.334 32.7143 304.429 32.7325C304.529 32.7443 304.622 32.7593 304.708 32.7776C304.795 32.7895 304.858 32.7952 304.899 32.7947C304.962 32.7939 305.007 32.7708 305.034 32.7253C305.065 32.6734 305.085 32.6119 305.093 32.5408C305.106 32.4633 305.112 32.3794 305.11 32.2891C305.109 32.1988 305.108 32.115 305.107 32.0376L302.409 32.0697L302.402 31.4506L305.08 31.4187C305.078 31.2898 305.095 31.1767 305.13 31.0795C305.165 30.9759 305.21 30.9238 305.264 30.9231C305.305 30.9227 305.362 30.9704 305.436 31.0662C305.514 31.162 305.579 31.2774 305.63 31.4122L306.473 31.4022L306.48 32.0213L305.638 32.0313C305.61 32.0316 305.593 32.0641 305.584 32.1287C305.581 32.1868 305.579 32.2609 305.58 32.3512C305.581 32.3835 305.583 32.4318 305.589 32.4962C305.598 32.5542 305.608 32.6186 305.618 32.6894C305.633 32.7537 305.642 32.8181 305.648 32.8825C305.658 32.9469 305.663 32.9952 305.663 33.0275C305.664 33.1371 305.634 33.2439 305.572 33.3478C305.514 33.4452 305.431 33.4946 305.322 33.4959C305.268 33.4965 305.186 33.4943 305.077 33.4891C304.973 33.4775 304.859 33.4659 304.737 33.4545C304.619 33.4365 304.505 33.425 304.397 33.4198C304.292 33.4082 304.217 33.4026 304.172 33.4031C304.041 33.4047 303.926 33.4512 303.827 33.5427C303.733 33.6276 303.687 33.7443 303.688 33.8926C303.69 34.0022 303.727 34.1018 303.801 34.1912C303.874 34.2742 303.963 34.3408 304.068 34.3912L304.075 34.3911C304.197 34.3509 304.31 34.3206 304.414 34.3C304.518 34.2794 304.608 34.2687 304.685 34.2677C304.867 34.2656 305.037 34.3055 305.197 34.3874C305.361 34.4629 305.502 34.5708 305.622 34.7113C305.741 34.8518 305.836 35.0184 305.906 35.211C305.981 35.4036 306.02 35.6095 306.023 35.8288C306.024 35.99 306.004 36.1418 305.96 36.2842C305.916 36.4202 305.854 36.5403 305.774 36.6444C305.698 36.7485 305.609 36.8334 305.505 36.8991C305.406 36.9584 305.3 36.9887 305.187 36.99C304.983 36.9924 304.805 36.9333 304.654 36.8125C304.508 36.6917 304.402 36.5188 304.336 36.2939C304.757 36.2889 305.08 36.2141 305.305 36.0695C305.534 35.9184 305.647 35.6978 305.644 35.4076C305.642 35.2722 305.602 35.1566 305.524 35.0608C305.446 34.9649 305.35 34.9177 305.237 34.9191C305.006 34.9218 304.782 34.9632 304.565 35.0431C304.349 35.1167 304.155 35.2222 303.985 35.3596C303.818 35.4906 303.684 35.6438 303.582 35.8191C303.485 35.988 303.437 36.1691 303.439 36.3626C303.441 36.5432 303.482 36.7104 303.561 36.8642C303.644 37.018 303.752 37.149 303.885 37.257C304.022 37.3715 304.177 37.4599 304.35 37.5224C304.528 37.5848 304.712 37.6148 304.902 37.6126C304.938 37.6121 304.997 37.5985 305.078 37.5718C305.159 37.5515 305.245 37.5246 305.335 37.4913C305.43 37.4644 305.521 37.4375 305.606 37.4107C305.697 37.3903 305.767 37.3798 305.817 37.3792C305.894 37.3783 305.955 37.4065 306.001 37.464C306.052 37.5279 306.078 37.5986 306.079 37.676C306.081 37.8501 306.028 37.9862 305.92 38.0842C305.813 38.1887 305.689 38.2417 305.548 38.2434C305.204 38.2475 304.875 38.1901 304.561 38.0713C304.251 37.9589 303.977 37.8009 303.739 37.5974C303.506 37.4002 303.317 37.167 303.174 36.8978C303.034 36.6222 302.963 36.3295 302.959 36.02Z" stroke="#2D2A3A" stroke-width="0.121393" mask="url(#path-13-outside-1_616_30272)"/>
<path d="M305.216 29.6273C305.189 29.6277 305.152 29.5991 305.106 29.5416C305.06 29.4841 305.017 29.4169 304.975 29.34C304.929 29.2631 304.889 29.1862 304.857 29.1092C304.824 29.0257 304.807 28.9647 304.807 28.926C304.806 28.8873 304.822 28.8323 304.852 28.7609C304.883 28.6832 304.921 28.6086 304.965 28.5371C305.01 28.4592 305.054 28.3941 305.099 28.342C305.144 28.2834 305.177 28.254 305.2 28.2537C305.218 28.2535 305.252 28.2821 305.303 28.3396C305.353 28.3906 305.404 28.4545 305.455 28.5313C305.501 28.6017 305.545 28.6753 305.586 28.7522C305.624 28.8227 305.642 28.8773 305.643 28.916C305.643 28.9547 305.626 29.013 305.59 29.0908C305.555 29.1686 305.513 29.2497 305.464 29.3341C305.415 29.4121 305.369 29.4804 305.324 29.539C305.275 29.5976 305.239 29.6271 305.216 29.6273Z" stroke="#2D2A3A" stroke-width="0.121393" mask="url(#path-13-outside-1_616_30272)"/>
<path d="M357.5 32H372M354 26H372M365.5 38H372" stroke="#2D2A3A" stroke-width="2" stroke-linecap="round" stroke-linejoin="round"/>
<defs>
<clipPath id="clip0_616_30272">
<rect width="33" height="31.5" fill="white" transform="translate(22.5 16.25)"/>
</clipPath>
</defs>
</svg>
