<svg width="30" height="20" viewBox="0 0 30 20" fill="none" xmlns="http://www.w3.org/2000/svg">
<g clip-path="url(#clip0_616_22626)">
<path d="M0 0H30V20H0V0Z" fill="white"/>
<path d="M0 0H30V6.66667H0V0Z" fill="#FF6820"/>
<path d="M0 13.333H30V19.9997H0V13.333Z" fill="#046A38"/>
<path d="M14.9998 13.0837C16.7027 13.0837 18.0832 11.7032 18.0832 10.0003C18.0832 8.29745 16.7027 6.91699 14.9998 6.91699C13.297 6.91699 11.9165 8.29745 11.9165 10.0003C11.9165 11.7032 13.297 13.0837 14.9998 13.0837Z" fill="#272D74"/>
<path d="M14.9997 12.6663C16.4724 12.6663 17.6663 11.4724 17.6663 9.99967C17.6663 8.52691 16.4724 7.33301 14.9997 7.33301C13.5269 7.33301 12.333 8.52691 12.333 9.99967C12.333 11.4724 13.5269 12.6663 14.9997 12.6663Z" fill="white"/>
<path d="M14.9996 10.5335C15.2942 10.5335 15.533 10.2947 15.533 10.0001C15.533 9.70558 15.2942 9.4668 14.9996 9.4668C14.7051 9.4668 14.4663 9.70558 14.4663 10.0001C14.4663 10.2947 14.7051 10.5335 14.9996 10.5335Z" fill="#272D74"/>
<path d="M15.0004 7.33301L15.1004 8.93767L15.0004 9.73234L14.9004 8.93767L15.0004 7.33301Z" fill="#272D74"/>
<path d="M15.3333 7.47117C15.3971 7.47958 15.4557 7.43462 15.4642 7.37073C15.4726 7.30685 15.4276 7.24825 15.3637 7.23984C15.2998 7.23143 15.2412 7.2764 15.2328 7.34028C15.2244 7.40416 15.2694 7.46276 15.3333 7.47117Z" fill="#272D74"/>
<path d="M15.0006 12.666L14.9006 11.0613L15.0006 10.2667L15.1006 11.0613L15.0006 12.666Z" fill="#272D74"/>
<path d="M14.6677 12.5278C14.6038 12.5194 14.5452 12.5644 14.5368 12.6283C14.5284 12.6922 14.5734 12.7508 14.6373 12.7592C14.7011 12.7676 14.7597 12.7226 14.7682 12.6587C14.7766 12.5949 14.7316 12.5363 14.6677 12.5278Z" fill="#272D74"/>
<path d="M15.6908 7.42334L15.3721 8.99921L15.0698 9.74092L15.1789 8.94745L15.6908 7.42334Z" fill="#272D74"/>
<path d="M15.976 7.64303C16.0355 7.66769 16.1038 7.63942 16.1284 7.57989C16.1531 7.52036 16.1248 7.45212 16.0653 7.42746C16.0058 7.4028 15.9375 7.43107 15.9129 7.4906C15.8882 7.55013 15.9165 7.61837 15.976 7.64303Z" fill="#272D74"/>
<path d="M14.3106 12.5747L14.6294 10.9988L14.9316 10.2571L14.8225 11.0506L14.3106 12.5747Z" fill="#272D74"/>
<path d="M14.025 12.355C13.9654 12.3304 13.8972 12.3586 13.8725 12.4182C13.8479 12.4777 13.8761 12.5459 13.9357 12.5706C13.9952 12.5952 14.0634 12.567 14.0881 12.5074C14.1128 12.4479 14.0845 12.3797 14.025 12.355Z" fill="#272D74"/>
<path d="M16.3327 7.68965L15.617 9.12933L15.133 9.76753L15.4438 9.02933L16.3327 7.68965Z" fill="#272D74"/>
<path d="M16.5521 7.97586C16.6032 8.01509 16.6764 8.00545 16.7157 7.95433C16.7549 7.90321 16.7452 7.82997 16.6941 7.79075C16.643 7.75152 16.5698 7.76117 16.5305 7.81228C16.4913 7.8634 16.501 7.93664 16.5521 7.97586Z" fill="#272D74"/>
<path d="M13.6658 12.3094L14.3816 10.8697L14.8655 10.2315L14.5548 10.9697L13.6658 12.3094Z" fill="#272D74"/>
<path d="M13.4465 12.0232C13.3953 11.9839 13.3221 11.9936 13.2829 12.0447C13.2437 12.0958 13.2533 12.1691 13.3044 12.2083C13.3555 12.2475 13.4288 12.2379 13.468 12.1867C13.5072 12.1356 13.4976 12.0624 13.4465 12.0232Z" fill="#272D74"/>
<path d="M16.8861 8.11417L15.8222 9.31955L15.1896 9.81075L15.6808 9.17813L16.8861 8.11417Z" fill="#272D74"/>
<path d="M17.0236 8.44798C17.0628 8.4991 17.1361 8.50874 17.1872 8.46952C17.2383 8.43029 17.2479 8.35706 17.2087 8.30594C17.1695 8.25482 17.0963 8.24518 17.0451 8.2844C16.994 8.32363 16.9844 8.39686 17.0236 8.44798Z" fill="#272D74"/>
<path d="M13.1143 11.8863L14.1783 10.6809L14.8109 10.1897L14.3197 10.8224L13.1143 11.8863Z" fill="#272D74"/>
<path d="M12.9759 11.5525C12.9367 11.5014 12.8634 11.4917 12.8123 11.531C12.7612 11.5702 12.7516 11.6434 12.7908 11.6946C12.83 11.7457 12.9033 11.7553 12.9544 11.7161C13.0055 11.6769 13.0151 11.6036 12.9759 11.5525Z" fill="#272D74"/>
<path d="M17.3078 8.66668L15.9681 9.55562L15.2299 9.86635L15.8681 9.38241L17.3078 8.66668Z" fill="#272D74"/>
<path d="M17.355 9.02423C17.3796 9.08376 17.4479 9.11202 17.5074 9.08737C17.5669 9.06271 17.5952 8.99446 17.5705 8.93493C17.5459 8.87541 17.4776 8.84714 17.4181 8.87179C17.3586 8.89645 17.3303 8.9647 17.355 9.02423Z" fill="#272D74"/>
<path d="M12.6912 11.3333L14.0309 10.4444L14.7691 10.1337L14.1309 10.6176L12.6912 11.3333Z" fill="#272D74"/>
<path d="M12.6446 10.9758C12.6199 10.9162 12.5517 10.888 12.4921 10.9126C12.4326 10.9373 12.4043 11.0055 12.429 11.0651C12.4536 11.1246 12.5219 11.1529 12.5814 11.1282C12.6409 11.1035 12.6692 11.0353 12.6446 10.9758Z" fill="#272D74"/>
<path d="M17.5747 9.31046L16.0506 9.82237L15.2571 9.93145L15.9988 9.62919L17.5747 9.31046Z" fill="#272D74"/>
<path d="M17.5271 9.66761C17.5355 9.73149 17.5941 9.77646 17.658 9.76805C17.7218 9.75964 17.7668 9.70103 17.7584 9.63715C17.75 9.57327 17.6914 9.5283 17.6275 9.53671C17.5636 9.54512 17.5186 9.60373 17.5271 9.66761Z" fill="#272D74"/>
<path d="M12.4233 10.6895L13.9474 10.1776L14.7409 10.0685L13.9992 10.3708L12.4233 10.6895Z" fill="#272D74"/>
<path d="M12.4715 10.3324C12.4631 10.2685 12.4045 10.2235 12.3406 10.232C12.2767 10.2404 12.2317 10.299 12.2401 10.3628C12.2486 10.4267 12.3072 10.4717 12.371 10.4633C12.4349 10.4549 12.4799 10.3963 12.4715 10.3324Z" fill="#272D74"/>
<path d="M17.6665 10.0004L16.0618 10.1004L15.2672 10.0004L16.0618 9.90039L17.6665 10.0004Z" fill="#272D74"/>
<path d="M17.5278 10.3333C17.5194 10.3971 17.5644 10.4557 17.6283 10.4642C17.6922 10.4726 17.7508 10.4276 17.7592 10.3637C17.7676 10.2998 17.7226 10.2412 17.6587 10.2328C17.5949 10.2244 17.5363 10.2694 17.5278 10.3333Z" fill="#272D74"/>
<path d="M12.333 10.0006L13.9377 9.90059L14.7323 10.0006L13.9377 10.1006L12.333 10.0006Z" fill="#272D74"/>
<path d="M12.4712 9.66772C12.4796 9.60384 12.4346 9.54523 12.3707 9.53682C12.3069 9.52841 12.2482 9.57338 12.2398 9.63726C12.2314 9.70114 12.2764 9.75975 12.3403 9.76816C12.4042 9.77657 12.4628 9.7316 12.4712 9.66772Z" fill="#272D74"/>
<path d="M17.5762 10.6903L16.0003 10.3716L15.2586 10.0693L16.0521 10.1784L17.5762 10.6903Z" fill="#272D74"/>
<path d="M17.356 10.9765C17.3313 11.036 17.3596 11.1043 17.4191 11.1289C17.4787 11.1536 17.5469 11.1253 17.5716 11.0658C17.5962 11.0063 17.568 10.938 17.5084 10.9134C17.4489 10.8887 17.3807 10.917 17.356 10.9765Z" fill="#272D74"/>
<path d="M12.4238 9.31063L13.9997 9.62936L14.7414 9.93163L13.9479 9.82254L12.4238 9.31063Z" fill="#272D74"/>
<path d="M12.644 9.02448C12.6687 8.96495 12.6404 8.8967 12.5809 8.87204C12.5213 8.84739 12.4531 8.87565 12.4284 8.93518C12.4038 8.99471 12.432 9.06296 12.4916 9.08762C12.5511 9.11227 12.6193 9.084 12.644 9.02448Z" fill="#272D74"/>
<path d="M17.3099 11.3342L15.8702 10.6184L15.232 10.1345L15.9702 10.4452L17.3099 11.3342Z" fill="#272D74"/>
<path d="M17.0236 11.5535C16.9844 11.6047 16.9941 11.6779 17.0452 11.7171C17.0963 11.7563 17.1695 11.7467 17.2088 11.6956C17.248 11.6445 17.2383 11.5712 17.1872 11.532C17.1361 11.4928 17.0629 11.5024 17.0236 11.5535Z" fill="#272D74"/>
<path d="M12.6911 8.66779L14.1308 9.38352L14.769 9.86746L14.0308 9.55673L12.6911 8.66779Z" fill="#272D74"/>
<path d="M12.9773 8.44939C13.0166 8.39827 13.0069 8.32503 12.9558 8.28581C12.9047 8.24658 12.8314 8.25623 12.7922 8.30734C12.753 8.35846 12.7626 8.4317 12.8137 8.47092C12.8649 8.51015 12.9381 8.50051 12.9773 8.44939Z" fill="#272D74"/>
<path d="M16.8863 11.8861L15.6809 10.8222L15.1897 10.1896L15.8224 10.6808L16.8863 11.8861Z" fill="#272D74"/>
<path d="M16.5525 12.0236C16.5014 12.0628 16.4917 12.1361 16.531 12.1872C16.5702 12.2383 16.6434 12.2479 16.6946 12.2087C16.7457 12.1695 16.7553 12.0963 16.7161 12.0451C16.6769 11.994 16.6036 11.9844 16.5525 12.0236Z" fill="#272D74"/>
<path d="M13.1142 8.11484L14.3195 9.1788L14.8108 9.81142L14.1781 9.32022L13.1142 8.11484Z" fill="#272D74"/>
<path d="M13.448 7.97737C13.4991 7.93815 13.5087 7.86491 13.4695 7.81379C13.4303 7.76268 13.3571 7.75303 13.3059 7.79226C13.2548 7.83148 13.2452 7.90472 13.2844 7.95584C13.3236 8.00696 13.3969 8.0166 13.448 7.97737Z" fill="#272D74"/>
<path d="M16.3338 12.3103L15.4449 10.9706L15.1341 10.2324L15.6181 10.8706L16.3338 12.3103Z" fill="#272D74"/>
<path d="M15.9763 12.3569C15.9167 12.3816 15.8885 12.4498 15.9131 12.5093C15.9378 12.5689 16.006 12.5971 16.0656 12.5725C16.1251 12.5478 16.1534 12.4796 16.1287 12.42C16.104 12.3605 16.0358 12.3322 15.9763 12.3569Z" fill="#272D74"/>
<path d="M13.6662 7.6917L14.5551 9.03138L14.8659 9.76958L14.3819 9.13138L13.6662 7.6917Z" fill="#272D74"/>
<path d="M14.0237 7.64505C14.0833 7.62039 14.1115 7.55214 14.0869 7.49261C14.0622 7.43309 13.994 7.40482 13.9344 7.42947C13.8749 7.45413 13.8466 7.52238 13.8713 7.58191C13.896 7.64144 13.9642 7.6697 14.0237 7.64505Z" fill="#272D74"/>
<path d="M15.6886 12.5762L15.1767 11.0521L15.0676 10.2586L15.3698 11.0003L15.6886 12.5762Z" fill="#272D74"/>
<path d="M15.3309 12.5285C15.267 12.5369 15.2221 12.5955 15.2305 12.6594C15.2389 12.7233 15.2975 12.7683 15.3614 12.7599C15.4253 12.7514 15.4702 12.6928 15.4618 12.629C15.4534 12.5651 15.3948 12.5201 15.3309 12.5285Z" fill="#272D74"/>
<path d="M14.3075 7.4248L14.8194 8.94891L14.9285 9.74238L14.6263 9.00067L14.3075 7.4248Z" fill="#272D74"/>
<path d="M14.6647 7.47246C14.7286 7.46405 14.7735 7.40544 14.7651 7.34156C14.7567 7.27768 14.6981 7.23271 14.6342 7.24112C14.5703 7.24953 14.5254 7.30813 14.5338 7.37202C14.5422 7.4359 14.6008 7.48087 14.6647 7.47246Z" fill="#272D74"/>
</g>
<defs>
<clipPath id="clip0_616_22626">
<rect width="30" height="20" fill="white"/>
</clipPath>
</defs>
</svg>
