<svg width="44" height="44" viewBox="0 0 44 44" fill="none" xmlns="http://www.w3.org/2000/svg">
<path d="M22.002 28.1117C23.3464 28.1117 24.4973 27.6329 25.4547 26.6755C26.4121 25.7181 26.8908 24.5672 26.8908 23.2228H17.1131C17.1131 24.5672 17.5918 25.7181 18.5492 26.6755C19.5066 27.6329 20.6575 28.1117 22.002 28.1117ZM15.8908 18.3339H20.7797C20.7797 17.6617 20.5404 17.0862 20.0617 16.6075C19.583 16.1288 19.0075 15.8894 18.3353 15.8894C17.6631 15.8894 17.0876 16.1288 16.6089 16.6075C16.1302 17.0862 15.8908 17.6617 15.8908 18.3339ZM23.2242 18.3339H28.1131C28.1131 17.6617 27.8737 17.0862 27.395 16.6075C26.9163 16.1288 26.3408 15.8894 25.6686 15.8894C24.9964 15.8894 24.4209 16.1288 23.9422 16.6075C23.4635 17.0862 23.2242 17.6617 23.2242 18.3339ZM22.002 34.2228C20.4742 34.2228 19.0432 33.9325 17.7089 33.3519C16.3746 32.7714 15.2135 31.9871 14.2256 30.9992C13.2376 30.0112 12.4533 28.8501 11.8728 27.5158C11.2922 26.1816 11.002 24.7505 11.002 23.2228V9.77832H33.002V23.2228C33.002 24.7505 32.7117 26.1816 32.1311 27.5158C31.5506 28.8501 30.7663 30.0112 29.7783 30.9992C28.7904 31.9871 27.6293 32.7714 26.295 33.3519C24.9607 33.9325 23.5297 34.2228 22.002 34.2228ZM22.002 31.7783C24.3649 31.7783 26.3816 30.9431 28.052 29.2728C29.7223 27.6024 30.5575 25.5857 30.5575 23.2228V12.2228H13.4464V23.2228C13.4464 25.5857 14.2816 27.6024 15.952 29.2728C17.6223 30.9431 19.639 31.7783 22.002 31.7783Z" fill="white"/>
</svg>
