<svg width="30" height="30" viewBox="0 0 30 30" fill="none" xmlns="http://www.w3.org/2000/svg">
<path d="M7.33261 10.3888C7.33261 8.28178 8.16961 6.26108 9.65948 4.77121C11.1494 3.28134 13.1701 2.44434 15.2771 2.44434C17.3841 2.44434 19.4048 3.28134 20.8946 4.77121C22.3845 6.26108 23.2215 8.28178 23.2215 10.3888C23.2215 13.4443 20.7771 15.2777 19.5548 16.4999C18.3326 17.7221 17.1104 18.9443 17.1104 20.1666C17.1104 20.9769 16.7885 21.7541 16.2154 22.3272C15.6424 22.9002 14.8652 23.2221 14.0548 23.2221C13.2444 23.2221 12.4673 22.9002 11.8942 22.3272C11.3212 21.7541 10.9993 20.9769 10.9993 20.1666C9.96858 19.9709 9.00563 19.5131 8.20311 18.8374C7.40059 18.1617 6.78554 17.2908 6.41718 16.3085C6.04881 15.3261 5.93953 14.2655 6.09986 13.2288C6.26019 12.192 6.68473 11.2139 7.33261 10.3888Z" stroke="white" stroke-width="2.44444" stroke-linecap="round" stroke-linejoin="round"/>
</svg>
