<svg width="30" height="30" viewBox="0 0 30 30" fill="none" xmlns="http://www.w3.org/2000/svg">
<path d="M25.666 14.0559C25.6702 15.6691 25.2933 17.2604 24.566 18.7004C23.7037 20.4258 22.3779 21.8771 20.7373 22.8917C19.0968 23.9063 17.2061 24.4441 15.2771 24.4448C13.664 24.449 12.0726 24.0721 10.6327 23.3448L3.66602 25.667L5.98824 18.7004C5.26093 17.2604 4.88403 15.6691 4.88824 14.0559C4.88898 12.127 5.42676 10.2363 6.44134 8.5957C7.45591 6.95511 8.90722 5.62939 10.6327 4.76703C12.0726 4.03972 13.664 3.66282 15.2771 3.66703H15.8882C18.4358 3.80757 20.842 4.88285 22.6461 6.68697C24.4502 8.49109 25.5255 10.8973 25.666 13.4448V14.0559Z" stroke="white" stroke-width="2.44444" stroke-linecap="round" stroke-linejoin="round"/>
</svg>
