<svg width="16" height="16" viewBox="0 0 16 16" fill="none" xmlns="http://www.w3.org/2000/svg">
<mask id="mask0_770_1795" style="mask-type:alpha" maskUnits="userSpaceOnUse" x="0" y="0" width="16" height="16">
<rect width="16" height="16" fill="#D9D9D9"/>
</mask>
<g mask="url(#mask0_770_1795)">
<path d="M5.99992 10.0002H7.33325V6.00016H5.99992V10.0002ZM8.66658 10.0002H9.99992V6.00016H8.66658V10.0002ZM5.39992 14.1418C4.58881 13.7918 3.88325 13.3168 3.28325 12.7168C2.68325 12.1168 2.20825 11.4113 1.85825 10.6002C1.50825 9.78905 1.33325 8.92238 1.33325 8.00016C1.33325 7.52238 1.38325 7.05294 1.48325 6.59183C1.58325 6.13072 1.7277 5.6835 1.91659 5.25016L2.94992 6.2835C2.86103 6.57238 2.79159 6.8585 2.74159 7.14183C2.69159 7.42516 2.66659 7.71127 2.66659 8.00016C2.66659 9.48905 3.18325 10.7502 4.21659 11.7835C5.24992 12.8168 6.51103 13.3335 7.99992 13.3335C9.48881 13.3335 10.7499 12.8168 11.7833 11.7835C12.8166 10.7502 13.3333 9.48905 13.3333 8.00016C13.3333 6.51127 12.8166 5.25016 11.7833 4.21683C10.7499 3.1835 9.48881 2.66683 7.99992 2.66683C7.69992 2.66683 7.40825 2.69183 7.12492 2.74183C6.84159 2.79183 6.56103 2.86127 6.28325 2.95016L5.26659 1.9335C5.71103 1.7335 6.15547 1.5835 6.59992 1.4835C7.04436 1.3835 7.51103 1.3335 7.99992 1.3335C8.92214 1.3335 9.78881 1.5085 10.5999 1.8585C11.411 2.2085 12.1166 2.6835 12.7166 3.2835C13.3166 3.8835 13.7916 4.58905 14.1416 5.40016C14.4916 6.21127 14.6666 7.07794 14.6666 8.00016C14.6666 8.92238 14.4916 9.78905 14.1416 10.6002C13.7916 11.4113 13.3166 12.1168 12.7166 12.7168C12.1166 13.3168 11.411 13.7918 10.5999 14.1418C9.78881 14.4918 8.92214 14.6668 7.99992 14.6668C7.0777 14.6668 6.21103 14.4918 5.39992 14.1418ZM2.95825 4.37516C2.76381 4.18072 2.66659 3.94461 2.66659 3.66683C2.66659 3.38905 2.76381 3.15294 2.95825 2.9585C3.1527 2.76405 3.38881 2.66683 3.66659 2.66683C3.94436 2.66683 4.18047 2.76405 4.37492 2.9585C4.56936 3.15294 4.66658 3.38905 4.66658 3.66683C4.66658 3.94461 4.56936 4.18072 4.37492 4.37516C4.18047 4.56961 3.94436 4.66683 3.66659 4.66683C3.38881 4.66683 3.1527 4.56961 2.95825 4.37516ZM5.16658 5.16683C5.94436 4.38905 6.88881 4.00016 7.99992 4.00016C9.11103 4.00016 10.0555 4.38905 10.8333 5.16683C11.611 5.94461 11.9999 6.88905 11.9999 8.00016C11.9999 9.11127 11.611 10.0557 10.8333 10.8335C10.0555 11.6113 9.11103 12.0002 7.99992 12.0002C6.88881 12.0002 5.94436 11.6113 5.16658 10.8335C4.38881 10.0557 3.99992 9.11127 3.99992 8.00016C3.99992 6.88905 4.38881 5.94461 5.16658 5.16683Z" fill="#6B7180"/>
</g>
</svg>
