<svg width="342" height="54" viewBox="0 0 342 54" fill="none" xmlns="http://www.w3.org/2000/svg">
<rect width="342" height="54" rx="27" fill="#535BD8"/>
<path d="M128.692 24.9375H126.204C126.158 24.6155 126.066 24.3295 125.925 24.0795C125.785 23.8258 125.605 23.6098 125.386 23.4318C125.166 23.2538 124.912 23.1174 124.624 23.0227C124.34 22.928 124.031 22.8807 123.698 22.8807C123.096 22.8807 122.571 23.0303 122.124 23.3295C121.677 23.625 121.331 24.0568 121.085 24.625C120.838 25.1894 120.715 25.875 120.715 26.6818C120.715 27.5114 120.838 28.2083 121.085 28.7727C121.335 29.3371 121.683 29.7633 122.13 30.0511C122.577 30.339 123.094 30.483 123.681 30.483C124.011 30.483 124.316 30.4394 124.596 30.3523C124.88 30.2652 125.132 30.1383 125.352 29.9716C125.571 29.8011 125.753 29.5947 125.897 29.3523C126.045 29.1098 126.147 28.8333 126.204 28.5227L128.692 28.5341C128.628 29.0682 128.467 29.5833 128.21 30.0795C127.956 30.572 127.613 31.0133 127.181 31.4034C126.753 31.7898 126.242 32.0966 125.647 32.3239C125.056 32.5473 124.388 32.6591 123.641 32.6591C122.603 32.6591 121.675 32.4242 120.857 31.9545C120.043 31.4848 119.399 30.8049 118.925 29.9148C118.456 29.0246 118.221 27.947 118.221 26.6818C118.221 25.4129 118.46 24.3333 118.937 23.4432C119.414 22.553 120.062 21.875 120.88 21.4091C121.698 20.9394 122.619 20.7045 123.641 20.7045C124.316 20.7045 124.941 20.7992 125.516 20.9886C126.096 21.178 126.609 21.4545 127.056 21.8182C127.503 22.178 127.867 22.6193 128.147 23.142C128.431 23.6648 128.613 24.2633 128.692 24.9375ZM130.411 32.5V23.7727H132.758V25.2955H132.849C133.008 24.7538 133.275 24.3447 133.65 24.0682C134.025 23.7879 134.457 23.6477 134.945 23.6477C135.067 23.6477 135.197 23.6553 135.337 23.6705C135.478 23.6856 135.601 23.7064 135.707 23.733V25.8807C135.593 25.8466 135.436 25.8163 135.235 25.7898C135.034 25.7633 134.851 25.75 134.684 25.75C134.328 25.75 134.01 25.8277 133.729 25.983C133.453 26.1345 133.233 26.3466 133.07 26.6193C132.911 26.892 132.832 27.2064 132.832 27.5625V32.5H130.411ZM140.529 32.6705C139.631 32.6705 138.859 32.4886 138.211 32.125C137.567 31.7576 137.071 31.2386 136.722 30.5682C136.374 29.8939 136.2 29.0966 136.2 28.1761C136.2 27.2784 136.374 26.4905 136.722 25.8125C137.071 25.1345 137.561 24.6061 138.194 24.2273C138.83 23.8485 139.576 23.6591 140.433 23.6591C141.008 23.6591 141.544 23.7519 142.04 23.9375C142.54 24.1193 142.976 24.3939 143.347 24.7614C143.722 25.1288 144.014 25.5909 144.222 26.1477C144.431 26.7008 144.535 27.3485 144.535 28.0909V28.7557H137.165V27.2557H142.256C142.256 26.9072 142.181 26.5985 142.029 26.3295C141.878 26.0606 141.667 25.8504 141.398 25.6989C141.133 25.5436 140.825 25.4659 140.472 25.4659C140.105 25.4659 139.779 25.5511 139.495 25.7216C139.215 25.8883 138.995 26.1136 138.836 26.3977C138.677 26.678 138.595 26.9905 138.592 27.3352V28.7614C138.592 29.1932 138.671 29.5663 138.83 29.8807C138.993 30.1951 139.222 30.4375 139.518 30.608C139.813 30.7784 140.164 30.8636 140.569 30.8636C140.838 30.8636 141.084 30.8258 141.308 30.75C141.531 30.6742 141.722 30.5606 141.881 30.4091C142.04 30.2576 142.162 30.072 142.245 29.8523L144.484 30C144.37 30.5379 144.137 31.0076 143.785 31.4091C143.436 31.8068 142.986 32.1174 142.433 32.3409C141.883 32.5606 141.249 32.6705 140.529 32.6705ZM148.603 32.6648C148.046 32.6648 147.55 32.5682 147.114 32.375C146.679 32.178 146.334 31.8883 146.08 31.5057C145.83 31.1193 145.705 30.6383 145.705 30.0625C145.705 29.5777 145.794 29.1705 145.972 28.8409C146.15 28.5114 146.393 28.2462 146.7 28.0455C147.006 27.8447 147.355 27.6932 147.745 27.5909C148.139 27.4886 148.552 27.4167 148.984 27.375C149.491 27.322 149.9 27.2727 150.211 27.2273C150.522 27.178 150.747 27.1061 150.887 27.0114C151.027 26.9167 151.097 26.7765 151.097 26.5909V26.5568C151.097 26.197 150.984 25.9186 150.756 25.7216C150.533 25.5246 150.215 25.4261 149.802 25.4261C149.366 25.4261 149.02 25.5227 148.762 25.7159C148.504 25.9053 148.334 26.1439 148.251 26.4318L146.012 26.25C146.126 25.7197 146.349 25.2614 146.683 24.875C147.016 24.4848 147.446 24.1856 147.972 23.9773C148.503 23.7652 149.116 23.6591 149.813 23.6591C150.298 23.6591 150.762 23.7159 151.205 23.8295C151.652 23.9432 152.048 24.1193 152.393 24.358C152.741 24.5966 153.016 24.9034 153.217 25.2784C153.417 25.6496 153.518 26.0947 153.518 26.6136V32.5H151.222V31.2898H151.154C151.014 31.5625 150.826 31.803 150.592 32.0114C150.357 32.2159 150.075 32.3769 149.745 32.4943C149.415 32.608 149.035 32.6648 148.603 32.6648ZM149.296 30.9943C149.652 30.9943 149.967 30.9242 150.239 30.7841C150.512 30.6402 150.726 30.447 150.881 30.2045C151.037 29.9621 151.114 29.6875 151.114 29.3807V28.4545C151.039 28.5038 150.934 28.5492 150.802 28.5909C150.673 28.6288 150.527 28.6648 150.364 28.6989C150.201 28.7292 150.039 28.7576 149.876 28.7841C149.713 28.8068 149.565 28.8277 149.433 28.8466C149.148 28.8883 148.9 28.9545 148.688 29.0455C148.476 29.1364 148.311 29.2595 148.194 29.4148C148.076 29.5663 148.018 29.7557 148.018 29.983C148.018 30.3125 148.137 30.5644 148.376 30.7386C148.618 30.9091 148.925 30.9943 149.296 30.9943ZM160.038 23.7727V25.5909H154.782V23.7727H160.038ZM155.975 21.6818H158.396V29.8182C158.396 30.0417 158.43 30.2159 158.498 30.3409C158.566 30.4621 158.661 30.5473 158.782 30.5966C158.907 30.6458 159.051 30.6705 159.214 30.6705C159.327 30.6705 159.441 30.661 159.555 30.642C159.668 30.6193 159.755 30.6023 159.816 30.5909L160.197 32.392C160.076 32.4299 159.905 32.4735 159.685 32.5227C159.466 32.5758 159.199 32.608 158.884 32.6193C158.301 32.642 157.79 32.5644 157.35 32.3864C156.915 32.2083 156.576 31.9318 156.333 31.5568C156.091 31.1818 155.971 30.7083 155.975 30.1364V21.6818ZM165.498 32.6705C164.6 32.6705 163.827 32.4886 163.18 32.125C162.536 31.7576 162.04 31.2386 161.691 30.5682C161.343 29.8939 161.168 29.0966 161.168 28.1761C161.168 27.2784 161.343 26.4905 161.691 25.8125C162.04 25.1345 162.53 24.6061 163.163 24.2273C163.799 23.8485 164.545 23.6591 165.401 23.6591C165.977 23.6591 166.513 23.7519 167.009 23.9375C167.509 24.1193 167.945 24.3939 168.316 24.7614C168.691 25.1288 168.983 25.5909 169.191 26.1477C169.399 26.7008 169.504 27.3485 169.504 28.0909V28.7557H162.134V27.2557H167.225C167.225 26.9072 167.149 26.5985 166.998 26.3295C166.846 26.0606 166.636 25.8504 166.367 25.6989C166.102 25.5436 165.793 25.4659 165.441 25.4659C165.074 25.4659 164.748 25.5511 164.464 25.7216C164.183 25.8883 163.964 26.1136 163.805 26.3977C163.646 26.678 163.564 26.9905 163.56 27.3352V28.7614C163.56 29.1932 163.64 29.5663 163.799 29.8807C163.962 30.1951 164.191 30.4375 164.487 30.608C164.782 30.7784 165.132 30.8636 165.538 30.8636C165.807 30.8636 166.053 30.8258 166.276 30.75C166.5 30.6742 166.691 30.5606 166.85 30.4091C167.009 30.2576 167.13 30.072 167.214 29.8523L169.452 30C169.339 30.5379 169.106 31.0076 168.754 31.4091C168.405 31.8068 167.954 32.1174 167.401 32.3409C166.852 32.5606 166.218 32.6705 165.498 32.6705ZM174.832 32.5V20.8636H179.423C180.305 20.8636 181.057 21.0322 181.678 21.3693C182.299 21.7027 182.773 22.1667 183.099 22.7614C183.428 23.3523 183.593 24.0341 183.593 24.8068C183.593 25.5795 183.426 26.2614 183.093 26.8523C182.76 27.4432 182.277 27.9034 181.644 28.233C181.015 28.5625 180.254 28.7273 179.36 28.7273H176.434V26.7557H178.962C179.436 26.7557 179.826 26.6742 180.133 26.5114C180.443 26.3447 180.674 26.1155 180.826 25.8239C180.981 25.5284 181.059 25.1894 181.059 24.8068C181.059 24.4205 180.981 24.0833 180.826 23.7955C180.674 23.5038 180.443 23.2784 180.133 23.1193C179.822 22.9564 179.428 22.875 178.951 22.875H177.292V32.5H174.832ZM185.146 32.5V23.7727H187.492V25.2955H187.583C187.742 24.7538 188.009 24.3447 188.384 24.0682C188.759 23.7879 189.191 23.6477 189.68 23.6477C189.801 23.6477 189.932 23.6553 190.072 23.6705C190.212 23.6856 190.335 23.7064 190.441 23.733V25.8807C190.327 25.8466 190.17 25.8163 189.969 25.7898C189.769 25.7633 189.585 25.75 189.418 25.75C189.062 25.75 188.744 25.8277 188.464 25.983C188.187 26.1345 187.968 26.3466 187.805 26.6193C187.646 26.892 187.566 27.2064 187.566 27.5625V32.5H185.146ZM195.229 32.6705C194.347 32.6705 193.584 32.483 192.94 32.108C192.299 31.7292 191.805 31.2027 191.457 30.5284C191.108 29.8504 190.934 29.0644 190.934 28.1705C190.934 27.2689 191.108 26.4811 191.457 25.8068C191.805 25.1288 192.299 24.6023 192.94 24.2273C193.584 23.8485 194.347 23.6591 195.229 23.6591C196.112 23.6591 196.873 23.8485 197.513 24.2273C198.157 24.6023 198.654 25.1288 199.002 25.8068C199.351 26.4811 199.525 27.2689 199.525 28.1705C199.525 29.0644 199.351 29.8504 199.002 30.5284C198.654 31.2027 198.157 31.7292 197.513 32.108C196.873 32.483 196.112 32.6705 195.229 32.6705ZM195.241 30.7955C195.642 30.7955 195.978 30.6818 196.246 30.4545C196.515 30.2235 196.718 29.9091 196.854 29.5114C196.995 29.1136 197.065 28.661 197.065 28.1534C197.065 27.6458 196.995 27.1932 196.854 26.7955C196.718 26.3977 196.515 26.0833 196.246 25.8523C195.978 25.6212 195.642 25.5057 195.241 25.5057C194.835 25.5057 194.495 25.6212 194.218 25.8523C193.945 26.0833 193.739 26.3977 193.599 26.7955C193.462 27.1932 193.394 27.6458 193.394 28.1534C193.394 28.661 193.462 29.1136 193.599 29.5114C193.739 29.9091 193.945 30.2235 194.218 30.4545C194.495 30.6818 194.835 30.7955 195.241 30.7955ZM205.792 23.7727V25.5909H200.406V23.7727H205.792ZM201.638 32.5V23.142C201.638 22.5095 201.762 21.9848 202.008 21.5682C202.258 21.1515 202.599 20.839 203.031 20.6307C203.462 20.4223 203.953 20.3182 204.502 20.3182C204.873 20.3182 205.212 20.3466 205.519 20.4034C205.83 20.4602 206.061 20.5114 206.212 20.5568L205.781 22.375C205.686 22.3447 205.568 22.3163 205.428 22.2898C205.292 22.2633 205.152 22.25 205.008 22.25C204.652 22.25 204.404 22.3333 204.263 22.5C204.123 22.6629 204.053 22.892 204.053 23.1875V32.5H201.638ZM207.271 32.5V23.7727H209.691V32.5H207.271ZM208.487 22.6477C208.127 22.6477 207.818 22.5284 207.56 22.2898C207.307 22.0473 207.18 21.7576 207.18 21.4205C207.18 21.0871 207.307 20.8011 207.56 20.5625C207.818 20.3201 208.127 20.1989 208.487 20.1989C208.846 20.1989 209.153 20.3201 209.407 20.5625C209.665 20.8011 209.793 21.0871 209.793 21.4205C209.793 21.7576 209.665 22.0473 209.407 22.2898C209.153 22.5284 208.846 22.6477 208.487 22.6477ZM214.05 20.8636V32.5H211.63V20.8636H214.05ZM219.967 32.6705C219.069 32.6705 218.296 32.4886 217.648 32.125C217.004 31.7576 216.508 31.2386 216.16 30.5682C215.811 29.8939 215.637 29.0966 215.637 28.1761C215.637 27.2784 215.811 26.4905 216.16 25.8125C216.508 25.1345 216.999 24.6061 217.631 24.2273C218.268 23.8485 219.014 23.6591 219.87 23.6591C220.446 23.6591 220.982 23.7519 221.478 23.9375C221.978 24.1193 222.414 24.3939 222.785 24.7614C223.16 25.1288 223.451 25.5909 223.66 26.1477C223.868 26.7008 223.972 27.3485 223.972 28.0909V28.7557H216.603V27.2557H221.694C221.694 26.9072 221.618 26.5985 221.467 26.3295C221.315 26.0606 221.105 25.8504 220.836 25.6989C220.571 25.5436 220.262 25.4659 219.91 25.4659C219.542 25.4659 219.217 25.5511 218.933 25.7216C218.652 25.8883 218.433 26.1136 218.273 26.3977C218.114 26.678 218.033 26.9905 218.029 27.3352V28.7614C218.029 29.1932 218.109 29.5663 218.268 29.8807C218.431 30.1951 218.66 30.4375 218.955 30.608C219.251 30.7784 219.601 30.8636 220.006 30.8636C220.275 30.8636 220.522 30.8258 220.745 30.75C220.969 30.6742 221.16 30.5606 221.319 30.4091C221.478 30.2576 221.599 30.072 221.683 29.8523L223.921 30C223.808 30.5379 223.575 31.0076 223.222 31.4091C222.874 31.8068 222.423 32.1174 221.87 32.3409C221.321 32.5606 220.686 32.6705 219.967 32.6705Z" fill="white"/>
</svg>
