<svg width="24" height="24" viewBox="0 0 24 24" fill="none" xmlns="http://www.w3.org/2000/svg">
<mask id="mask0_616_35147" style="mask-type:alpha" maskUnits="userSpaceOnUse" x="0" y="0" width="24" height="24">
<rect width="24" height="24" fill="#D9D9D9"/>
</mask>
<g mask="url(#mask0_616_35147)">
<path d="M10.998 17.0005H12.998V13.0005H16.998V11.0005H12.998V7.00049H10.998V11.0005H6.99805V13.0005H10.998V17.0005ZM11.998 22.0005C10.6147 22.0005 9.31471 21.738 8.09805 21.213C6.88138 20.688 5.82305 19.9755 4.92305 19.0755C4.02305 18.1755 3.31055 17.1172 2.78555 15.9005C2.26055 14.6838 1.99805 13.3838 1.99805 12.0005C1.99805 10.6172 2.26055 9.31715 2.78555 8.10049C3.31055 6.88382 4.02305 5.82549 4.92305 4.92549C5.82305 4.02549 6.88138 3.31299 8.09805 2.78799C9.31471 2.26299 10.6147 2.00049 11.998 2.00049C13.3814 2.00049 14.6814 2.26299 15.898 2.78799C17.1147 3.31299 18.173 4.02549 19.073 4.92549C19.973 5.82549 20.6855 6.88382 21.2105 8.10049C21.7355 9.31715 21.998 10.6172 21.998 12.0005C21.998 13.3838 21.7355 14.6838 21.2105 15.9005C20.6855 17.1172 19.973 18.1755 19.073 19.0755C18.173 19.9755 17.1147 20.688 15.898 21.213C14.6814 21.738 13.3814 22.0005 11.998 22.0005Z" fill="#535BD8"/>
</g>
</svg>
