<svg width="28" height="28" viewBox="0 0 28 28" fill="none" xmlns="http://www.w3.org/2000/svg">
<mask id="mask0_854_1897" style="mask-type:alpha" maskUnits="userSpaceOnUse" x="0" y="0" width="28" height="28">
<rect width="28" height="28" fill="#D9D9D9"/>
</mask>
<g mask="url(#mask0_854_1897)">
<path d="M14 19.833C15.2833 19.833 16.3819 19.3761 17.2958 18.4622C18.2097 17.5483 18.6667 16.4497 18.6667 15.1663H9.33333C9.33333 16.4497 9.79028 17.5483 10.7042 18.4622C11.6181 19.3761 12.7167 19.833 14 19.833ZM8.16667 10.4997H12.8333C12.8333 9.85801 12.6049 9.3087 12.1479 8.85176C11.691 8.39481 11.1417 8.16634 10.5 8.16634C9.85833 8.16634 9.30903 8.39481 8.85208 8.85176C8.39514 9.3087 8.16667 9.85801 8.16667 10.4997ZM15.1667 10.4997H19.8333C19.8333 9.85801 19.6049 9.3087 19.1479 8.85176C18.691 8.39481 18.1417 8.16634 17.5 8.16634C16.8583 8.16634 16.309 8.39481 15.8521 8.85176C15.3951 9.3087 15.1667 9.85801 15.1667 10.4997ZM14 25.6663C12.5417 25.6663 11.1757 25.3893 9.90208 24.8351C8.62847 24.2809 7.52014 23.5323 6.57708 22.5893C5.63403 21.6462 4.88542 20.5379 4.33125 19.2643C3.77708 17.9906 3.5 16.6247 3.5 15.1663V2.33301H24.5V15.1663C24.5 16.6247 24.2229 17.9906 23.6687 19.2643C23.1146 20.5379 22.366 21.6462 21.4229 22.5893C20.4799 23.5323 19.3715 24.2809 18.0979 24.8351C16.8243 25.3893 15.4583 25.6663 14 25.6663ZM14 23.333C16.2556 23.333 18.1806 22.5358 19.775 20.9413C21.3694 19.3469 22.1667 17.4219 22.1667 15.1663V4.66634H5.83333V15.1663C5.83333 17.4219 6.63056 19.3469 8.225 20.9413C9.81944 22.5358 11.7444 23.333 14 23.333Z" fill="white"/>
</g>
</svg>
