<svg width="15" height="15" viewBox="0 0 15 15" fill="none" xmlns="http://www.w3.org/2000/svg">
<g clip-path="url(#clip0_854_1950)">
<path d="M6.30321 2.36434L1.11533 11.0251C1.00837 11.2103 0.951776 11.4203 0.951177 11.6342C0.950578 11.8481 1.006 12.0585 1.11192 12.2443C1.21784 12.4301 1.37058 12.585 1.55493 12.6934C1.73928 12.8019 1.94882 12.8602 2.16271 12.8626H12.5385C12.7523 12.8602 12.9619 12.8019 13.1462 12.6934C13.3306 12.585 13.4833 12.4301 13.5892 12.2443C13.6952 12.0585 13.7506 11.8481 13.75 11.6342C13.7494 11.4203 13.6928 11.2103 13.5858 11.0251L8.39796 2.36434C8.28877 2.18433 8.13503 2.0355 7.95157 1.93221C7.76811 1.82892 7.56112 1.77466 7.35058 1.77466C7.14005 1.77466 6.93306 1.82892 6.7496 1.93221C6.56614 2.0355 6.4124 2.18433 6.30321 2.36434Z" stroke="#2D2A3A" stroke-width="1.33333" stroke-linecap="round" stroke-linejoin="round"/>
<path d="M7.34961 5.51245V7.96245" stroke="#2D2A3A" stroke-width="1.33333" stroke-linecap="round" stroke-linejoin="round"/>
<path d="M7.34961 10.4126H7.35628" stroke="#2D2A3A" stroke-width="1.33333" stroke-linecap="round" stroke-linejoin="round"/>
</g>
<defs>
<clipPath id="clip0_854_1950">
<rect width="14.7" height="14.7" fill="white"/>
</clipPath>
</defs>
</svg>
