<svg width="32" height="32" viewBox="0 0 32 32" fill="none" xmlns="http://www.w3.org/2000/svg">
<rect width="32" height="32" rx="8.72727" fill="#2BA8A6"/>
<mask id="mask0_616_35009" style="mask-type:alpha" maskUnits="userSpaceOnUse" x="5" y="5" width="22" height="22">
<rect x="5.32422" y="5.33252" width="21.3333" height="21.3333" fill="#D9D9D9"/>
</mask>
<g mask="url(#mask0_616_35009)">
<path d="M15.9902 20.4442C16.968 20.4442 17.805 20.096 18.5013 19.3997C19.1976 18.7034 19.5458 17.8664 19.5458 16.8886H12.4347C12.4347 17.8664 12.7828 18.7034 13.4791 19.3997C14.1754 20.096 15.0125 20.4442 15.9902 20.4442ZM11.5458 13.3331H15.1013C15.1013 12.8442 14.9273 12.4257 14.5791 12.0775C14.231 11.7294 13.8125 11.5553 13.3236 11.5553C12.8347 11.5553 12.4162 11.7294 12.068 12.0775C11.7199 12.4257 11.5458 12.8442 11.5458 13.3331ZM16.8791 13.3331H20.4347C20.4347 12.8442 20.2606 12.4257 19.9125 12.0775C19.5643 11.7294 19.1458 11.5553 18.6569 11.5553C18.168 11.5553 17.7495 11.7294 17.4013 12.0775C17.0532 12.4257 16.8791 12.8442 16.8791 13.3331ZM15.9902 24.8886C14.8791 24.8886 13.8384 24.6775 12.868 24.2553C11.8976 23.8331 11.0532 23.2627 10.3347 22.5442C9.61616 21.8257 9.04579 20.9812 8.62357 20.0108C8.20135 19.0405 7.99023 17.9997 7.99023 16.8886V7.11084H23.9902V16.8886C23.9902 17.9997 23.7791 19.0405 23.3569 20.0108C22.9347 20.9812 22.3643 21.8257 21.6458 22.5442C20.9273 23.2627 20.0828 23.8331 19.1125 24.2553C18.1421 24.6775 17.1013 24.8886 15.9902 24.8886ZM15.9902 23.1108C17.7088 23.1108 19.1754 22.5034 20.3902 21.2886C21.605 20.0738 22.2125 18.6071 22.2125 16.8886V8.88862H9.76801V16.8886C9.76801 18.6071 10.3754 20.0738 11.5902 21.2886C12.805 22.5034 14.2717 23.1108 15.9902 23.1108Z" fill="white"/>
</g>
</svg>
