<svg width="22" height="22" viewBox="0 0 22 22" fill="none" xmlns="http://www.w3.org/2000/svg">
<g clip-path="url(#clip0_616_35100)">
<path d="M5.33547 7.55317C5.33547 6.02081 5.9442 4.55121 7.02774 3.46766C8.11129 2.38412 9.58089 1.77539 11.1132 1.77539C12.6456 1.77539 14.1152 2.38412 15.1988 3.46766C16.2823 4.55121 16.891 6.02081 16.891 7.55317C16.891 9.77539 15.1132 11.1087 14.2244 11.9976C13.3355 12.8865 12.4466 13.7754 12.4466 14.6643C12.4466 15.2536 12.2125 15.8189 11.7957 16.2356C11.379 16.6524 10.8137 16.8865 10.2244 16.8865C9.63499 16.8865 9.06976 16.6524 8.65301 16.2356C8.23626 15.8189 8.00214 15.2536 8.00214 14.6643C7.25254 14.522 6.55221 14.1891 5.96856 13.6976C5.38491 13.2062 4.9376 12.5728 4.6697 11.8584C4.4018 11.144 4.32232 10.3726 4.43893 9.61861C4.55553 8.86459 4.86429 8.15328 5.33547 7.55317Z" stroke="white" stroke-width="1.77778" stroke-linecap="round" stroke-linejoin="round"/>
</g>
<defs>
<clipPath id="clip0_616_35100">
<rect width="21.3333" height="21.3333" fill="white"/>
</clipPath>
</defs>
</svg>
