<svg width="16" height="16" viewBox="0 0 16 16" fill="none" xmlns="http://www.w3.org/2000/svg">
<mask id="mask0_616_35058" style="mask-type:alpha" maskUnits="userSpaceOnUse" x="0" y="0" width="16" height="16">
<rect width="16" height="16" fill="#D9D9D9"/>
</mask>
<g mask="url(#mask0_616_35058)">
<path d="M5.08398 4.26659L6.95065 1.84992C7.08398 1.67214 7.24232 1.54159 7.42565 1.45825C7.60898 1.37492 7.80065 1.33325 8.00065 1.33325C8.20065 1.33325 8.39232 1.37492 8.57565 1.45825C8.75898 1.54159 8.91732 1.67214 9.05065 1.84992L10.9173 4.26659L13.7507 5.21659C14.0395 5.30547 14.2673 5.46936 14.434 5.70825C14.6006 5.94714 14.684 6.21103 14.684 6.49992C14.684 6.63325 14.6645 6.76659 14.6257 6.89992C14.5868 7.03325 14.5229 7.16103 14.434 7.28325L12.6006 9.88325L12.6673 12.6166C12.6784 13.0055 12.5507 13.3333 12.284 13.5999C12.0173 13.8666 11.7062 13.9999 11.3507 13.9999C11.3284 13.9999 11.2062 13.9833 10.984 13.9499L8.00065 13.1166L5.01732 13.9499C4.96176 13.9721 4.90065 13.986 4.83398 13.9916C4.76732 13.9971 4.70621 13.9999 4.65065 13.9999C4.2951 13.9999 3.98398 13.8666 3.71732 13.5999C3.45065 13.3333 3.32287 13.0055 3.33398 12.6166L3.40065 9.86659L1.58398 7.28325C1.4951 7.16103 1.43121 7.03325 1.39232 6.89992C1.35343 6.76659 1.33398 6.63325 1.33398 6.49992C1.33398 6.22214 1.41454 5.96381 1.57565 5.72492C1.73676 5.48603 1.96176 5.31659 2.25065 5.21659L5.08398 4.26659Z" fill="#52B788"/>
</g>
</svg>
