<svg width="15" height="15" viewBox="0 0 15 15" fill="none" xmlns="http://www.w3.org/2000/svg">
<mask id="mask0_854_1958" style="mask-type:alpha" maskUnits="userSpaceOnUse" x="0" y="0" width="15" height="15">
<rect width="14.7" height="14.7" fill="#D9D9D9"/>
</mask>
<g mask="url(#mask0_854_1958)">
<path d="M4.66992 3.9201L6.38492 1.69979C6.50742 1.53645 6.65289 1.4165 6.82133 1.33994C6.98977 1.26338 7.16586 1.2251 7.34961 1.2251C7.53336 1.2251 7.70945 1.26338 7.87789 1.33994C8.04633 1.4165 8.1918 1.53645 8.3143 1.69979L10.0293 3.9201L12.6324 4.79291C12.8978 4.87458 13.1071 5.02515 13.2602 5.24463C13.4134 5.46411 13.4899 5.70656 13.4899 5.97197C13.4899 6.09447 13.4721 6.21697 13.4363 6.33947C13.4006 6.46197 13.3419 6.57937 13.2602 6.69166L11.5759 9.08041L11.6371 11.5917C11.6473 11.949 11.5299 12.2501 11.2849 12.4951C11.0399 12.7401 10.7541 12.8626 10.4274 12.8626C10.407 12.8626 10.2947 12.8473 10.0905 12.8167L7.34961 12.051L4.60867 12.8167C4.55763 12.8371 4.50148 12.8498 4.44023 12.8549C4.37898 12.86 4.32284 12.8626 4.2718 12.8626C3.94513 12.8626 3.6593 12.7401 3.4143 12.4951C3.1693 12.2501 3.0519 11.949 3.06211 11.5917L3.12336 9.0651L1.4543 6.69166C1.37263 6.57937 1.31393 6.46197 1.2782 6.33947C1.24247 6.21697 1.22461 6.09447 1.22461 5.97197C1.22461 5.71676 1.29862 5.47942 1.44664 5.25994C1.59466 5.04046 1.80138 4.88479 2.0668 4.79291L4.66992 3.9201Z" fill="#2D2A3A"/>
</g>
</svg>
