<svg width="15" height="15" viewBox="0 0 15 15" fill="none" xmlns="http://www.w3.org/2000/svg">
<mask id="mask0_854_1935" style="mask-type:alpha" maskUnits="userSpaceOnUse" x="0" y="0" width="15" height="15">
<rect width="14.7" height="14.7" fill="#D9D9D9"/>
</mask>
<g mask="url(#mask0_854_1935)">
<path d="M2.34773 12.8626C1.5774 12.8626 1.09634 12.0282 1.4823 11.3616L6.48536 2.71992C6.87052 2.05464 7.83104 2.05464 8.21621 2.71992L13.2193 11.3616C13.6052 12.0282 13.1242 12.8626 12.3538 12.8626H2.34773ZM7.78719 10.849C7.90458 10.7316 7.96328 10.5861 7.96328 10.4126C7.96328 10.2391 7.90458 10.0936 7.78719 9.97619C7.66979 9.8588 7.52432 9.8001 7.35078 9.8001C7.17724 9.8001 7.03177 9.8588 6.91438 9.97619C6.79698 10.0936 6.73828 10.2391 6.73828 10.4126C6.73828 10.5861 6.79698 10.7316 6.91438 10.849C7.03177 10.9664 7.17724 11.0251 7.35078 11.0251C7.52432 11.0251 7.66979 10.9664 7.78719 10.849ZM6.73828 9.1876H7.96328V6.1251H6.73828V9.1876Z" fill="#2D2A3A"/>
</g>
</svg>
