<svg width="28" height="28" viewBox="0 0 28 28" fill="none" xmlns="http://www.w3.org/2000/svg">
<mask id="mask0_616_28335" style="mask-type:alpha" maskUnits="userSpaceOnUse" x="0" y="0" width="28" height="28">
<rect width="28" height="28" fill="#D9D9D9"/>
</mask>
<g mask="url(#mask0_616_28335)">
<path d="M4.66699 25.6668V9.3335C4.66699 8.69183 4.89546 8.14252 5.35241 7.68558C5.80935 7.22864 6.35866 7.00016 7.00033 7.00016H16.3337C16.9753 7.00016 17.5246 7.22864 17.9816 7.68558C18.4385 8.14252 18.667 8.69183 18.667 9.3335V25.6668L11.667 22.1668L4.66699 25.6668ZM7.00033 22.1377L11.667 19.6293L16.3337 22.1377V9.3335H7.00033V22.1377ZM21.0003 21.0002V4.66683H8.16699V2.3335H21.0003C21.642 2.3335 22.1913 2.56197 22.6482 3.01891C23.1052 3.47586 23.3337 4.02516 23.3337 4.66683V21.0002H21.0003Z" fill="#535BD8"/>
</g>
</svg>
