<svg width="61" height="65" viewBox="0 0 61 65" fill="none" xmlns="http://www.w3.org/2000/svg">
<path d="M27.8481 1.76826C27.8481 0.764979 28.6621 -0.0536792 29.6638 0.00285553C34.7398 0.289344 39.6853 1.77383 44.0909 4.34555C49.0204 7.2231 53.0969 11.3586 55.9035 16.3288C58.71 21.299 60.1458 26.9256 60.0639 32.633C59.9821 38.3403 58.3855 43.9234 55.4375 48.8111C52.4896 53.6988 48.2961 57.7156 43.2861 60.4506C38.2761 63.1855 32.6295 64.5405 26.9239 64.3768C21.2184 64.213 15.6588 62.5365 10.8138 59.5188C6.48384 56.8218 2.86364 53.1399 0.242184 48.7838C-0.275126 47.9242 0.0692286 46.8222 0.956642 46.3542C1.84406 45.8861 2.93795 46.2296 3.46141 47.0855C5.77841 50.8741 8.95114 54.0782 12.7347 56.4349C17.0333 59.1123 21.966 60.5998 27.0282 60.7451C32.0903 60.8903 37.1002 59.6882 41.5452 57.2616C45.9903 54.835 49.7109 51.2712 52.3264 46.9346C54.9419 42.5981 56.3585 37.6446 56.4311 32.5808C56.5038 27.5171 55.2299 22.525 52.7398 18.1152C50.2497 13.7055 46.6329 10.0363 42.2593 7.48327C38.4097 5.23609 34.0954 3.92456 29.6635 3.64256C28.6623 3.57885 27.8481 2.77154 27.8481 1.76826Z" fill="#EB4A98"/>
</svg>
