<svg width="64" height="64" viewBox="0 0 64 64" fill="none" xmlns="http://www.w3.org/2000/svg">
<mask id="mask0_616_32295" style="mask-type:alpha" maskUnits="userSpaceOnUse" x="0" y="0" width="64" height="64">
<rect width="64" height="64" fill="#FFCF28"/>
</mask>
<g mask="url(#mask0_616_32295)">
<path d="M37.7026 40.7668C39.3693 39.5002 40.5804 37.8668 41.3359 35.8668H22.6693C23.4248 37.8668 24.6359 39.5002 26.3026 40.7668C27.9693 42.0335 29.8693 42.6668 32.0026 42.6668C34.1359 42.6668 36.0359 42.0335 37.7026 40.7668ZM28.1693 30.8335C28.947 30.0557 29.3359 29.1113 29.3359 28.0002C29.3359 26.8891 28.947 25.9446 28.1693 25.1668C27.3915 24.3891 26.447 24.0002 25.3359 24.0002C24.2248 24.0002 23.2804 24.3891 22.5026 25.1668C21.7248 25.9446 21.3359 26.8891 21.3359 28.0002C21.3359 29.1113 21.7248 30.0557 22.5026 30.8335C23.2804 31.6113 24.2248 32.0002 25.3359 32.0002C26.447 32.0002 27.3915 31.6113 28.1693 30.8335ZM41.5026 30.8335C42.2804 30.0557 42.6693 29.1113 42.6693 28.0002C42.6693 26.8891 42.2804 25.9446 41.5026 25.1668C40.7248 24.3891 39.7804 24.0002 38.6693 24.0002C37.5582 24.0002 36.6137 24.3891 35.8359 25.1668C35.0582 25.9446 34.6693 26.8891 34.6693 28.0002C34.6693 29.1113 35.0582 30.0557 35.8359 30.8335C36.6137 31.6113 37.5582 32.0002 38.6693 32.0002C39.7804 32.0002 40.7248 31.6113 41.5026 30.8335ZM20.3359 17.0668L27.8026 7.40016C28.3359 6.68905 28.9693 6.16683 29.7026 5.8335C30.4359 5.50016 31.2026 5.3335 32.0026 5.3335C32.8026 5.3335 33.5693 5.50016 34.3026 5.8335C35.0359 6.16683 35.6693 6.68905 36.2026 7.40016L43.6693 17.0668L55.0026 20.8668C56.1582 21.2224 57.0693 21.8779 57.7359 22.8335C58.4026 23.7891 58.7359 24.8446 58.7359 26.0002C58.7359 26.5335 58.6582 27.0668 58.5026 27.6002C58.347 28.1335 58.0915 28.6446 57.7359 29.1335L50.4026 39.5335L50.6693 50.4668C50.7137 52.0224 50.2026 53.3335 49.1359 54.4002C48.0693 55.4668 46.8248 56.0002 45.4026 56.0002C45.3137 56.0002 44.8248 55.9335 43.9359 55.8002L32.0026 52.4668L20.0693 55.8002C19.847 55.8891 19.6026 55.9446 19.3359 55.9668C19.0693 55.9891 18.8248 56.0002 18.6026 56.0002C17.1804 56.0002 15.9359 55.4668 14.8693 54.4002C13.8026 53.3335 13.2915 52.0224 13.3359 50.4668L13.6026 39.4668L6.33594 29.1335C5.98038 28.6446 5.72483 28.1335 5.56927 27.6002C5.41372 27.0668 5.33594 26.5335 5.33594 26.0002C5.33594 24.8891 5.65816 23.8557 6.3026 22.9002C6.94705 21.9446 7.84705 21.2668 9.0026 20.8668L20.3359 17.0668Z" fill="#FFCF28"/>
</g>
</svg>
