<svg width="28" height="28" viewBox="0 0 28 28" fill="none" xmlns="http://www.w3.org/2000/svg">
<g clip-path="url(#clip0_616_32437)">
<mask id="mask0_616_32437" style="mask-type:alpha" maskUnits="userSpaceOnUse" x="0" y="0" width="29" height="29">
<rect x="0.00195312" y="0.132812" width="28" height="28" fill="#D9D9D9"/>
</mask>
<g mask="url(#mask0_616_32437)">
<path d="M8.16797 23.495V12.9658H10.0346C10.1707 12.9658 10.3069 12.9804 10.443 13.0096C10.5791 13.0387 10.7152 13.0728 10.8513 13.1117L18.9305 16.1158C19.2027 16.213 19.4214 16.388 19.5867 16.6408C19.752 16.8936 19.8346 17.1561 19.8346 17.4283C19.8346 17.8367 19.6937 18.1672 19.4117 18.42C19.1298 18.6728 18.8041 18.7992 18.4346 18.7992H15.3721C15.2749 18.7992 15.202 18.7943 15.1534 18.7846C15.1048 18.7748 15.0416 18.7505 14.9638 18.7117L13.0971 17.9825L12.718 19.12L14.9638 19.9075C15.0027 19.9269 15.061 19.9415 15.1388 19.9512C15.2166 19.961 15.2846 19.9658 15.343 19.9658H23.3346C23.9569 19.9658 24.5013 20.1894 24.968 20.6367C25.4346 21.0839 25.668 21.638 25.668 22.2992L16.3638 25.7992L8.16797 23.495ZM1.16797 25.7992V12.9658H5.83464V25.7992H1.16797ZM18.668 15.2992L13.8263 10.5742C13.2235 9.99082 12.7131 9.34429 12.2951 8.63457C11.877 7.92485 11.668 7.15193 11.668 6.31582C11.668 5.24638 12.0423 4.33735 12.7909 3.58874C13.5395 2.84013 14.4485 2.46582 15.518 2.46582C16.1402 2.46582 16.7235 2.59707 17.268 2.85957C17.8124 3.12207 18.2791 3.47693 18.668 3.92415C19.0569 3.47693 19.5235 3.12207 20.068 2.85957C20.6124 2.59707 21.1957 2.46582 21.818 2.46582C22.8874 2.46582 23.7964 2.84013 24.5451 3.58874C25.2937 4.33735 25.668 5.24638 25.668 6.31582C25.668 7.15193 25.4638 7.92485 25.0555 8.63457C24.6471 9.34429 24.1416 9.99082 23.5388 10.5742L18.668 15.2992Z" fill="#535BD8"/>
</g>
</g>
<defs>
<clipPath id="clip0_616_32437">
<rect width="28" height="28" fill="white"/>
</clipPath>
</defs>
</svg>
