<svg width="28" height="28" viewBox="0 0 28 28" fill="none" xmlns="http://www.w3.org/2000/svg">
<mask id="mask0_616_32446" style="mask-type:alpha" maskUnits="userSpaceOnUse" x="0" y="0" width="28" height="28">
<rect width="28" height="28" fill="#D9D9D9"/>
</mask>
<g mask="url(#mask0_616_32446)">
<path d="M22.2399 20.4897C22.5802 20.1494 22.7503 19.7362 22.7503 19.2501C22.7503 18.764 22.5802 18.3508 22.2399 18.0105C21.8996 17.6702 21.4864 17.5001 21.0003 17.5001C20.5142 17.5001 20.101 17.6702 19.7607 18.0105C19.4205 18.3508 19.2503 18.764 19.2503 19.2501C19.2503 19.7362 19.4205 20.1494 19.7607 20.4897C20.101 20.8299 20.5142 21.0001 21.0003 21.0001C21.4864 21.0001 21.8996 20.8299 22.2399 20.4897ZM22.6337 24.0917C23.1392 23.8195 23.5573 23.4404 23.8878 22.9542C23.4406 22.682 22.9739 22.4827 22.4878 22.3563C22.0017 22.2299 21.5059 22.1667 21.0003 22.1667C20.4948 22.1667 19.9989 22.2299 19.5128 22.3563C19.0267 22.4827 18.56 22.682 18.1128 22.9542C18.4434 23.4404 18.8614 23.8195 19.367 24.0917C19.8725 24.364 20.417 24.5001 21.0003 24.5001C21.5837 24.5001 22.1281 24.364 22.6337 24.0917ZM10.5003 9.33341H17.5003V7.00008C17.5003 6.02786 17.16 5.20147 16.4795 4.52091C15.7989 3.84036 14.9725 3.50008 14.0003 3.50008C13.0281 3.50008 12.2017 3.84036 11.5212 4.52091C10.8406 5.20147 10.5003 6.02786 10.5003 7.00008V9.33341ZM14.292 25.6667H7.00033C6.35866 25.6667 5.80935 25.4383 5.35241 24.9813C4.89546 24.5244 4.66699 23.9751 4.66699 23.3334V11.6667C4.66699 11.0251 4.89546 10.4758 5.35241 10.0188C5.80935 9.56189 6.35866 9.33341 7.00033 9.33341H8.16699V7.00008C8.16699 5.38619 8.73574 4.0105 9.87324 2.873C11.0107 1.7355 12.3864 1.16675 14.0003 1.16675C15.6142 1.16675 16.9899 1.7355 18.1274 2.873C19.2649 4.0105 19.8337 5.38619 19.8337 7.00008V9.33341H21.0003C21.642 9.33341 22.1913 9.56189 22.6482 10.0188C23.1052 10.4758 23.3337 11.0251 23.3337 11.6667V13.1834C22.9837 13.0667 22.6191 12.9792 22.2399 12.9209C21.8607 12.8626 21.4475 12.8334 21.0003 12.8334V11.6667H7.00033V23.3334H13.1837C13.3392 23.8001 13.4948 24.2036 13.6503 24.5438C13.8059 24.8841 14.0198 25.2584 14.292 25.6667ZM16.8732 25.1272C15.7357 23.9897 15.167 22.614 15.167 21.0001C15.167 19.3862 15.7357 18.0105 16.8732 16.873C18.0107 15.7355 19.3864 15.1667 21.0003 15.1667C22.6142 15.1667 23.9899 15.7355 25.1274 16.873C26.2649 18.0105 26.8337 19.3862 26.8337 21.0001C26.8337 22.614 26.2649 23.9897 25.1274 25.1272C23.9899 26.2647 22.6142 26.8334 21.0003 26.8334C19.3864 26.8334 18.0107 26.2647 16.8732 25.1272Z" fill="#535BD8"/>
</g>
</svg>
