<svg width="16" height="16" viewBox="0 0 16 16" fill="none" xmlns="http://www.w3.org/2000/svg">
<mask id="mask0_616_22582" style="mask-type:alpha" maskUnits="userSpaceOnUse" x="0" y="0" width="16" height="16">
<rect width="16" height="16" fill="#D9D9D9"/>
</mask>
<g mask="url(#mask0_616_22582)">
<path d="M4.00008 14.6665C3.63341 14.6665 3.31953 14.5359 3.05841 14.2748C2.7973 14.0137 2.66675 13.6998 2.66675 13.3332V6.6665C2.66675 6.29984 2.7973 5.98595 3.05841 5.72484C3.31953 5.46373 3.63341 5.33317 4.00008 5.33317H4.66675V3.99984C4.66675 3.07762 4.99175 2.2915 5.64175 1.6415C6.29175 0.991504 7.07786 0.666504 8.00008 0.666504C8.9223 0.666504 9.70842 0.991504 10.3584 1.6415C11.0084 2.2915 11.3334 3.07762 11.3334 3.99984V5.33317H12.0001C12.3667 5.33317 12.6806 5.46373 12.9417 5.72484C13.2029 5.98595 13.3334 6.29984 13.3334 6.6665V13.3332C13.3334 13.6998 13.2029 14.0137 12.9417 14.2748C12.6806 14.5359 12.3667 14.6665 12.0001 14.6665H4.00008ZM8.94175 10.9415C9.20286 10.6804 9.33342 10.3665 9.33342 9.99984C9.33342 9.63317 9.20286 9.31928 8.94175 9.05817C8.68064 8.79706 8.36675 8.6665 8.00008 8.6665C7.63341 8.6665 7.31953 8.79706 7.05841 9.05817C6.7973 9.31928 6.66675 9.63317 6.66675 9.99984C6.66675 10.3665 6.7973 10.6804 7.05841 10.9415C7.31953 11.2026 7.63341 11.3332 8.00008 11.3332C8.36675 11.3332 8.68064 11.2026 8.94175 10.9415ZM6.00008 5.33317H10.0001V3.99984C10.0001 3.44428 9.80564 2.97206 9.41675 2.58317C9.02786 2.19428 8.55564 1.99984 8.00008 1.99984C7.44453 1.99984 6.9723 2.19428 6.58341 2.58317C6.19453 2.97206 6.00008 3.44428 6.00008 3.99984V5.33317Z" fill="#228C45"/>
</g>
</svg>
