<svg width="24" height="24" viewBox="0 0 24 24" fill="none" xmlns="http://www.w3.org/2000/svg">
<mask id="mask0_616_33513" style="mask-type:alpha" maskUnits="userSpaceOnUse" x="0" y="0" width="24" height="24">
<rect width="24" height="24" fill="#D9D9D9"/>
</mask>
<g mask="url(#mask0_616_33513)">
<path d="M10.999 17.0005H12.999V13.0005H16.999V11.0005H12.999V7.00049H10.999V11.0005H6.99902V13.0005H10.999V17.0005ZM11.999 22.0005C10.6157 22.0005 9.31569 21.738 8.09902 21.213C6.88236 20.688 5.82402 19.9755 4.92402 19.0755C4.02402 18.1755 3.31152 17.1172 2.78652 15.9005C2.26152 14.6838 1.99902 13.3838 1.99902 12.0005C1.99902 10.6172 2.26152 9.31715 2.78652 8.10049C3.31152 6.88382 4.02402 5.82549 4.92402 4.92549C5.82402 4.02549 6.88236 3.31299 8.09902 2.78799C9.31569 2.26299 10.6157 2.00049 11.999 2.00049C13.3824 2.00049 14.6824 2.26299 15.899 2.78799C17.1157 3.31299 18.174 4.02549 19.074 4.92549C19.974 5.82549 20.6865 6.88382 21.2115 8.10049C21.7365 9.31715 21.999 10.6172 21.999 12.0005C21.999 13.3838 21.7365 14.6838 21.2115 15.9005C20.6865 17.1172 19.974 18.1755 19.074 19.0755C18.174 19.9755 17.1157 20.688 15.899 21.213C14.6824 21.738 13.3824 22.0005 11.999 22.0005Z" fill="#535BD8"/>
</g>
</svg>
