<svg width="33" height="53" viewBox="0 0 33 53" fill="none" xmlns="http://www.w3.org/2000/svg">
<path d="M0.000427246 1.76826C0.000427246 0.764979 0.814434 -0.0536805 1.81612 0.0028507C7.39848 0.317897 12.8143 2.08137 17.5237 5.13365C22.7423 8.51591 26.8706 13.3362 29.4103 19.0127C31.95 24.6893 32.7926 30.9795 31.8365 37.1244C30.9737 42.6697 28.6793 47.8828 25.1939 52.2548C24.5685 53.0393 23.4157 53.1006 22.6676 52.432C21.9196 51.7634 21.8603 50.6183 22.4801 49.8293C25.5011 45.9836 27.4915 41.4181 28.2465 36.5658C29.0948 31.1138 28.3472 25.5329 26.0939 20.4965C23.8405 15.4601 20.1778 11.1834 15.5477 8.1825C11.4269 5.5117 6.69646 3.9531 1.8159 3.64256C0.81464 3.57885 0.000427246 2.77154 0.000427246 1.76826Z" fill="#2BA8A6"/>
</svg>
