<svg width="28" height="28" viewBox="0 0 28 28" fill="none" xmlns="http://www.w3.org/2000/svg">
<path d="M6.99914 9.91634C6.99914 7.90512 7.7981 5.97627 9.22025 4.55411C10.6424 3.13196 12.5713 2.33301 14.5825 2.33301C16.5937 2.33301 18.5226 3.13196 19.9447 4.55411C21.3669 5.97627 22.1658 7.90512 22.1658 9.91634C22.1658 12.833 19.8325 14.583 18.6658 15.7497C17.4991 16.9163 16.3325 18.083 16.3325 19.2497C16.3325 20.0232 16.0252 20.7651 15.4782 21.3121C14.9312 21.8591 14.1894 22.1663 13.4158 22.1663C12.6423 22.1663 11.9004 21.8591 11.3534 21.3121C10.8064 20.7651 10.4991 20.0232 10.4991 19.2497C9.5153 19.0629 8.59611 18.6259 7.83007 17.9809C7.06403 17.3359 6.47694 16.5046 6.12532 15.5669C5.7737 14.6293 5.66939 13.6169 5.82243 12.6272C5.97547 11.6376 6.38072 10.704 6.99914 9.91634Z" stroke="white" stroke-width="2" stroke-linecap="round" stroke-linejoin="round"/>
</svg>
