<svg width="15" height="15" viewBox="0 0 15 15" fill="none" xmlns="http://www.w3.org/2000/svg">
<g clip-path="url(#clip0_799_1831)">
<path d="M6.30223 2.36434L1.11436 11.0251C1.00739 11.2103 0.950799 11.4203 0.9502 11.6342C0.949601 11.8481 1.00502 12.0585 1.11094 12.2443C1.21687 12.4301 1.3696 12.585 1.55395 12.6934C1.7383 12.8019 1.94785 12.8602 2.16173 12.8626H12.5375C12.7514 12.8602 12.9609 12.8019 13.1453 12.6934C13.3296 12.585 13.4823 12.4301 13.5883 12.2443C13.6942 12.0585 13.7496 11.8481 13.749 11.6342C13.7484 11.4203 13.6918 11.2103 13.5849 11.0251L8.39698 2.36434C8.28779 2.18433 8.13405 2.0355 7.95059 1.93221C7.76713 1.82892 7.56014 1.77466 7.34961 1.77466C7.13907 1.77466 6.93208 1.82892 6.74862 1.93221C6.56517 2.0355 6.41142 2.18433 6.30223 2.36434Z" stroke="#2D2A3A" stroke-width="1.33333" stroke-linecap="round" stroke-linejoin="round"/>
<path d="M7.34961 5.51245V7.96245" stroke="#2D2A3A" stroke-width="1.33333" stroke-linecap="round" stroke-linejoin="round"/>
<path d="M7.34961 10.4126H7.35628" stroke="#2D2A3A" stroke-width="1.33333" stroke-linecap="round" stroke-linejoin="round"/>
</g>
<defs>
<clipPath id="clip0_799_1831">
<rect width="14.7" height="14.7" fill="white"/>
</clipPath>
</defs>
</svg>
