<svg width="51" height="51" viewBox="0 0 51 51" fill="none" xmlns="http://www.w3.org/2000/svg">
<rect width="50.6301" height="50.6301" rx="25.3151" fill="#2BA8A6"/>
<mask id="mask0_799_1458" style="mask-type:alpha" maskUnits="userSpaceOnUse" x="11" y="11" width="29" height="29">
<rect x="11.1484" y="11.0957" width="28" height="28" fill="#D9D9D9"/>
</mask>
<g mask="url(#mask0_799_1458)">
<path d="M25.1484 30.9287C26.4318 30.9287 27.5304 30.4718 28.4443 29.5579C29.3582 28.644 29.8151 27.5454 29.8151 26.262H20.4818C20.4818 27.5454 20.9387 28.644 21.8526 29.5579C22.7665 30.4718 23.8651 30.9287 25.1484 30.9287ZM19.3151 21.5954H23.9818C23.9818 20.9537 23.7533 20.4044 23.2964 19.9475C22.8394 19.4905 22.2901 19.262 21.6484 19.262C21.0068 19.262 20.4575 19.4905 20.0005 19.9475C19.5436 20.4044 19.3151 20.9537 19.3151 21.5954ZM26.3151 21.5954H30.9818C30.9818 20.9537 30.7533 20.4044 30.2964 19.9475C29.8394 19.4905 29.2901 19.262 28.6484 19.262C28.0068 19.262 27.4575 19.4905 27.0005 19.9475C26.5436 20.4044 26.3151 20.9537 26.3151 21.5954ZM25.1484 36.762C23.6901 36.762 22.3241 36.485 21.0505 35.9308C19.7769 35.3766 18.6686 34.628 17.7255 33.685C16.7825 32.7419 16.0339 31.6336 15.4797 30.36C14.9255 29.0864 14.6484 27.7204 14.6484 26.262V13.4287H35.6484V26.262C35.6484 27.7204 35.3714 29.0864 34.8172 30.36C34.263 31.6336 33.5144 32.7419 32.5714 33.685C31.6283 34.628 30.52 35.3766 29.2464 35.9308C27.9727 36.485 26.6068 36.762 25.1484 36.762ZM25.1484 34.4287C27.404 34.4287 29.329 33.6315 30.9234 32.037C32.5179 30.4426 33.3151 28.5176 33.3151 26.262V15.762H16.9818V26.262C16.9818 28.5176 17.779 30.4426 19.3734 32.037C20.9679 33.6315 22.8929 34.4287 25.1484 34.4287Z" fill="white"/>
</g>
</svg>
