<svg width="32" height="32" viewBox="0 0 32 32" fill="none" xmlns="http://www.w3.org/2000/svg">
<rect width="32" height="32" rx="8.72727" fill="#2BA8A6"/>
<mask id="mask0_616_33375" style="mask-type:alpha" maskUnits="userSpaceOnUse" x="5" y="5" width="22" height="22">
<rect x="5.32422" y="5.33203" width="21.3333" height="21.3333" fill="#D9D9D9"/>
</mask>
<g mask="url(#mask0_616_33375)">
<path d="M15.9902 20.4437C16.968 20.4437 17.805 20.0955 18.5013 19.3992C19.1976 18.7029 19.5458 17.8659 19.5458 16.8881H12.4347C12.4347 17.8659 12.7828 18.7029 13.4791 19.3992C14.1754 20.0955 15.0125 20.4437 15.9902 20.4437ZM11.5458 13.3326H15.1013C15.1013 12.8437 14.9273 12.4252 14.5791 12.077C14.231 11.7289 13.8125 11.5548 13.3236 11.5548C12.8347 11.5548 12.4162 11.7289 12.068 12.077C11.7199 12.4252 11.5458 12.8437 11.5458 13.3326ZM16.8791 13.3326H20.4347C20.4347 12.8437 20.2606 12.4252 19.9125 12.077C19.5643 11.7289 19.1458 11.5548 18.6569 11.5548C18.168 11.5548 17.7495 11.7289 17.4013 12.077C17.0532 12.4252 16.8791 12.8437 16.8791 13.3326ZM15.9902 24.8881C14.8791 24.8881 13.8384 24.677 12.868 24.2548C11.8976 23.8326 11.0532 23.2622 10.3347 22.5437C9.61616 21.8252 9.04579 20.9807 8.62357 20.0103C8.20135 19.04 7.99023 17.9992 7.99023 16.8881V7.11035H23.9902V16.8881C23.9902 17.9992 23.7791 19.04 23.3569 20.0103C22.9347 20.9807 22.3643 21.8252 21.6458 22.5437C20.9273 23.2622 20.0828 23.8326 19.1125 24.2548C18.1421 24.677 17.1013 24.8881 15.9902 24.8881ZM15.9902 23.1103C17.7088 23.1103 19.1754 22.5029 20.3902 21.2881C21.605 20.0733 22.2125 18.6066 22.2125 16.8881V8.88813H9.76801V16.8881C9.76801 18.6066 10.3754 20.0733 11.5902 21.2881C12.805 22.5029 14.2717 23.1103 15.9902 23.1103Z" fill="white"/>
</g>
</svg>
