<svg width="22" height="22" viewBox="0 0 22 22" fill="none" xmlns="http://www.w3.org/2000/svg">
<path d="M18.6641 10.2226C18.6671 11.3958 18.393 12.5531 17.8641 13.6004C17.2369 14.8552 16.2727 15.9107 15.0796 16.6486C13.8864 17.3865 12.5114 17.7776 11.1085 17.7781C9.93529 17.7812 8.77794 17.5071 7.73073 16.9781L2.66406 18.667L4.35295 13.6004C3.824 12.5531 3.54989 11.3958 3.55295 10.2226C3.55349 8.81969 3.94461 7.44466 4.68248 6.25151C5.42035 5.05835 6.47584 4.09419 7.73073 3.46702C8.77794 2.93807 9.93529 2.66396 11.1085 2.66702H11.553C13.4057 2.76923 15.1557 3.55125 16.4677 4.86334C17.7798 6.17542 18.5618 7.92537 18.6641 9.77813V10.2226Z" stroke="white" stroke-width="1.77778" stroke-linecap="round" stroke-linejoin="round"/>
</svg>
