<svg width="15" height="15" viewBox="0 0 15 15" fill="none" xmlns="http://www.w3.org/2000/svg">
<mask id="mask0_799_1534" style="mask-type:alpha" maskUnits="userSpaceOnUse" x="0" y="0" width="15" height="15">
<rect width="14.4658" height="14.4658" fill="#D9D9D9"/>
</mask>
<g mask="url(#mask0_799_1534)">
<path d="M4.59549 3.85762L6.28316 1.67269C6.40371 1.51196 6.54686 1.39392 6.71261 1.31858C6.87837 1.24324 7.05165 1.20557 7.23248 1.20557C7.4133 1.20557 7.58659 1.24324 7.75234 1.31858C7.91809 1.39392 8.06124 1.51196 8.18179 1.67269L9.86946 3.85762L12.4311 4.71653C12.6923 4.79689 12.8982 4.94506 13.0489 5.16105C13.1996 5.37703 13.2749 5.61561 13.2749 5.8768C13.2749 5.99735 13.2574 6.1179 13.2222 6.23844C13.187 6.35899 13.1293 6.47452 13.0489 6.58502L11.3914 8.9357L11.4517 11.4069C11.4617 11.7585 11.3462 12.0549 11.1051 12.296C10.864 12.5371 10.5827 12.6576 10.2612 12.6576C10.2412 12.6576 10.1306 12.6426 9.92974 12.6124L7.23248 11.859L4.53522 12.6124C4.48499 12.6325 4.42974 12.6451 4.36946 12.6501C4.30919 12.6551 4.25394 12.6576 4.20371 12.6576C3.88225 12.6576 3.60097 12.5371 3.35987 12.296C3.11878 12.0549 3.00325 11.7585 3.0133 11.4069L3.07357 8.92064L1.43111 6.58502C1.35074 6.47452 1.29298 6.35899 1.25782 6.23844C1.22266 6.1179 1.20508 5.99735 1.20508 5.8768C1.20508 5.62566 1.27791 5.3921 1.42357 5.17611C1.56923 4.96013 1.77266 4.80694 2.03385 4.71653L4.59549 3.85762ZM5.33385 4.89735L2.41056 5.86173L4.27905 8.55899L4.21878 11.4371L7.23248 10.6083L10.2462 11.4521L10.1859 8.55899L12.0544 5.89187L9.13111 4.89735L7.23248 2.41105L5.33385 4.89735Z" fill="#2D2A3A"/>
</g>
</svg>
