<svg width="15" height="15" viewBox="0 0 15 15" fill="none" xmlns="http://www.w3.org/2000/svg">
<mask id="mask0_799_1839" style="mask-type:alpha" maskUnits="userSpaceOnUse" x="0" y="0" width="15" height="15">
<rect width="14.7" height="14.7" fill="#D9D9D9"/>
</mask>
<g mask="url(#mask0_799_1839)">
<path d="M4.66895 3.9201L6.38395 1.69979C6.50645 1.53645 6.65191 1.4165 6.82035 1.33994C6.98879 1.26338 7.16488 1.2251 7.34863 1.2251C7.53238 1.2251 7.70848 1.26338 7.87691 1.33994C8.04535 1.4165 8.19082 1.53645 8.31332 1.69979L10.0283 3.9201L12.6314 4.79291C12.8969 4.87458 13.1061 5.02515 13.2593 5.24463C13.4124 5.46411 13.4889 5.70656 13.4889 5.97197C13.4889 6.09447 13.4711 6.21697 13.4354 6.33947C13.3996 6.46197 13.3409 6.57937 13.2593 6.69166L11.5749 9.08041L11.6361 11.5917C11.6463 11.949 11.5289 12.2501 11.2839 12.4951C11.0389 12.7401 10.7531 12.8626 10.4264 12.8626C10.406 12.8626 10.2937 12.8473 10.0896 12.8167L7.34863 12.051L4.6077 12.8167C4.55665 12.8371 4.50051 12.8498 4.43926 12.8549C4.37801 12.86 4.32186 12.8626 4.27082 12.8626C3.94415 12.8626 3.65832 12.7401 3.41332 12.4951C3.16832 12.2501 3.05092 11.949 3.06113 11.5917L3.12238 9.0651L1.45332 6.69166C1.37165 6.57937 1.31296 6.46197 1.27723 6.33947C1.2415 6.21697 1.22363 6.09447 1.22363 5.97197C1.22363 5.71676 1.29764 5.47942 1.44566 5.25994C1.59368 5.04046 1.8004 4.88479 2.06582 4.79291L4.66895 3.9201Z" fill="#2D2A3A"/>
</g>
</svg>
