<svg width="16" height="16" viewBox="0 0 16 16" fill="none" xmlns="http://www.w3.org/2000/svg">
<mask id="mask0_616_33424" style="mask-type:alpha" maskUnits="userSpaceOnUse" x="0" y="0" width="16" height="16">
<rect width="16" height="16" fill="#D9D9D9"/>
</mask>
<g mask="url(#mask0_616_33424)">
<path d="M5.08301 4.26659L6.94967 1.84992C7.08301 1.67214 7.24134 1.54159 7.42467 1.45825C7.60801 1.37492 7.79967 1.33325 7.99967 1.33325C8.19967 1.33325 8.39134 1.37492 8.57467 1.45825C8.75801 1.54159 8.91634 1.67214 9.04967 1.84992L10.9163 4.26659L13.7497 5.21659C14.0386 5.30547 14.2663 5.46936 14.433 5.70825C14.5997 5.94714 14.683 6.21103 14.683 6.49992C14.683 6.63325 14.6636 6.76659 14.6247 6.89992C14.5858 7.03325 14.5219 7.16103 14.433 7.28325L12.5997 9.88325L12.6663 12.6166C12.6775 13.0055 12.5497 13.3333 12.283 13.5999C12.0163 13.8666 11.7052 13.9999 11.3497 13.9999C11.3275 13.9999 11.2052 13.9833 10.983 13.9499L7.99967 13.1166L5.01634 13.9499C4.96079 13.9721 4.89967 13.986 4.83301 13.9916C4.76634 13.9971 4.70523 13.9999 4.64967 13.9999C4.29412 13.9999 3.98301 13.8666 3.71634 13.5999C3.44967 13.3333 3.3219 13.0055 3.33301 12.6166L3.39967 9.86659L1.58301 7.28325C1.49412 7.16103 1.43023 7.03325 1.39134 6.89992C1.35245 6.76659 1.33301 6.63325 1.33301 6.49992C1.33301 6.22214 1.41356 5.96381 1.57467 5.72492C1.73579 5.48603 1.96079 5.31659 2.24967 5.21659L5.08301 4.26659Z" fill="#52B788"/>
</g>
</svg>
