<svg width="15" height="15" viewBox="0 0 15 15" fill="none" xmlns="http://www.w3.org/2000/svg">
<mask id="mask0_799_1527" style="mask-type:alpha" maskUnits="userSpaceOnUse" x="0" y="0" width="15" height="15">
<rect width="14.7" height="14.7" fill="#D9D9D9"/>
</mask>
<g mask="url(#mask0_799_1527)">
<path d="M2.34675 12.8626C1.57642 12.8626 1.09536 12.0282 1.48133 11.3616L6.48438 2.71992C6.86954 2.05464 7.83007 2.05464 8.21523 2.71992L13.2183 11.3616C13.6042 12.0282 13.1232 12.8626 12.3529 12.8626H2.34675ZM7.78621 10.849C7.90361 10.7316 7.96231 10.5861 7.96231 10.4126C7.96231 10.2391 7.90361 10.0936 7.78621 9.97619C7.66882 9.8588 7.52335 9.8001 7.3498 9.8001C7.17626 9.8001 7.03079 9.8588 6.9134 9.97619C6.796 10.0936 6.73731 10.2391 6.73731 10.4126C6.73731 10.5861 6.796 10.7316 6.9134 10.849C7.03079 10.9664 7.17626 11.0251 7.3498 11.0251C7.52335 11.0251 7.66882 10.9664 7.78621 10.849ZM6.73731 9.1876H7.96231V6.1251H6.73731V9.1876Z" fill="#2D2A3A"/>
</g>
</svg>
