<svg width="342" height="54" viewBox="0 0 342 54" fill="none" xmlns="http://www.w3.org/2000/svg">
<rect width="342" height="54" rx="27" fill="#535BD8"/>
<path d="M146.357 24.9375H143.868C143.822 24.6155 143.73 24.3295 143.589 24.0795C143.449 23.8258 143.269 23.6098 143.05 23.4318C142.83 23.2538 142.576 23.1174 142.288 23.0227C142.004 22.928 141.696 22.8807 141.362 22.8807C140.76 22.8807 140.235 23.0303 139.788 23.3295C139.341 23.625 138.995 24.0568 138.749 24.625C138.502 25.1894 138.379 25.875 138.379 26.6818C138.379 27.5114 138.502 28.2083 138.749 28.7727C138.999 29.3371 139.347 29.7633 139.794 30.0511C140.241 30.339 140.758 30.483 141.345 30.483C141.675 30.483 141.98 30.4394 142.26 30.3523C142.544 30.2652 142.796 30.1383 143.016 29.9716C143.235 29.8011 143.417 29.5947 143.561 29.3523C143.709 29.1098 143.811 28.8333 143.868 28.5227L146.357 28.5341C146.292 29.0682 146.131 29.5833 145.874 30.0795C145.62 30.572 145.277 31.0133 144.845 31.4034C144.417 31.7898 143.906 32.0966 143.311 32.3239C142.72 32.5473 142.052 32.6591 141.305 32.6591C140.268 32.6591 139.339 32.4242 138.521 31.9545C137.707 31.4848 137.063 30.8049 136.589 29.9148C136.12 29.0246 135.885 27.947 135.885 26.6818C135.885 25.4129 136.124 24.3333 136.601 23.4432C137.078 22.553 137.726 21.875 138.544 21.4091C139.362 20.9394 140.283 20.7045 141.305 20.7045C141.98 20.7045 142.605 20.7992 143.18 20.9886C143.76 21.178 144.273 21.4545 144.72 21.8182C145.167 22.178 145.531 22.6193 145.811 23.142C146.095 23.6648 146.277 24.2633 146.357 24.9375ZM152.018 32.6705C151.136 32.6705 150.373 32.483 149.729 32.108C149.089 31.7292 148.594 31.2027 148.246 30.5284C147.897 29.8504 147.723 29.0644 147.723 28.1705C147.723 27.2689 147.897 26.4811 148.246 25.8068C148.594 25.1288 149.089 24.6023 149.729 24.2273C150.373 23.8485 151.136 23.6591 152.018 23.6591C152.901 23.6591 153.662 23.8485 154.303 24.2273C154.946 24.6023 155.443 25.1288 155.791 25.8068C156.14 26.4811 156.314 27.2689 156.314 28.1705C156.314 29.0644 156.14 29.8504 155.791 30.5284C155.443 31.2027 154.946 31.7292 154.303 32.108C153.662 32.483 152.901 32.6705 152.018 32.6705ZM152.03 30.7955C152.431 30.7955 152.767 30.6818 153.036 30.4545C153.304 30.2235 153.507 29.9091 153.643 29.5114C153.784 29.1136 153.854 28.661 153.854 28.1534C153.854 27.6458 153.784 27.1932 153.643 26.7955C153.507 26.3977 153.304 26.0833 153.036 25.8523C152.767 25.6212 152.431 25.5057 152.03 25.5057C151.625 25.5057 151.284 25.6212 151.007 25.8523C150.734 26.0833 150.528 26.3977 150.388 26.7955C150.251 27.1932 150.183 27.6458 150.183 28.1534C150.183 28.661 150.251 29.1136 150.388 29.5114C150.528 29.9091 150.734 30.2235 151.007 30.4545C151.284 30.6818 151.625 30.7955 152.03 30.7955ZM160.308 27.4545V32.5H157.888V23.7727H160.195V25.3125H160.297C160.49 24.8049 160.814 24.4034 161.268 24.108C161.723 23.8087 162.274 23.6591 162.922 23.6591C163.528 23.6591 164.056 23.7917 164.507 24.0568C164.958 24.322 165.308 24.7008 165.558 25.1932C165.808 25.6818 165.933 26.2652 165.933 26.9432V32.5H163.513V27.375C163.517 26.8409 163.38 26.4242 163.104 26.125C162.827 25.822 162.446 25.6705 161.962 25.6705C161.636 25.6705 161.348 25.7405 161.098 25.8807C160.852 26.0208 160.659 26.2254 160.518 26.4943C160.382 26.7595 160.312 27.0795 160.308 27.4545ZM172.483 23.7727V25.5909H167.227V23.7727H172.483ZM168.42 21.6818H170.841V29.8182C170.841 30.0417 170.875 30.2159 170.943 30.3409C171.011 30.4621 171.106 30.5473 171.227 30.5966C171.352 30.6458 171.496 30.6705 171.659 30.6705C171.773 30.6705 171.886 30.661 172 30.642C172.114 30.6193 172.201 30.6023 172.261 30.5909L172.642 32.392C172.521 32.4299 172.35 32.4735 172.131 32.5227C171.911 32.5758 171.644 32.608 171.33 32.6193C170.746 32.642 170.235 32.5644 169.795 32.3864C169.36 32.2083 169.021 31.9318 168.778 31.5568C168.536 31.1818 168.417 30.7083 168.42 30.1364V21.6818ZM174.06 32.5V23.7727H176.48V32.5H174.06ZM175.276 22.6477C174.916 22.6477 174.607 22.5284 174.349 22.2898C174.096 22.0473 173.969 21.7576 173.969 21.4205C173.969 21.0871 174.096 20.8011 174.349 20.5625C174.607 20.3201 174.916 20.1989 175.276 20.1989C175.635 20.1989 175.942 20.3201 176.196 20.5625C176.454 20.8011 176.582 21.0871 176.582 21.4205C176.582 21.7576 176.454 22.0473 176.196 22.2898C175.942 22.5284 175.635 22.6477 175.276 22.6477ZM180.839 27.4545V32.5H178.419V23.7727H180.726V25.3125H180.828C181.021 24.8049 181.345 24.4034 181.8 24.108C182.254 23.8087 182.805 23.6591 183.453 23.6591C184.059 23.6591 184.588 23.7917 185.038 24.0568C185.489 24.322 185.839 24.7008 186.089 25.1932C186.339 25.6818 186.464 26.2652 186.464 26.9432V32.5H184.044V27.375C184.048 26.8409 183.911 26.4242 183.635 26.125C183.358 25.822 182.978 25.6705 182.493 25.6705C182.167 25.6705 181.879 25.7405 181.629 25.8807C181.383 26.0208 181.19 26.2254 181.05 26.4943C180.913 26.7595 180.843 27.0795 180.839 27.4545ZM193.969 28.7841V23.7727H196.389V32.5H194.065V30.9148H193.974C193.777 31.4261 193.45 31.8371 192.991 32.1477C192.537 32.4583 191.982 32.6136 191.327 32.6136C190.743 32.6136 190.23 32.4811 189.787 32.2159C189.344 31.9508 188.997 31.5739 188.747 31.0852C188.501 30.5966 188.376 30.0114 188.372 29.3295V23.7727H190.793V28.8977C190.796 29.4129 190.935 29.8201 191.207 30.1193C191.48 30.4186 191.846 30.5682 192.304 30.5682C192.596 30.5682 192.868 30.5019 193.122 30.3693C193.376 30.233 193.58 30.0322 193.736 29.767C193.895 29.5019 193.973 29.1742 193.969 28.7841ZM202.303 32.6705C201.405 32.6705 200.632 32.4886 199.984 32.125C199.34 31.7576 198.844 31.2386 198.496 30.5682C198.147 29.8939 197.973 29.0966 197.973 28.1761C197.973 27.2784 198.147 26.4905 198.496 25.8125C198.844 25.1345 199.335 24.6061 199.967 24.2273C200.604 23.8485 201.35 23.6591 202.206 23.6591C202.782 23.6591 203.318 23.7519 203.814 23.9375C204.314 24.1193 204.75 24.3939 205.121 24.7614C205.496 25.1288 205.787 25.5909 205.996 26.1477C206.204 26.7008 206.308 27.3485 206.308 28.0909V28.7557H198.939V27.2557H204.03C204.03 26.9072 203.954 26.5985 203.803 26.3295C203.651 26.0606 203.441 25.8504 203.172 25.6989C202.907 25.5436 202.598 25.4659 202.246 25.4659C201.878 25.4659 201.553 25.5511 201.268 25.7216C200.988 25.8883 200.768 26.1136 200.609 26.3977C200.45 26.678 200.369 26.9905 200.365 27.3352V28.7614C200.365 29.1932 200.445 29.5663 200.604 29.8807C200.767 30.1951 200.996 30.4375 201.291 30.608C201.587 30.7784 201.937 30.8636 202.342 30.8636C202.611 30.8636 202.857 30.8258 203.081 30.75C203.304 30.6742 203.496 30.5606 203.655 30.4091C203.814 30.2576 203.935 30.072 204.018 29.8523L206.257 30C206.143 30.5379 205.911 31.0076 205.558 31.4091C205.21 31.8068 204.759 32.1174 204.206 32.3409C203.657 32.5606 203.022 32.6705 202.303 32.6705Z" fill="white"/>
</svg>
