<svg width="28" height="28" viewBox="0 0 28 28" fill="none" xmlns="http://www.w3.org/2000/svg">
<mask id="mask0_616_26750" style="mask-type:alpha" maskUnits="userSpaceOnUse" x="0" y="0" width="28" height="28">
<rect width="28" height="28" fill="#D9D9D9"/>
</mask>
<g mask="url(#mask0_616_26750)">
<path d="M22.2399 20.4894C22.5802 20.1491 22.7503 19.7359 22.7503 19.2498C22.7503 18.7637 22.5802 18.3505 22.2399 18.0103C21.8996 17.67 21.4864 17.4998 21.0003 17.4998C20.5142 17.4998 20.101 17.67 19.7607 18.0103C19.4205 18.3505 19.2503 18.7637 19.2503 19.2498C19.2503 19.7359 19.4205 20.1491 19.7607 20.4894C20.101 20.8297 20.5142 20.9998 21.0003 20.9998C21.4864 20.9998 21.8996 20.8297 22.2399 20.4894ZM22.6337 24.0915C23.1392 23.8193 23.5573 23.4401 23.8878 22.954C23.4406 22.6818 22.9739 22.4825 22.4878 22.3561C22.0017 22.2297 21.5059 22.1665 21.0003 22.1665C20.4948 22.1665 19.9989 22.2297 19.5128 22.3561C19.0267 22.4825 18.56 22.6818 18.1128 22.954C18.4434 23.4401 18.8614 23.8193 19.367 24.0915C19.8725 24.3637 20.417 24.4998 21.0003 24.4998C21.5837 24.4998 22.1281 24.3637 22.6337 24.0915ZM10.5003 9.33317H17.5003V6.99984C17.5003 6.02762 17.16 5.20123 16.4795 4.52067C15.7989 3.84011 14.9725 3.49984 14.0003 3.49984C13.0281 3.49984 12.2017 3.84011 11.5212 4.52067C10.8406 5.20123 10.5003 6.02762 10.5003 6.99984V9.33317ZM14.292 25.6665H7.00033C6.35866 25.6665 5.80935 25.438 5.35241 24.9811C4.89546 24.5241 4.66699 23.9748 4.66699 23.3332V11.6665C4.66699 11.0248 4.89546 10.4755 5.35241 10.0186C5.80935 9.56164 6.35866 9.33317 7.00033 9.33317H8.16699V6.99984C8.16699 5.38595 8.73574 4.01025 9.87324 2.87275C11.0107 1.73525 12.3864 1.1665 14.0003 1.1665C15.6142 1.1665 16.9899 1.73525 18.1274 2.87275C19.2649 4.01025 19.8337 5.38595 19.8337 6.99984V9.33317H21.0003C21.642 9.33317 22.1913 9.56164 22.6482 10.0186C23.1052 10.4755 23.3337 11.0248 23.3337 11.6665V13.1832C22.9837 13.0665 22.6191 12.979 22.2399 12.9207C21.8607 12.8623 21.4475 12.8332 21.0003 12.8332V11.6665H7.00033V23.3332H13.1837C13.3392 23.7998 13.4948 24.2033 13.6503 24.5436C13.8059 24.8839 14.0198 25.2582 14.292 25.6665ZM16.8732 25.1269C15.7357 23.9894 15.167 22.6137 15.167 20.9998C15.167 19.3859 15.7357 18.0103 16.8732 16.8728C18.0107 15.7353 19.3864 15.1665 21.0003 15.1665C22.6142 15.1665 23.9899 15.7353 25.1274 16.8728C26.2649 18.0103 26.8337 19.3859 26.8337 20.9998C26.8337 22.6137 26.2649 23.9894 25.1274 25.1269C23.9899 26.2644 22.6142 26.8332 21.0003 26.8332C19.3864 26.8332 18.0107 26.2644 16.8732 25.1269Z" fill="#535BD8"/>
</g>
</svg>
